SplineFontDB: 3.2
FontName: ZameroSans-Medium
FullName: Zamero Sans Medium
FamilyName: Zamero Sans
Weight: Medium
Copyright: Copyright (c) 2024-2025, Zamero Type Foundry
UComments: "2024-1-17: Created with FontForge (http://fontforge.org)+AAoACgAK-Instead of Charlie and the Alphabet and Charlie and the Numbers, how about Charlie and the Fonts? :)"
Version: 001.100
ItalicAngle: 0
UnderlinePosition: -100
UnderlineWidth: 50
Ascent: 800
Descent: 200
InvalidEm: 0
LayerCount: 2
Layer: 0 0 "Back" 1
Layer: 1 0 "Fore" 0
XUID: [1021 474 1118879153 20760]
StyleMap: 0x0000
FSType: 0
OS2Version: 0
OS2_WeightWidthSlopeOnly: 0
OS2_UseTypoMetrics: 1
CreationTime: 1705525712
ModificationTime: 1743186832
PfmFamily: 33
TTFWeight: 500
TTFWidth: 5
LineGap: 90
VLineGap: 90
OS2TypoAscent: 0
OS2TypoAOffset: 1
OS2TypoDescent: 0
OS2TypoDOffset: 1
OS2TypoLinegap: 90
OS2WinAscent: 0
OS2WinAOffset: 1
OS2WinDescent: 0
OS2WinDOffset: 1
HheadAscent: 0
HheadAOffset: 1
HheadDescent: 0
HheadDOffset: 1
OS2Vendor: 'ZAM '
Lookup: 1 0 0 "Single Substitution lookup 5" { "Single Substitution lookup 5 subtable"  } []
Lookup: 1 0 0 "Single Substitution lookup 6" { "Single Substitution lookup 6 subtable"  } []
Lookup: 1 0 0 "'ss15' Style Set 15 lookup 20" { "'ss15' Style Set 15 lookup 20-1" ("ss15") } ['ss15' ('DFLT' <'dflt' > 'grek' <'dflt' > 'latn' <'dflt' > ) ]
Lookup: 1 0 0 "'ss14' Style Set 14 lookup 19" { "'ss14' Style Set 14 lookup 19-1" ("ss14") } ['ss14' ('DFLT' <'dflt' > 'grek' <'dflt' > 'latn' <'dflt' > ) ]
Lookup: 1 0 0 "'onum' Oldstyle Figures lookup 18" { "'onum' Oldstyle Figures lookup 18-1" ("osf") } ['onum' ('DFLT' <'dflt' > 'grek' <'dflt' > 'latn' <'dflt' > ) ]
Lookup: 1 0 0 "'tnum' Tabular Numbers lookup 17" { "'tnum' Tabular Numbers lookup 17-1" ("tf") } ['tnum' ('DFLT' <'dflt' > 'grek' <'dflt' > 'latn' <'dflt' > ) ]
Lookup: 1 0 0 "'dnom' Denominators lookup 0" { "'dnom' Denominators lookup 0 subtable" ("dnom") } ['dnom' ('DFLT' <'dflt' > 'latn' <'dflt' > ) ]

StartChar: I
Encoding: 73 73 0
Width: 434
Flags: W
HStem: 0 115.75<36.5 149.4 284.6 397.5> 30 85.75<149.4 284.6> 614.25 116.75<36.5 149.4 284.6 397.5> 614.25 86.75<149.4 284.6>
VStem: 149.4 135.2<30 701>
LayerCount: 2
Fore
SplineSet
397.5 0 m 1x88
 36.5 0 l 1
 36.5 115.75 l 1
 397.5 115.75 l 1
 397.5 0 l 1x88
397.5 614.25 m 1x28
 36.5 614.25 l 1
 36.5 731 l 1
 397.5 731 l 1
 397.5 614.25 l 1x28
149.4 30 m 1x58
 149.4 701 l 1
 284.6 701 l 1
 284.6 30 l 1
 149.4 30 l 1x58
EndSplineSet
EndChar

StartChar: O
Encoding: 79 79 1
Width: 797
Flags: W
HStem: -9.99805 123.657<293.329 504.449> 615.464 123.657<293.329 504.449>
VStem: 42.3775 135.079<238.238 490.886> 620.321 135.079<238.238 490.886>
LayerCount: 2
Back
SplineSet
104.848632812 364.561523438 m 0
 104.848632812 169.015917071 203.263968617 38.4638671875 398.888671875 38.4638671875 c 4
 594.513375133 38.4638671875 692.928710938 169.015917071 692.928710938 364.561523438 c 0
 692.928710938 560.107129798 594.513375133 690.659179688 398.888671875 690.659179688 c 0
 203.263968617 690.659179688 104.848632812 560.107129798 104.848632812 364.561523438 c 0
55 364.561523438 m 0
 55 591.206054688 185.120861123 739.12109375 398.888671875 739.12109375 c 0
 612.656482627 739.12109375 742.77734375 591.206054688 742.77734375 364.561523438 c 0
 742.77734375 137.916992188 612.656482627 -9.998046875 398.888671875 -9.998046875 c 0
 185.120861123 -9.998046875 55 137.916992188 55 364.561523438 c 0
EndSplineSet
Fore
SplineSet
177.456132812 364.561523438 m 0
 177.456132812 214.107013176 244.826883783 113.659117188 398.888671875 113.659117188 c 0
 552.950459967 113.659117188 620.321210938 214.107013176 620.321210938 364.561523438 c 0
 620.321210938 515.016033697 552.950459967 615.463929688 398.888671875 615.463929688 c 0
 244.826883783 615.463929688 177.456132812 515.016033697 177.456132812 364.561523438 c 0
42.3775 364.561523438 m 0
 42.3775 591.206054688 177.274472417 739.12109375 398.888671875 739.12109375 c 0
 620.502871333 739.12109375 755.39984375 591.206054688 755.39984375 364.561523438 c 0
 755.39984375 137.916992188 620.502871333 -9.998046875 398.888671875 -9.998046875 c 0
 177.274472417 -9.998046875 42.3775 137.916992188 42.3775 364.561523438 c 0
EndSplineSet
EndChar

StartChar: H
Encoding: 72 72 2
Width: 719
Flags: W
HStem: 0 21G<62.3775 198.358 520.643 656.622> 300.632 114.735<129.99 574.01> 711.008 20G<62.3775 198.358 520.643 656.622>
VStem: 62.3775 135.98<0 300.632 415.368 731.008> 129.99 68.3675<300.632 415.368> 520.643 135.98<0 300.632 415.368 731.008> 520.643 53.3675<300.632 415.368>
LayerCount: 2
Fore
SplineSet
574.01 300.6325 m 1xea
 129.99 300.6325 l 1
 129.99 415.3675 l 1
 574.01 415.3675 l 1
 574.01 300.6325 l 1xea
520.6425 0 m 1xe4
 520.6425 731.0078125 l 1
 656.6225 731.0078125 l 1
 656.6225 0 l 1
 520.6425 0 l 1xe4
62.3775 0 m 1xf0
 62.3775 731.0078125 l 1
 198.3575 731.0078125 l 1
 198.3575 0 l 1
 62.3775 0 l 1xf0
EndSplineSet
EndChar

StartChar: V
Encoding: 86 86 4
Width: 699
Flags: W
HStem: 0 21G<262.04 446.686> 711.008 20G<12.3775 161.626 537.651 686.622>
LayerCount: 2
Fore
SplineSet
269.063 0 m 1
 12.3775 731.0078125 l 1
 154.932 731.0078125 l 1
 353.606445312 137.411085938 l 1
 544.068 731.0078125 l 1
 686.6225 731.0078125 l 1
 439.937 0 l 1
 269.063 0 l 1
EndSplineSet
EndChar

StartChar: D
Encoding: 68 68 5
Width: 727
Flags: W
HStem: 0 121.371<198.358 425.166> 609.63 121.378<198.358 419.691>
VStem: 62.3775 135.98<121.371 609.63> 548.571 136.829<242.451 486.851>
LayerCount: 2
Fore
SplineSet
62.3775 0 m 1
 62.3775 731.0078125 l 1
 312.388671875 731.0078125 l 2
 508.647929688 731.0078125 685.39984375 631.206054688 685.39984375 364.561523438 c 0
 685.39984375 97.9169921874 507.499242781 -2.34496822784e-14 312.388671875 0 c 2
 62.3775 0 l 1
198.3575 609.629802392 m 1
 198.3575 121.371474767 l 1
 287.388671875 121.481664062 l 2
 436.915522479 121.648626129 548.571210938 166.945757451 548.571210938 364.561523438 c 0
 548.571210938 561.969869893 436.915526108 609.369293347 287.388671875 609.526148438 c 2
 198.3575 609.629802392 l 1
EndSplineSet
EndChar

StartChar: U
Encoding: 85 85 6
Width: 719
Flags: W
HStem: -9.99805 123.745<262.593 453.185> 711.008 20G<62.3775 198.358 517.42 653.4>
VStem: 62.3775 135.98<179.432 731.008> 517.42 135.98<179.432 731.008>
LayerCount: 2
Fore
SplineSet
357.888671875 -9.998046875 m 0
 137.198065054 -9.998046875 62.3775 103.068696598 62.3775 276.316523438 c 2
 62.3775 731.0078125 l 1
 198.3575 731.0078125 l 1
 198.3575 304.561523438 l 2
 198.3575 190.138843775 221.230432175 113.746867188 357.888671875 113.746867188 c 0
 494.546911575 113.746867188 517.41984375 190.138843775 517.41984375 304.561523438 c 2
 517.41984375 731.0078125 l 1
 653.39984375 731.0078125 l 1
 653.39984375 276.316523438 l 2
 653.39984375 103.068696598 578.579278696 -9.998046875 357.888671875 -9.998046875 c 0
EndSplineSet
EndChar

StartChar: L
Encoding: 76 76 7
Width: 568
Flags: W
HStem: 0 117.546<198.358 544> 711.008 20G<62.3775 198.358>
VStem: 62.3775 135.98<117.546 731.008>
LayerCount: 2
Fore
SplineSet
198.3575 117.54625 m 1
 544 117.54625 l 1
 544 0 l 1
 62.3775 0 l 1
 62.3775 731.0078125 l 1
 198.3575 731.0078125 l 1
 198.3575 117.54625 l 1
EndSplineSet
EndChar

StartChar: F
Encoding: 70 70 8
Width: 574
Flags: W
HStem: 0 21G<62.3775 198.358> 279.788 119.707<129.99 475.745> 613.462 117.546<198.358 535.745>
VStem: 62.3775 135.98<0 279.788 399.495 613.462> 129.99 68.3675<279.788 399.495>
LayerCount: 2
Fore
SplineSet
475.745 279.7875 m 1xe8
 129.99 279.7875 l 1
 129.99 399.495 l 1
 475.745 399.495 l 1
 475.745 279.7875 l 1xe8
198.3575 613.4615625 m 1xf0
 198.3575 0 l 1
 62.3775 0 l 1
 62.3775 731.0078125 l 1
 535.745 731.0078125 l 1
 535.745 613.4615625 l 1
 198.3575 613.4615625 l 1xf0
EndSplineSet
EndChar

StartChar: C
Encoding: 67 67 9
Width: 667
Flags: W
HStem: -9.99805 123.306<305.737 551.459> 615.815 123.306<305.796 532.604>
VStem: 42.7275 139.251<240.309 484.073>
LayerCount: 2
Fore
SplineSet
42.7275 360.561523438 m 0
 42.7275 589.626439045 174.265715109 739.12109375 405.888671875 739.12109375 c 0
 570.071649963 739.12109375 638.804140625 672.891601562 638.804140625 672.891601562 c 1
 589.33396875 560.131171875 l 1
 589.33396875 560.131171875 532.489082545 615.814929688 419.888671875 615.814929688 c 0
 253.231387638 615.814929688 181.978759765 513.625126148 181.978759765 360.561523438 c 0
 181.978759765 212.295148858 253.767904007 113.308117188 419.011171875 113.308117188 c 0
 539.437755868 113.308117188 603.220554688 159.790953125 603.220554688 159.790953125 c 1
 641.949648438 44.595703125 l 1
 641.949648438 44.595703125 569.842999232 -9.998046875 405.888671875 -9.998046875 c 0
 174.265715109 -9.998046875 42.7275 136.337376545 42.7275 360.561523438 c 0
EndSplineSet
Substitution2: "'ss12' Style Set 12 lookup 13-1" C.ss12
EndChar

StartChar: E
Encoding: 69 69 10
Width: 579
Flags: W
HStem: 0 117.546<198.358 541.622> 305.26 120.358<130.868 481.623> 613.462 117.546<198.358 541.622>
VStem: 130.868 67.49<305.26 425.618>
LayerCount: 2
Fore
SplineSet
481.6225 305.26 m 1
 130.8675 305.26 l 1
 130.8675 425.6175 l 1
 481.6225 425.6175 l 1
 481.6225 305.26 l 1
198.3575 613.4615625 m 1
 198.3575 117.54625 l 1
 541.6225 117.54625 l 1
 541.6225 0 l 1
 62.3775 0 l 1
 62.3775 731.0078125 l 1
 541.6225 731.0078125 l 1
 541.6225 613.4615625 l 1
 198.3575 613.4615625 l 1
EndSplineSet
EndChar

StartChar: N
Encoding: 78 78 11
Width: 719
Flags: W
HStem: 0 21G<62.3775 193.733 504.974 656.622> 711.008 20G<62.3775 214.334 525.267 656.622>
VStem: 62.3775 131.356<0 502.79> 525.267 131.356<239.937 731.008>
LayerCount: 2
Fore
SplineSet
62.3775 0 m 1
 62.3775 731.0078125 l 1
 201.133 731.0078125 l 1
 525.267 239.937109375 l 1
 525.267 731.0078125 l 1
 656.6225 731.0078125 l 1
 656.6225 0 l 1
 517.867 0 l 1
 193.733 502.789882812 l 1
 193.733 0 l 1
 62.3775 0 l 1
EndSplineSet
EndChar

StartChar: M
Encoding: 77 77 12
Width: 830
Flags: W
HStem: 0 21G<62.3775 198.358 631.643 767.622> 711.008 20G<62.3775 218.358 611.643 767.622>
VStem: 62.3775 135.98<0 494.045> 631.643 135.98<0 494.045>
LayerCount: 2
Fore
SplineSet
62.3775 0 m 1
 62.3775 731.0078125 l 1
 218.3575 731.0078125 l 1
 218.3575 731.0078125 415 343.298109375 415 343.298109375 c 1
 415 343.298109375 611.6425 731.0078125 611.6425 731.0078125 c 1
 767.6225 731.0078125 l 1
 767.6225 0 l 1
 631.6425 0 l 1
 631.6425 494.044882812 l 1
 462.3675 169.5 l 1
 367.6325 169.5 l 1
 198.3575 494.044882812 l 1
 198.3575 0 l 1
 62.3775 0 l 1
EndSplineSet
EndChar

StartChar: G
Encoding: 71 71 13
Width: 789
Flags: W
HStem: -9.99805 123.306<298.793 504.855> 298.382 112.796<406.877 550.256 679.046 756.622> 298.382 21.8457<550.256 679.046> 615.815 123.306<306.916 535.789>
VStem: 42.3775 139.164<235.492 486.444> 564.459 130.069<168.192 297.436>
LayerCount: 2
Fore
SplineSet
756.6225 298.3825 m 1xdc
 406.8775 298.3825 l 1
 406.8775 411.17875 l 1
 756.6225 411.17875 l 1
 756.6225 298.3825 l 1xdc
42.3775 364.561523438 m 0
 42.3775 591.206054688 181.058280137 739.12109375 408.888671875 739.12109375 c 0
 581.21302947 739.12109375 652.054140625 667.041601562 652.054140625 667.041601562 c 1
 599.86046875 557.566921875 l 1
 599.86046875 557.566921875 539.095013488 615.814929688 415.888671875 615.814929688 c 0
 252.895913768 615.814929688 181.541162109 515.226512081 181.541162109 364.561523438 c 0
 181.541162109 213.896534791 243.832064797 113.308117188 405.838671875 113.308117188 c 0
 518.190419034 113.308117188 564.458695312 164.514843136 564.458695312 241.3725 c 0
 564.458695312 295.646915358 550.256054688 320.228203125 550.256054688 320.228203125 c 1
 679.045648438 320.228203125 l 1xbc
 679.045648438 320.228203125 694.527421875 296.343200071 694.527421875 222 c 0
 694.527421875 92.9104042083 599.702308937 -9.998046875 399.888671875 -9.998046875 c 0
 172.171758435 -9.998046875 42.3775 137.916992188 42.3775 364.561523438 c 0
EndSplineSet
Substitution2: "'ss12' Style Set 12 lookup 13-1" G.ss12
Substitution2: "'ss08' Style Set 8 lookup 9-1" G.ss08
EndChar

StartChar: A
Encoding: 65 65 14
Width: 719
Flags: W
HStem: 0 21G<12.3775 161.942 556.775 706.622> 150.633 117.722<159.367 558.632> 711.008 20G<275 434.273>
LayerCount: 2
Fore
SplineSet
558.6325 150.6325 m 1
 558.6325 150.6325 159.3675 150.6325 159.3675 150.6325 c 1
 159.3675 150.6325 159.3675 268.35425 159.3675 268.35425 c 1
 159.3675 268.35425 558.6325 268.35425 558.6325 268.35425 c 1
 558.6325 268.35425 558.6325 150.6325 558.6325 150.6325 c 1
426.6125 731.0078125 m 1
 706.6225 0 l 1
 563.98025 0 l 1
 355.393554688 578.955976562 l 1
 155.01975 0 l 1
 12.3775 0 l 1
 282.3875 731.0078125 l 1
 426.6125 731.0078125 l 1
EndSplineSet
EndChar

StartChar: P
Encoding: 80 80 15
Width: 655
Flags: W
HStem: 0 21G<62.3775 198.358> 243.133 113.898<152.235 427.793> 613.103 117.905<198.358 427.195>
VStem: 62.3775 135.98<0 243.133 357.03 613.103> 152.235 46.1225<243.133 357.03> 481.571 136.829<407.708 561.391>
LayerCount: 2
Fore
SplineSet
152.235 243.1325 m 1xec
 152.235 243.1325 152.235 357.0303125 152.235 357.0303125 c 1xec
 320.388671875 357.140664062 l 2
 412.665508731 357.280305482 481.571210937 380.767531778 481.571210937 483.864523438 c 0
 481.571210937 587.986863825 412.665518946 612.867832657 320.388671875 612.999648438 c 2
 198.3575 613.103164062 l 1
 198.3575 0 l 1
 62.3775 0 l 1
 62.3775 731.0078125 l 1xf4
 342.388671875 731.0078125 l 2
 487.611527984 731.0078125 618.39984375 663.69826287 618.39984375 483.864523438 c 0
 618.39984375 307.7903263 486.761552318 243.1325 342.388671875 243.1325 c 2
 342.388671875 243.1325 152.235 243.1325 152.235 243.1325 c 1xec
EndSplineSet
EndChar

StartChar: R
Encoding: 82 82 16
Width: 660
Flags: W
HStem: 0 21G<62.3775 198.358 502.276 649.122> 269.033 116.149<152.235 403.388> 612.541 118.467<198.358 420.656>
VStem: 62.3775 135.98<0 269.033 385.181 612.541> 152.235 46.1225<269.033 385.181> 470.197 139.703<428.483 570.048>
LayerCount: 2
Back
SplineSet
124 383.3515625 m 1xec
 300.888671875 383.461914062 l 2
 383.403259307 383.509014034 462.928710938 404.697396723 462.928710938 501.561523438 c 0
 462.928710938 596.672668425 383.403268044 618.487535435 300.888671875 618.545898438 c 2
 184 618.649414062 l 1
 184 0 l 1
 55 0 l 1
 55 731.0078125 l 1xf4
 308.888671875 731.0078125 l 2
 457.204101562 731.0078125 590.77734375 670.696715458 590.77734375 509.561523438 c 4
 590.77734375 364.195131811 466.688476562 330.276367188 466.688476562 330.276367188 c 1
 466.688476562 330.276367188 540.174524344 311.767586577 573.702148438 195.399414062 c 2
 630 0 l 1
 492 0 l 1
 447 165 l 2
 420.732434887 256.417062766 391.813913829 266 270 266 c 2
 124 266 l 1
 124 383.3515625 l 1xec
EndSplineSet
Fore
SplineSet
152.235 385.1813125 m 1xec
 308.642671875 385.291664062 l 2
 401.132114094 385.351338578 470.196710938 406.147859701 470.196710938 497.377773438 c 0
 470.196710938 590.397549815 404.497201004 612.369729736 316.514171875 612.437398438 c 2
 198.3575 612.540914062 l 1
 198.3575 0 l 1
 62.3775 0 l 1
 62.3775 731.0078125 l 1xf4
 335.388671875 731.0078125 l 2
 479.822437658 731.0078125 609.89984375 670.057235536 609.89984375 507.213523438 c 0
 609.89984375 352.933993731 481.238562744 328.600115967 481.238562744 328.600115967 c 1
 481.238562744 328.600115967 543.824184739 314.344721266 584.355640381 194.88254663 c 2
 649.1225 0 l 1
 508.967 0 l 1
 454.970860351 161.39230957 l 2
 422.538687702 253.865400789 399.490061964 269.0325 288.506 269.0325 c 2
 152.235 269.0325 l 1
 152.235 385.1813125 l 1xec
EndSplineSet
Substitution2: "'ss01' Style Set 1 lookup 2-1" R.ss01
EndChar

StartChar: T
Encoding: 84 84 17
Width: 614
Flags: W
HStem: 0 21G<239.01 374.99> 613.454 117.546<36.5 239.01 374.99 577.5> 613.454 87.5462<239.01 374.99>
VStem: 239.01 135.98<0 701>
LayerCount: 2
Fore
SplineSet
577.5 613.45375 m 1xd0
 36.5 613.45375 l 1
 36.5 731 l 1
 577.5 731 l 1
 577.5 613.45375 l 1xd0
239.01 0 m 1
 239.01 701 l 1
 374.99 701 l 1xb0
 374.99 0 l 1
 239.01 0 l 1
EndSplineSet
EndChar

StartChar: Q
Encoding: 81 81 18
Width: 856
Flags: W
HStem: -9.99805 124.535<297.995 621.806 652.472 738.69> 615.464 123.657<297.122 502.669>
VStem: 42.3775 135.079<242.985 486.356> 620.321 137.079<247.097 490.428>
LayerCount: 2
Fore
SplineSet
42.3775 364.561523438 m 0
 42.3775 591.206054687 179.166376277 739.12109375 403.888671875 739.12109375 c 0
 623.638171482 739.12109375 757.400097656 588.004052317 757.400097656 381.961523437 c 0
 757.400097656 192.906834302 652.471679688 118.05703125 652.471679688 118.05703125 c 1
 723.51875916 119.389647417 811.900048828 134.287207031 811.900048828 134.287207031 c 1
 824.511425781 19.001953125 l 1
 824.511425781 19.001953125 720.15710666 -9.998046875 451 -9.998046875 c 0
 168.108662265 -9.998046875 42.3775 137.916992188 42.3775 364.561523438 c 0
177.456132812 364.561523438 m 0
 177.456132812 214.633209136 249.710337023 114.536617188 403.888671875 114.536617188 c 0
 551.258074665 114.536617188 620.321337891 214.633209136 620.321337891 364.561523438 c 0
 620.321337891 515.016033697 551.258074665 615.463929688 403.888671875 615.463929688 c 0
 249.710337023 615.463929688 177.456132812 515.016033697 177.456132812 364.561523438 c 0
EndSplineSet
Substitution2: "'ss10' Style Set 10 lookup 11-1" Q.ss10
Substitution2: "'ss09' Style Set 9 lookup 10-1" Q.ss09
EndChar

StartChar: B
Encoding: 66 66 19
Width: 640
Flags: W
HStem: 0 117.831<195.108 432.621> 310.289 110.43<152.235 406.331> 613.279 117.729<195.108 404.816>
VStem: 152.235 42.8725<310.289 420.719> 445.821 133.579<455.606 577.349> 468.821 133.579<152.218 273.566>
LayerCount: 2
Fore
SplineSet
485.862359375 375.7355 m 1xf8
 485.862359375 375.7355 602.39984375 342.953984651 602.39984375 205.568789062 c 0xf4
 602.39984375 55.9867219623 477.820209119 -1.55875971501e-14 338.511171875 0 c 2
 62.3775 0 l 1
 62.3775 731.0078125 l 1
 317.511171875 731.0078125 l 2
 455.3034962 731.0078125 579.39984375 674.997191799 579.39984375 525.351273438 c 0
 579.39984375 407.388185455 485.862359375 375.7355 485.862359375 375.7355 c 1xf8
195.1075 117.83072461 m 1
 330.261171875 117.832664062 l 2
 409.501140469 117.833669395 468.821210938 135.582965378 468.821210938 212.768789062 c 0xf4
 468.821210938 292.662814365 404.029020183 310.065056174 317.261171875 310.178398438 c 2
 152.235 310.28875 l 1
 152.235 420.7190625 l 1
 295.261171875 420.829414062 l 2
 381.456313262 420.98506826 445.821210938 437.902611435 445.821210938 515.778773438 c 0xf8
 445.821210938 594.964851742 381.456684159 613.108695135 295.261171875 613.175148438 c 2
 195.1075 613.278664062 l 1
 195.1075 117.83072461 l 1
EndSplineSet
EndChar

StartChar: J
Encoding: 74 74 20
Width: 432
Flags: W
HStem: -10 117.384<22.688 199.124> 613.462 117.546<50.8775 227.142>
VStem: 227.142 135.98<134.692 613.462>
LayerCount: 2
Fore
SplineSet
128.8775 107.384 m 0
 198.061241944 107.384 227.1425 139.703550218 227.1425 215.5 c 2
 227.1425 613.4615625 l 1
 50.8775 613.4615625 l 1
 50.8775 731.0078125 l 1
 363.1225 731.0078125 l 1
 363.1225 201 l 2
 363.1225 74.4647758463 303.879698276 -10 161 -10 c 0
 72.2571995135 -10 10.8775 10.5265 10.8775 10.5265 c 1
 24.78975 123.086 l 1
 24.78975 123.086 68.1651843567 107.384 128.8775 107.384 c 0
EndSplineSet
EndChar

StartChar: K
Encoding: 75 75 21
Width: 669
Flags: W
HStem: 0 21G<62.3775 198.358 445.809 639.061> 322.205 66.5397<120 279.79> 711.008 20G<62.3775 198.358 443.821 629.061>
VStem: 62.3775 135.98<0 314.123 397.753 731.008>
LayerCount: 2
Fore
SplineSet
120 388.744873047 m 1
 279.789648437 388.744873047 l 1
 279.789648437 322.205126953 l 1
 120 322.205126953 l 1
 120 388.744873047 l 1
463.187402344 0 m 1
 190.238525391 314.123046875 l 1
 190.238525391 314.123046875 190.238525391 397.75325 190.2385 397.75325 c 1
 460.011572266 731.0078125 l 1
 629.061376953 731.0078125 l 1
 312.648974609 370.209326172 l 1
 639.061376953 0 l 1
 463.187402344 0 l 1
62.3775 0 m 1
 62.3775 731.0078125 l 1
 198.3575 731.0078125 l 1
 198.3575 0 l 1
 62.3775 0 l 1
EndSplineSet
EndChar

StartChar: S
Encoding: 83 83 22
Width: 591
Flags: W
HStem: -10 119.008<140.074 374.897> 619.113 120.008<229.305 444.902>
VStem: 53.5045 138.042<475.063 585.596> 416.441 132.701<146.192 255.958>
LayerCount: 2
Fore
SplineSet
283.3828125 302.812875 m 0
 107.302498057 349.632222984 53.504453125 415.068852111 53.504453125 522.39175 c 0
 53.504453125 654.227207778 152.726843876 739.12109375 315.733398438 739.12109375 c 0
 457.867068958 739.12109375 526.990117188 688.891601562 526.990117188 688.891601562 c 1
 486.72209375 576.592421875 l 1
 486.72209375 576.592421875 426.44627639 619.112929688 331.89803125 619.112929688 c 0
 235.082995447 619.112929688 191.545976562 588.32526007 191.545976562 530.202 c 0
 191.545976562 480.834378988 218.577690235 454.338438283 320.947070312 427.658804688 c 0
 492.200779108 383.03465059 549.14203125 316.876024893 549.14203125 205.9225 c 0
 549.14203125 72.8525467716 456.763285338 -10 283.8046875 -10 c 0
 135.240910942 -10 41.07140625 42.2294921875 41.07140625 42.2294921875 c 1
 76.47265625 157.528671875 l 1
 76.47265625 157.528671875 160.29509121 109.008164062 267.837039062 109.008164062 c 0
 367.798025271 109.008164062 416.440640625 140.14299181 416.440640625 200.53475 c 0
 416.440640625 252.406231492 394.415891036 273.410426787 283.3828125 302.812875 c 0
EndSplineSet
EndChar

StartChar: W
Encoding: 87 87 23
Width: 949
Flags: W
HStem: 0 21G<182.232 352.865 589.889 761.444> 711.008 20G<12.3775 154.541 788.789 936.622>
LayerCount: 2
Fore
SplineSet
187.01 0 m 1
 12.3775 731.0078125 l 1
 150.17075 731.0078125 l 1
 274.616695312 161.541835938 l 1
 402.8845 671.0078125 l 1
 542.2155 671.0078125 l 1
 672.245195312 161.541835938 l 1
 793.03125 731.0078125 l 1
 936.6225 731.0078125 l 1
 756.5165 0 l 1
 595.159 0 l 1
 472.55 465.301484375 l 1
 347.49 0 l 1
 187.01 0 l 1
EndSplineSet
EndChar

StartChar: X
Encoding: 88 88 24
Width: 689
Flags: W
HStem: 0 21G<17.6407 193.791 495.209 671.359> 711.008 20G<27.6408 196.797 492.203 661.359>
VStem: 317.004 54.992<312.755 401>
LayerCount: 2
Fore
SplineSet
181.61675 0 m 1
 17.64075 0 l 1
 254.00175 371.649 l 1
 27.64075 731.0078125 l 1
 185.49425 731.0078125 l 1
 371.996 401 l 1
 371.996 312.755 l 1
 181.61675 0 l 1
507.38325 0 m 1
 317.004 312.755 l 1
 317.004 401 l 1
 503.50575 731.0078125 l 1
 661.35925 731.0078125 l 1
 434.99825 371.649 l 1
 671.35925 0 l 1
 507.38325 0 l 1
EndSplineSet
EndChar

StartChar: Y
Encoding: 89 89 25
Width: 689
Flags: W
HStem: 0 21G<276.51 412.49> 275 71.245<282.51 406.49> 711.008 20G<27.3775 185.487 503.513 661.622>
VStem: 276.51 135.98<0 346.245>
LayerCount: 2
Fore
SplineSet
282.51 275 m 1
 27.3775 731.0078125 l 1
 174.932 731.0078125 l 1
 344.5 409.712265625 l 1
 514.068 731.0078125 l 1
 661.6225 731.0078125 l 1
 406.49 275 l 1
 282.51 275 l 1
276.51 0 m 1
 276.51 346.245 l 1
 412.49 346.245 l 1
 412.49 0 l 1
 276.51 0 l 1
EndSplineSet
EndChar

StartChar: Z
Encoding: 90 90 26
Width: 594
Flags: W
HStem: 0 117.546<209.602 557.5> 613.454 117.546<46.5 384.397>
LayerCount: 2
Fore
SplineSet
557.5 0 m 1
 36.5 0 l 1
 36.5 90.29625 l 1
 384.3975 613.45375 l 1
 46.5 613.45375 l 1
 46.5 731 l 1
 547.5 731 l 1
 547.5 630.70375 l 1
 209.6025 117.54625 l 1
 557.5 117.54625 l 1
 557.5 0 l 1
EndSplineSet
EndChar

StartChar: ampersand
Encoding: 38 38 27
Width: 754
Flags: W
HStem: -10 112.138<203.967 374.241 531.53 732.506> 629.602 109.39<331.91 490.559>
VStem: 42.3775 124.58<138.883 263.976> 165.428 130.356<438.765 591.304>
LayerCount: 2
Fore
SplineSet
282.135078125 437.933789062 m 1xe0
 310.980796875 356.336367188 l 0
 310.980796875 356.336367188 166.957664062 300.685754698 166.957664062 200.75325 c 0
 166.957664062 137.792844897 211.50163046 102.138023438 282.092881348 102.138023438 c 0
 375.173053954 102.138023438 499.185691679 184.940338156 560.17725 450.237828125 c 1
 680.660585938 416.3046875 l 1
 589.54075329 105.469202174 436.988391415 -10 265.928710938 -10 c 0
 124.410884115 -10 42.3775 70.235289803 42.3775 186.430546875 c 0
 42.3775 370.559300708 282.135078125 437.933789062 282.135078125 437.933789062 c 1xe0
741.573671875 4.5546875 m 1
 741.573671875 4.5546875 712.039097412 -10 632.5 -10 c 0
 491.385185678 -10 394.869897321 65.4737208419 320.6325 156.8775 c 0
 217.535043756 283.836377196 165.42828125 416.396704613 165.42828125 522.26325 c 0
 165.42828125 663.996981231 252.216592729 738.9921875 396.144960938 738.9921875 c 0
 481.441046493 738.9921875 533.548390625 703.824914062 533.548390625 703.824914062 c 1
 502.4845625 601.389132812 l 1
 502.4845625 601.389132812 461.221798632 629.60221875 405.930361328 629.60221875 c 0
 333.00145329 629.60221875 295.784257812 591.424560187 295.784257812 514.26325 c 0xd0
 295.784257812 442.156306089 332.718975633 340.928731719 411.305 244.49 c 0
 466.503653808 176.541329755 534.025623538 105.2009375 638.01171875 105.2009375 c 0
 697.109289492 105.2009375 730.92690625 114.5386875 730.92690625 114.5386875 c 1
 741.573671875 4.5546875 l 1
EndSplineSet
EndChar

StartChar: i
Encoding: 105 105 28
Width: 269
Flags: W
HStem: 0 21G<71.2468 197.753> 481.011 20G<71.2468 197.753> 579.183 155.184<78.5205 190.479>
VStem: 57.5192 153.962<600.352 713.199> 71.2468 126.507<0 501.011>
LayerCount: 2
Fore
SplineSet
71.24675 0 m 1xe8
 71.24675 501.010742188 l 1
 197.75325 501.010742188 l 1
 197.75325 0 l 1
 71.24675 0 l 1xe8
57.51921875 656.775390625 m 0xf0
 57.51921875 703.781944989 87.8626948104 734.3675 134.499023438 734.3675 c 0
 181.136355759 734.3675 211.48078125 703.781944989 211.48078125 656.775390625 c 0
 211.48078125 609.767987016 181.136355759 579.18328125 134.499023438 579.18328125 c 0
 87.8626948104 579.18328125 57.51921875 609.767987016 57.51921875 656.775390625 c 0xf0
EndSplineSet
EndChar

StartChar: o
Encoding: 111 111 29
Width: 589
Flags: W
HStem: -9.99805 111.109<218.968 369.692> 399.637 111.297<217.689 371.035>
VStem: 42.3775 122.794<156.876 344.021> 424.606 122.794<158.306 342.651>
LayerCount: 2
Fore
SplineSet
165.171382812 253.561523438 m 0
 165.171382812 162.144101205 204.61752591 101.111117188 293.888671875 101.111117188 c 0
 384.561023915 101.111117188 424.605960938 162.144101205 424.605960938 253.561523438 c 0
 424.605960938 341.156154501 384.594355325 399.636929688 294 399.636929688 c 0
 204.650857105 399.636929688 165.171382812 341.156154501 165.171382812 253.561523438 c 0
42.3775 253.561523438 m 0
 42.3775 409.296356709 137.544491364 510.93359375 293.888671875 510.93359375 c 0
 451.476090842 510.93359375 547.39984375 409.296356709 547.39984375 253.561523438 c 0
 547.39984375 94.0826581125 451.476090842 -9.998046875 293.888671875 -9.998046875 c 0
 137.544491364 -9.998046875 42.3775 94.0826581125 42.3775 253.561523438 c 0
EndSplineSet
EndChar

StartChar: n
Encoding: 110 110 30
Width: 595
Flags: W
HStem: 0 21G<62.553 189.059 407.595 534.102> 407.422 103.512<239.76 372.191> 481.011 20G<62.553 189.059>
VStem: 62.553 126.506<0 501.011> 407.595 126.507<0 368.894>
LayerCount: 2
Fore
SplineSet
189.0595 284 m 1xd8
 132.3145 293.561523438 l 1
 155.191499249 444 211.267546906 510.93359375 344.6225 510.93359375 c 0
 469.752227296 510.93359375 534.10184375 443.516195023 534.10184375 302.806523438 c 2
 534.10184375 0 l 1
 407.59534375 0 l 1
 407.59534375 285.806523438 l 2
 407.59534375 364.600681391 375.742940471 407.421679688 300.755 407.421679688 c 0
 224.360499553 407.421679688 189.0595 358.010244264 189.0595 284 c 1xd8
62.553 0 m 1
 62.553 501.010742188 l 1
 189.0595 501.010742188 l 1xb8
 189.0595 0 l 1
 62.553 0 l 1
EndSplineSet
EndChar

StartChar: m
Encoding: 109 109 31
Width: 882
Flags: W
HStem: 0 21G<62.553 189.059 378.024 504.531 694.373 820.879> 407.422 103.512<225.822 350.298 541.607 666.905> 481.011 20G<62.553 189.059>
VStem: 62.553 126.506<0 501.011> 378.024 126.506<0 368.032> 694.373 126.507<0 376.917>
LayerCount: 2
Fore
SplineSet
504.53059375 284 m 1xdc
 436.27734375 295.316523438 l 1
 458.824831799 444.540402715 513.167355512 510.93359375 645.52734375 510.93359375 c 0
 760.449951325 510.93359375 820.8791875 447.323924219 820.8791875 314.561523438 c 2
 820.8791875 0 l 1
 694.3726875 0 l 1
 694.3726875 297.561523438 l 2
 694.3726875 368.031779728 667.701053194 407.421679688 604.90984375 407.421679688 c 0
 534.593592314 407.421679688 504.53059375 358.010244262 504.53059375 284 c 1xdc
189.0595 284 m 1
 121.0695 293.561523438 l 1
 143.446790881 444 197.385739899 510.93359375 328.74 510.93359375 c 0
 443.962169125 510.93359375 504.53059375 447.323924219 504.53059375 314.561523438 c 2
 504.53059375 0 l 1
 378.02409375 0 l 1
 378.02409375 297.561523438 l 2
 378.02409375 368.031779728 351.221654531 407.421679688 288.1225 407.421679688 c 0
 219.605789384 407.421679688 189.0595 358.010244264 189.0595 284 c 1
62.553 0 m 1
 62.553 501.010742188 l 1
 189.0595 501.010742188 l 1xbc
 189.0595 0 l 1
 62.553 0 l 1
EndSplineSet
EndChar

StartChar: p
Encoding: 112 112 32
Width: 602
Flags: W
HStem: -9.99805 108.447<238.037 386.432> 403.299 107.634<243.82 388.909> 481.011 20G<62.553 189.059>
VStem: 62.553 126.506<-180 501.011> 118.598 70.4611<66.4394 183.562> 140.088 48.9711<283.562 425.747> 438.845 122.706<156.027 348.253>
LayerCount: 2
Fore
SplineSet
62.553 -180 m 1xb2
 62.553 501.010742188 l 1xb2
 189.0595 501.010742188 l 1
 189.0595 -180 l 1xa6
 62.553 -180 l 1xb2
189.0595 213.561523438 m 1xc6
 189.0595 157.479316194 226.640187899 98.4488671877 314.540039062 98.4488671877 c 0
 401.616445603 98.4488671877 438.845078125 160.547673629 438.845078125 253.561523438 c 0
 438.845078125 343.352235592 401.649787726 403.299179688 314.651367188 403.299179688 c 0
 228.428530022 403.299179688 189.0595 355.36263009 189.0595 283.561523438 c 1
 140.088367188 283.561523438 l 1xc6
 140.088367188 425.746590474 217.853570423 510.93359375 337.6225 510.93359375 c 0
 479.863088621 510.93359375 561.551210938 409.296356709 561.551210938 253.561523438 c 0
 561.551210938 94.0826581125 476.079280901 -9.998046875 335.662539062 -9.998046875 c 0
 200.731276101 -9.998046875 118.598367188 66.4393843717 118.598367188 183.561523438 c 1xca
 189.0595 213.561523438 l 1xc6
EndSplineSet
EndChar

StartChar: j
Encoding: 106 106 33
Width: 269
Flags: W
HStem: -190 108.473<-77.9973 51.5983> 481.011 20G<71.2468 197.753> 579.183 155.184<78.5205 190.479>
VStem: 57.5192 153.962<600.352 713.199> 71.2468 126.507<-59.5745 501.011>
LayerCount: 2
Fore
SplineSet
71.24675 6.0715 m 2xe8
 71.24675 501.010742188 l 1
 197.75325 501.010742188 l 1
 197.75325 501.010742188 197.75325 0.6225 197.75325 0.6225 c 2
 197.75325 -114.112369668 146.601862069 -190 23.23675 -190 c 0
 -43.4421982541 -190 -89.56125 -172.61225 -89.56125 -172.61225 c 1
 -75.73675 -69.263 l 1
 -75.73675 -69.263 -47.840792187 -81.52725 -8.795 -81.52725 c 0
 47.5586129516 -81.52725 71.24675 -55.1420843373 71.24675 6.0715 c 2xe8
57.51921875 656.775390625 m 0xf0
 57.51921875 703.781944989 87.8626948104 734.3675 134.499023438 734.3675 c 0
 181.136355759 734.3675 211.48078125 703.781944989 211.48078125 656.775390625 c 0
 211.48078125 609.767987016 181.136355759 579.18328125 134.499023438 579.18328125 c 0
 87.8626948104 579.18328125 57.51921875 609.767987016 57.51921875 656.775390625 c 0xf0
EndSplineSet
EndChar

StartChar: k
Encoding: 107 107 34
Width: 555
Flags: W
HStem: 0 21G<62.553 189.059 351.065 525.5> 212.053 87.8938<94.0531 211.195> 481.011 20G<346.84 515.5> 731.002 20G<62.553 189.059>
VStem: 62.553 126.506<0 212.053 299.947 751.002> 94.0531 95.0064<212.053 231.553 280.447 299.947> 185.845 3.21482<231.553 280.447>
LayerCount: 2
Fore
SplineSet
211.194677734 299.946923828 m 1xf4
 211.194677734 212.053076172 l 1
 94.0530761719 212.053076172 l 1
 94.0530761719 299.946923828 l 1
 211.194677734 299.946923828 l 1xf4
366.684326172 0 m 1
 185.844677734 231.553076172 l 1
 185.844677734 280.446923828 l 1xf2
 362.894677734 501.010742188 l 1
 515.5 501.010742188 l 1
 306 266.572753906 l 1
 525.5 0 l 1
 366.684326172 0 l 1
62.553 0 m 1xf8
 62.553 751.001953125 l 1xf8
 189.0595 751.001953125 l 1
 189.0595 0 l 1xf2
 62.553 0 l 1xf8
EndSplineSet
EndChar

StartChar: l
Encoding: 108 108 35
Width: 371
Flags: W
HStem: -10.0088 110.985<211.571 323.974> 731.002 20G<68.1755 194.682>
VStem: 68.1755 126.506<119.484 751.002>
LayerCount: 2
Fore
SplineSet
194.682 190.236210938 m 2
 194.682 127.861753106 216.089197485 100.976210938 267.0165 100.976210938 c 0
 299.216479202 100.976210938 322.2215 111.977210938 322.2215 111.977210938 c 1
 335.695 5.6412109375 l 1
 335.695 5.6412109375 295.872864122 -10.0087890625 238.298 -10.0087890625 c 0
 118.038991379 -10.0087890625 68.1755 57.2772903213 68.1755 160.991210938 c 2
 68.1755 751.001953125 l 1
 194.682 751.001953125 l 1
 194.682 190.236210938 l 2
EndSplineSet
EndChar

StartChar: h
Encoding: 104 104 36
Width: 595
Flags: W
HStem: 0 21G<62.553 189.059 407.595 534.102> 407.422 103.512<239.723 372.191> 731.002 20G<62.553 189.059>
VStem: 62.553 126.506<0 751.002> 407.595 126.507<0 368.894>
LayerCount: 2
Fore
SplineSet
62.553 0 m 1
 62.553 751.001953125 l 1
 189.0595 751.001953125 l 1
 189.0595 0 l 1
 62.553 0 l 1
189.0595 284 m 9
 132.3145 293.561523438 l 17
 155.191499249 444 211.192866055 510.93359375 344.6225 510.93359375 c 0
 469.752227296 510.93359375 534.10184375 443.516195023 534.10184375 302.806523438 c 2
 534.10184375 0 l 1
 407.59534375 0 l 1
 407.59534375 285.806523438 l 2
 407.59534375 364.600681391 375.742940471 407.421679688 300.755 407.421679688 c 0
 224.266649286 407.421679688 189.0595 358.010244264 189.0595 284 c 9
EndSplineSet
EndChar

StartChar: q
Encoding: 113 113 37
Width: 602
Flags: W
HStem: -9.99805 108.447<222.261 374.907> 403.124 107.81<219.716 369.233> 481.011 20G<417.94 544.447>
VStem: 45.4488 122.706<156.027 348.198> 417.94 126.507<-180 501.011> 417.94 64.4264<66.4394 183.562 283.562 425.747>
LayerCount: 2
Fore
SplineSet
544.447 -180 m 1xb8
 417.9405 -180 l 1
 417.9405 501.010742188 l 1
 544.447 501.010742188 l 1
 544.447 -180 l 1xb8
417.9405 205.561523438 m 1
 482.366882812 183.561523438 l 1xd4
 482.366882812 66.4393843715 402.84943639 -9.998046875 272.214960938 -9.998046875 c 0
 131.252748225 -9.998046875 45.4487890625 94.0826581123 45.4487890625 253.561523438 c 0
 45.4487890625 409.296356709 127.457019181 510.93359375 270.255 510.93359375 c 0
 396.921430994 510.93359375 477.717882812 425.746590474 477.717882812 283.561523438 c 1
 417.9405 275.561523438 l 1
 417.9405 352.054619032 382.273181979 403.123679688 298.848632812 403.123679688 c 0xd8
 207.296924275 403.123679688 168.154921875 343.246996399 168.154921875 253.561523438 c 0
 168.154921875 160.547673629 207.330266397 98.4488671877 298.959960938 98.4488671877 c 0
 382.306524102 98.4488671877 417.9405 153.376869015 417.9405 205.561523438 c 1
EndSplineSet
EndChar

StartChar: g
Encoding: 103 103 38
Width: 602
Flags: W
HStem: -190 105.924<152.824 371.458> 20.002 101.698<219.957 372.729> 408.035 102.899<217.942 372.502> 481.011 20G<417.94 544.447>
VStem: 45.4488 122.706<173.256 354.107> 417.94 126.507<-38.79 38.298 223.562 501.011> 417.94 64.7774<100.388 223.562 293.562 429.493>
LayerCount: 2
Fore
SplineSet
417.9405 38.298 m 2xdc
 417.9405 501.010742188 l 1
 544.447 501.010742188 l 1
 544.447 31 l 2
 544.447 -102.018957346 471.333224139 -190 295 -190 c 0
 165.173253844 -190 75.3775 -145.3 75.3775 -145.3 c 1
 102.087597656 -39.9885253906 l 1
 102.087597656 -39.9885253906 174.509198543 -84.0761230469 275.877246094 -84.0761230469 c 0
 375.89726846 -84.0761230469 417.9405 -47.2164474305 417.9405 38.298 c 2xdc
417.9405 235.561523438 m 1
 482.717882812 223.561523438 l 1xea
 482.717882812 100.388423477 408.542719549 20.001953125 272.214960938 20.001953125 c 0
 124.41102117 20.001953125 45.4487890625 115.39477208 45.4487890625 261.561523438 c 0
 45.4487890625 412.455587994 120.612161309 510.93359375 270.255 510.93359375 c 0
 401.523128354 510.93359375 477.717882812 429.493180948 477.717882812 293.561523438 c 1
 417.9405 285.561523438 l 1
 417.9405 359.003132199 378.567000523 408.034929688 294.848632812 408.034929688 c 0xec
 206.098947659 408.034929688 168.154921875 350.175492242 168.154921875 263.511523438 c 0
 168.154921875 178.473665055 207.330266397 121.699867188 298.959960938 121.699867188 c 0
 382.306524102 121.699867188 417.9405 180.088796016 417.9405 235.561523438 c 1
EndSplineSet
Substitution2: "'ss14' Style Set 14 lookup 19-1" g.ss14
EndChar

StartChar: f
Encoding: 102 102 39
Width: 398
Flags: W
HStem: 0 21G<111.247 237.753> 400.225 100.785<21.3775 374.623> 658.325 102.686<262.783 396.633>
VStem: 111.247 126.507<0 632.128>
LayerCount: 2
Fore
SplineSet
21.3775 501.010742188 m 1
 374.6225 501.010742188 l 1
 374.6225 400.22525 l 1
 21.3775 400.22525 l 1
 21.3775 501.010742188 l 1
237.75325 559.643242188 m 2
 237.75325 0 l 1
 111.24675 0 l 1
 111.24675 572.643242188 l 2
 111.24675 686.020668089 164.483193901 761.010742188 292.8775 761.010742188 c 0
 361.002947266 761.010742188 408.1225 745.010742188 408.1225 745.010742188 c 1
 394.649 646.973742188 l 1
 394.649 646.973742188 366.143436621 658.324742188 326.245 658.324742188 c 0
 263.942491785 658.324742188 237.75325 628.600953473 237.75325 559.643242188 c 2
EndSplineSet
EndChar

StartChar: c
Encoding: 99 99 40
Width: 492
Flags: W
HStem: -9.99805 105.148<232.182 417.519> 403.774 107.16<226.662 408.822>
VStem: 42.3775 125.28<161.119 342.491>
LayerCount: 2
Fore
SplineSet
42.3775 253.561523438 m 0
 42.3775 409.296356709 129.971859002 510.93359375 293.050921875 510.93359375 c 0
 410.392477137 510.93359375 458.630615234 468.90102539 458.630615234 468.90102539 c 1
 431.55649414 367.738671875 l 1
 431.55649414 367.738671875 391.591056416 403.773679688 310.55825 403.773679688 c 0
 211.349731896 403.773679688 167.657031249 343.636771184 167.657031249 253.561523438 c 0
 167.657031249 158.569416676 213.755296862 95.1498671877 318.593921875 95.1498671877 c 0
 392.426995015 95.1498671877 431.531982422 125.157177734 431.531982422 125.157177734 c 1
 462.585398438 28.156953125 l 1
 462.585398438 28.156953125 402.977374118 -9.998046875 299.436671875 -9.998046875 c 0
 132.405526223 -9.998046875 42.3775 94.082658113 42.3775 253.561523438 c 0
EndSplineSet
Substitution2: "'ss12' Style Set 12 lookup 13-1" c.ss12
EndChar

StartChar: t
Encoding: 116 116 41
Width: 412
Flags: W
HStem: -10 105.424<255.515 367.236> 400.788 100.223<21.3775 374.623>
VStem: 111.247 126.507<114.238 652.662>
LayerCount: 2
Fore
SplineSet
21.3775 501.010742188 m 1
 374.6225 501.010742188 l 1
 374.6225 400.7875 l 1
 21.3775 400.7875 l 1
 21.3775 501.010742188 l 1
237.75325 179.8675 m 2
 237.75325 120.858995545 259.30271646 95.42375 310.5675 95.42375 c 0
 342.570853534 95.42375 365.43575 106.42375 365.43575 106.42375 c 1
 377.8725 4.7 l 1
 377.8725 4.7 338.673668645 -10 282 -10 c 0
 143.03259076 -10 111.24675 60.493154412 111.24675 164.8675 c 2
 111.24675 652.661742188 l 1
 237.75325 668.621992188 l 1
 237.75325 179.8675 l 2
EndSplineSet
Substitution2: "'ss11' Style Set 11 lookup 12-1" t.ss11
EndChar

StartChar: r
Encoding: 114 114 42
Width: 420
Flags: W
HStem: 0 21G<62.553 189.059> 402.549 108.384<228.884 392.325> 481.011 20G<62.553 189.059>
VStem: 62.553 126.506<0 501.011>
LayerCount: 2
Fore
SplineSet
62.553 0 m 1xb0
 62.553 501.010742188 l 1
 189.0595 501.010742188 l 1
 189.0595 0 l 1
 62.553 0 l 1xb0
316.63075 510.93359375 m 0xd0
 386.572709629 510.93359375 407.445 484.93359375 407.445 484.93359375 c 1
 407.445 484.93359375 382.58575 381.19859375 382.58575 381.19859375 c 1
 382.58575 381.19859375 350.251613847 402.549179688 300.18375 402.549179688 c 0
 230.621725571 402.549179688 189.0595 362.418465218 189.0595 284 c 1
 132.49 293.561523438 l 1
 152.234606229 444 199.450924061 510.93359375 316.63075 510.93359375 c 0xd0
EndSplineSet
EndChar

StartChar: e
Encoding: 101 101 43
Width: 551
Flags: W
HStem: -9.99805 104.461<231.252 451.028> 207.369 87.389<129.346 394.19> 408.748 102.185<214.606 350.715>
VStem: 129.346 37.4241<207.369 294.758>
LayerCount: 2
Fore
SplineSet
42.3775 253.561523438 m 0
 42.3775 409.296356709 135.274206733 510.93359375 287.888671875 510.93359375 c 0
 463.914684961 510.93359375 519.088320312 373.938721931 519.088320312 275.8516875 c 0
 519.088320312 233.573453852 514.6225 207.36925 514.6225 207.36925 c 1
 129.34625 207.36925 l 1
 129.34625 294.75825 l 1
 394.1905 294.75825 l 1
 394.1905 294.75825 393.935391142 300.939923678 392.218546838 311.444999843 c 0
 385.833640044 358.199685415 359.289750689 408.748179688 281.73875 408.748179688 c 0
 201.20273669 408.748179688 166.770382812 347.360388598 166.770382812 255.411523438 c 0
 166.770382812 150.238298342 212.83042523 94.4631171877 327.76025 94.4631171877 c 0
 415.432358191 94.4631171877 465.393054688 122.594953125 465.393054688 122.594953125 c 1
 485.949648438 18.245703125 l 1
 485.949648438 18.245703125 426.739044495 -9.998046875 323.888671875 -9.998046875 c 0
 129.406664907 -9.998046875 42.3775 94.082658113 42.3775 253.561523438 c 0
EndSplineSet
Substitution2: "'ss03' Style Set 3 lookup 4-1" e.ss03
EndChar

StartChar: d
Encoding: 100 100 44
Width: 602
Flags: W
HStem: -9.99805 107.722<220.02 361.741> 0 21G<417.94 544.447> 402.399 108.535<222.508 367.304> 731.002 20G<417.94 544.447>
VStem: 45.4488 122.706<152.71 344.88> 417.94 126.507<217.374 751.002> 417.94 48.9711<75.1885 217.374 317.374 434.496>
LayerCount: 2
Fore
SplineSet
544.447 0 m 1x7c
 417.9405 0 l 1x7a
 417.9405 751.001953125 l 1
 544.447 751.001953125 l 1
 544.447 0 l 1x7c
417.9405 295.374023438 m 1xbc
 417.9405 347.516225836 381.333661297 402.398929688 295.709960938 402.398929688 c 0
 207.234912324 402.398929688 168.154921875 340.335603972 168.154921875 247.374023438 c 0
 168.154921875 157.636186534 207.200562609 97.7241171877 295.598632812 97.7241171877 c 0
 381.299230694 97.7241171877 417.9405 148.828581397 417.9405 225.374023438 c 1xbc
 466.911632812 217.374023438 l 1xba
 466.911632812 75.1884765624 387.278255084 -9.998046875 264.6325 -9.998046875 c 0
 125.406304823 -9.998046875 45.4487890625 91.6396484372 45.4487890625 247.374023438 c 0
 45.4487890625 406.852539062 129.125057246 510.93359375 266.592460938 510.93359375 c 0
 390.182143963 510.93359375 465.411632812 434.49609375 465.411632812 317.374023438 c 1
 417.9405 295.374023438 l 1xbc
EndSplineSet
Substitution2: "'ss05' Style Set 5 lookup 6-1" d.ss05
EndChar

StartChar: b
Encoding: 98 98 45
Width: 602
Flags: W
HStem: -9.99805 107.722<237.57 387.525> 0 21G<62.553 189.059> 402.399 108.535<241.972 385.04> 731.002 20G<62.553 189.059>
VStem: 62.553 126.506<197.374 751.002> 140.966 48.0936<55.1885 197.374 297.374 424.496> 438.845 122.706<152.71 344.88>
LayerCount: 2
Fore
SplineSet
62.553 0 m 1x7a
 62.553 751.001953125 l 1x7a
 189.0595 751.001953125 l 1
 189.0595 0 l 1x76
 62.553 0 l 1x7a
189.0595 295.374023438 m 1xb6
 135.965867188 297.374023438 l 1
 135.965867188 424.49609375 213.654835537 510.93359375 341.285039062 510.93359375 c 0
 478.206970909 510.93359375 561.551210938 406.852539062 561.551210938 247.374023438 c 0
 561.551210938 91.6396484372 481.913804367 -9.998046875 343.245 -9.998046875 c 0
 220.599244916 -9.998046875 140.965867188 55.1884765624 140.965867188 197.374023438 c 1
 189.0595 225.374023438 l 1
 189.0595 148.828581397 225.700769306 97.7241171877 311.401367188 97.7241171877 c 0
 400.676937391 97.7241171877 438.845078125 157.636186534 438.845078125 247.374023438 c 0
 438.845078125 340.335603972 400.642587676 402.398929688 311.290039062 402.398929688 c 0
 225.666338703 402.398929688 189.0595 347.516225836 189.0595 295.374023438 c 1xb6
EndSplineSet
EndChar

StartChar: a
Encoding: 97 97 46
Width: 566
Flags: W
HStem: -9.99805 98.2489<176.541 312.823 425.811 541.174> 227.44 81.0893<198.065 363.326> 405.687 105.324<144.746 318.391>
VStem: 34.1275 128.655<103.153 196.16> 347.477 124.257<101.479 227.44 290.766 376.559> 347.477 44.8436<55.9744 157.062> 347.477 15.8488<227.44 308.53>
LayerCount: 2
Back
SplineSet
357.928710938 177.561523438 m 5x7c
 407.77734375 180.561523438 l 5x7a
 407.77734375 65.2546726394 343.443566636 -9.998046875 207.888671875 -9.998046875 c 4
 103.525845263 -9.998046875 40 50 40 141 c 4
 40 286.71747631 179.159368499 309.798279039 373.928710938 309.93359375 c 5
 373.77734375 224.284179688 l 5x79
 214.9215174 224.170106541 164.848632812 210.544945242 164.848632812 148.561523438 c 4
 164.848632812 111.324445486 189.419144912 86.4638671875 246.888671875 86.4638671875 c 4
 313.711369303 86.4638671875 357.928710938 123.027306191 357.928710938 177.561523438 c 5x7c
357.928710938 299.010742188 m 6xbc
 357.928710938 377.97408765 325.670027448 412.010742188 248.928710938 412.010742188 c 4
 170.769677734 412.010742188 114.928710938 368.010742188 114.928710938 368.010742188 c 5
 79.9287109375 467.010742188 l 5
 79.9287109375 467.010742188 159.657226562 511.010742188 274.928710938 511.010742188 c 4
 417.721987032 511.010742188 476.928710938 427.01055301 476.928710938 300.010742188 c 6
 476.928710938 118 l 6
 476.928710938 93.251950046 485.36431245 84 507.928710938 84 c 4
 525.694039812 84 536.928710938 91 536.928710938 91 c 5
 545.928710938 13 l 5
 545.928710938 13 520.8653569 -9.998046875 467.928710938 -9.998046875 c 4
 394.082557091 -9.998046875 357.928710938 33 357.928710938 125 c 6
 357.928710938 299.010742188 l 6xbc
EndSplineSet
Fore
SplineSet
347.477460938 177.561523438 m 1xf8
 392.32109375 157.061523438 l 1xf4
 392.32109375 55.9744307412 333.92742451 -9.998046875 210.888671875 -9.998046875 c 0
 101.010528662 -9.998046875 34.1275 49.7210650748 34.1275 139.85925 c 0
 34.1275 285.411439807 178.260377951 308.3944899 363.477460938 308.52959375 c 1
 363.326220703 227.440332031 l 1xf2
 226.975749133 227.324905819 162.782632812 213.652649623 162.782632812 150.819499756 c 0
 162.782632812 113.530508168 185.833885941 88.2508671877 239.749921875 88.2508671877 c 0
 304.579192544 88.2508671877 347.477460938 124.097066383 347.477460938 177.561523438 c 1xf8
347.477460938 290.765742188 m 2xf8
 347.477460938 371.071550506 323.044193853 405.686865235 242.955957031 405.686865235 c 0
 167.483640594 405.686865235 113.562207031 367.736865235 113.562207031 367.736865235 c 1
 79.6787109375 467.010742188 l 1
 79.6787109375 467.010742188 153.42656573 511.010742188 260.051210938 511.010742188 c 0
 409.689904791 511.010742188 471.734960938 427.709227569 471.734960938 301.765742188 c 2
 471.734960938 132.8225 l 2
 471.734960938 101.479094733 480.930242789 89.7615 505.526710938 89.7615 c 0
 526.370036189 89.7615 539.551210938 97.49925 539.551210938 97.49925 c 1
 548.551210938 11.56025 l 1
 548.551210938 11.56025 521.582606825 -9.998046875 465.663466553 -9.998046875 c 0
 385.958670449 -9.998046875 347.477460938 32.7205086518 347.477460938 124.1225 c 2
 347.477460938 290.765742188 l 2xf8
EndSplineSet
Substitution2: "'ss15' Style Set 15 lookup 20-1" a.ss15
Substitution2: "'ss02' Style Set 2 lookup 3-1" a.ss02
EndChar

StartChar: plus
Encoding: 43 43 47
Width: 450
Flags: W
HStem: 307.207 101.586<30 420>
VStem: 174.207 101.586<163 553>
LayerCount: 2
Fore
SplineSet
275.793 553 m 1
 275.793 163 l 1
 174.207 163 l 1
 174.207 553 l 1
 275.793 553 l 1
420 307.207 m 1
 30 307.207 l 1
 30 408.793 l 1
 420 408.793 l 1
 420 307.207 l 1
EndSplineSet
EndChar

StartChar: s
Encoding: 115 115 48
Width: 476
Flags: W
HStem: -9.99805 99.792<96.7961 297.862> 410.143 100.791<187.227 379.034>
VStem: 47.6316 124.615<321.214 394.432> 311.236 123.076<105.069 178.131>
LayerCount: 2
Fore
SplineSet
211.86861792 203.579550049 m 0
 82.5813848022 232.057890534 47.6316015625 279.760597706 47.6316015625 355.1775 c 0
 47.6316015625 452.202902245 126.878338339 510.93359375 257.067578125 510.93359375 c 0
 368.03891828 510.93359375 422.007460938 473.225585938 422.007460938 473.225585938 c 1
 422.007460938 473.225585938 393.644921875 382.207335938 393.644921875 382.207335938 c 1
 393.644921875 382.207335938 342.647547308 410.142796875 267.478914062 410.142796875 c 0
 201.788998684 410.142796875 172.24671875 389.915179834 172.24671875 357.296054688 c 0
 172.24671875 329.555520632 191.50103559 313.617422092 256.993548095 298.670793945 c 0
 389.294546344 267.730698288 434.311953125 222.37179406 434.311953125 143.22484375 c 0
 434.311953125 48.7953277342 362.432669216 -9.998046875 227.856445312 -9.998046875 c 0
 112.499079396 -9.998046875 39.3775 26.5625 39.3775 26.5625 c 1
 65.314453125 124.973828125 l 1
 65.314453125 124.973828125 131.768841723 89.7939453123 213.243164062 89.7939453123 c 0
 279.62962965 89.7939453123 311.235507812 107.437186899 311.235507812 141.659414062 c 0
 311.235507812 170.041640684 294.539283596 185.642746061 211.86861792 203.579550049 c 0
EndSplineSet
EndChar

StartChar: y
Encoding: 121 121 49
Width: 539
Flags: W
HStem: 481.011 20G<12.3775 153.642 386.11 526.622>
LayerCount: 2
Fore
SplineSet
206.89675 36.08175 m 1
 12.3775 501.010742188 l 1
 145.634 501.010742188 l 1
 275.606445312 176.419335938 l 1
 393.366 501.010742188 l 1
 526.6225 501.010742188 l 1
 526.6225 501.010742188 259.57775 -179.994140625 259.57775 -179.994140625 c 1
 259.57775 -179.994140625 119.27225 -179.994140625 119.27225 -179.994140625 c 1
 206.89675 36.08175 l 1
EndSplineSet
Substitution2: "'ss04' Style Set 4 lookup 5-1" y.ss04
EndChar

StartChar: u
Encoding: 117 117 50
Width: 595
Flags: W
HStem: -9.92285 103.512<224.464 356.932> 0 21G<407.595 534.102> 481.011 20G<62.553 189.059 407.595 534.102>
VStem: 62.553 126.506<132.116 501.011> 407.595 126.507<207.449 501.011>
LayerCount: 2
Fore
SplineSet
407.59534375 217.010742188 m 9xb8
 464.34034375 207.44921875 l 17
 441.463344501 57.0107421877 385.461977695 -9.9228515625 252.03234375 -9.9228515625 c 0
 126.902616454 -9.9228515625 62.553 57.4945471642 62.553 198.20421875 c 2
 62.553 501.010742188 l 1
 189.0595 501.010742188 l 1
 189.0595 215.20421875 l 2
 189.0595 136.410060796 220.911903279 93.5890625 295.89984375 93.5890625 c 0
 372.388194464 93.5890625 407.59534375 143.000497924 407.59534375 217.010742188 c 9xb8
534.10184375 501.010742188 m 1
 534.10184375 0 l 1
 407.59534375 0 l 1x78
 407.59534375 501.010742188 l 1
 534.10184375 501.010742188 l 1
EndSplineSet
Substitution2: "'ss05' Style Set 5 lookup 6-1" u.ss05
EndChar

StartChar: backslash
Encoding: 92 92 51
Width: 434
Flags: W
LayerCount: 2
Fore
SplineSet
297.64575 -171.469726562 m 1
 22.64575 761.403320312 l 1
 136.35425 761.403320312 l 1
 411.35425 -171.469726562 l 1
 297.64575 -171.469726562 l 1
EndSplineSet
EndChar

StartChar: equal
Encoding: 61 61 52
Width: 450
Flags: W
HStem: 226.856 92.5513<30 420> 396.593 92.5513<30 420>
LayerCount: 2
Back
SplineSet
420 285 m 5xea
 30 285 l 5
 30 431 l 5
 420 431 l 5
 420 285 l 5xea
EndSplineSet
Fore
SplineSet
420 226.856 m 1
 30 226.856 l 1
 30 319.40725 l 1
 420 319.40725 l 1
 420 226.856 l 1
420 396.59275 m 1
 30 396.59275 l 1
 30 489.144 l 1
 420 489.144 l 1
 420 396.59275 l 1
EndSplineSet
EndChar

StartChar: v
Encoding: 118 118 53
Width: 539
Flags: W
HStem: 0 21G<190.6 358.001> 481.011 20G<12.3775 152.426 387.01 526.622>
LayerCount: 2
Fore
SplineSet
198.01 0 m 1
 12.3775 501.010742188 l 1
 145.634 501.010742188 l 1
 273.606445312 124.174335938 l 1
 393.366 501.010742188 l 1
 526.6225 501.010742188 l 1
 350.99 0 l 1
 198.01 0 l 1
EndSplineSet
EndChar

StartChar: w
Encoding: 119 119 54
Width: 735
Flags: W
HStem: 0 21G<139.869 290.294 443.771 599.26> 481.011 20G<12.3775 141.736 593.264 722.622>
LayerCount: 2
Fore
SplineSet
139.86925 0 m 1
 139.86925 0 12.3775 501.010742188 12.3775 501.010742188 c 1
 137.1605 501.010742188 l 1
 219.228945312 142.296835938 l 1
 298.659 451.010742188 l 1
 436.25325 451.010742188 l 1
 515.771054688 142.296835938 l 1
 597.8395 501.010742188 l 1
 722.6225 501.010742188 l 1
 594.13075 0 l 1
 449.09775 0 l 1
 367.5 306.361796875 l 1
 284.90225 0 l 1
 284.90225 0 139.86925 0 139.86925 0 c 1
EndSplineSet
EndChar

StartChar: x
Encoding: 120 120 55
Width: 528
Flags: W
HStem: 0 21G<12.3775 172.442 355.953 515.622> 481.011 20G<22.3775 174.845 353.155 505.623>
VStem: 239.43 49.139<202.579 290.649>
LayerCount: 2
Fore
SplineSet
159.72175 0 m 1
 12.3775 0 l 1
 187.8345 255.58775 l 1
 22.3775 501.010742188 l 1
 162.89725 501.010742188 l 1
 288.5695 290.649 l 1
 288.5695 202.5795 l 1
 159.72175 0 l 1
368.717 0 m 1
 239.4305 202.5795 l 1
 239.4305 290.649 l 1
 365.10275 501.010742188 l 1
 505.6225 501.010742188 l 1
 340.1655 255.58775 l 1
 515.6225 0 l 1
 368.717 0 l 1
EndSplineSet
EndChar

StartChar: z
Encoding: 122 122 56
Width: 478
Flags: W
HStem: 0 107.774<194.606 441.5> 393.237 107.774<46.5 276.894>
LayerCount: 2
Fore
SplineSet
441.5 0 m 1
 36.5 0 l 1
 36.5 91.6125 l 1
 276.8945 393.236992188 l 1
 46.5 393.236992188 l 1
 46.5 501.010742188 l 1
 431.5 501.010742188 l 1
 431.5 409.836992188 l 1
 194.6055 107.77375 l 1
 441.5 107.77375 l 1
 441.5 0 l 1
EndSplineSet
EndChar

StartChar: period
Encoding: 46 46 57
Width: 245
Flags: W
HStem: -10 155.184<66.6339 178.592>
VStem: 45.6325 153.962<11.1684 124.015>
LayerCount: 2
Fore
SplineSet
45.6325 67.592109375 m 0
 45.6325 114.598319903 75.9763504647 145.18421875 122.612304688 145.18421875 c 0
 169.249270358 145.18421875 199.5940625 114.598319903 199.5940625 67.592109375 c 0
 199.5940625 20.5850860413 169.249270358 -10 122.612304688 -10 c 0
 75.9763504649 -10 45.6325 20.5850860413 45.6325 67.592109375 c 0
EndSplineSet
EndChar

StartChar: two
Encoding: 50 50 58
Width: 608
Flags: W
HStem: 0 116.072<191.706 572.049> 619.229 119.763<175.095 385.098>
VStem: 430.582 132.803<450.575 577.611>
LayerCount: 2
Fore
SplineSet
430.58153125 511.719009766 m 0
 430.58153125 575.213093306 393.372648659 619.228882812 284.205625 619.228882812 c 0
 183.884501128 619.228882812 112.046335938 565.121882812 112.046335938 565.121882812 c 1
 68.312015625 676.147875 l 1
 68.312015625 676.147875 157.606305578 738.9921875 287.56890625 738.9921875 c 0
 459.557755985 738.9921875 563.38421875 662.768064771 563.38421875 512.33759375 c 0
 563.38421875 381.259509729 479.270995842 325.588064581 349.374023438 259.3579375 c 0
 202.085144454 184.147627687 192.902981223 140.926023124 191.705726562 116.07175 c 1
 572.048828125 116.07175 l 1
 572.048828125 0 l 1
 48.8775 0 l 1
 48.8775 54 l 2
 48.8775 206.087994659 144.804108431 292.195452877 314.821289062 379.791453125 c 0
 390.509625379 418.390214523 430.58153125 457.697231946 430.58153125 511.719009766 c 0
EndSplineSet
Substitution2: "'frac' Diagonal Fractions in Latin lookup 26 subtable" two.numr
Substitution2: "'onum' Oldstyle Figures lookup 18-1" two.osf
Substitution2: "'tnum' Tabular Numbers lookup 17-1" two.tf
Substitution2: "'numr' Numerators lookup 0 subtable" two.numr
Substitution2: "'dnom' Denominators lookup 0 subtable" two.dnom
Substitution2: "'sups' Superscript lookup 0 subtable" two.superior
Substitution2: "'sinf' Scientific Inferiors lookup 0 subtable" two.inferior
Substitution2: "'sups' Superscript lookup 0 subtable" two.superior
EndChar

StartChar: three
Encoding: 51 51 59
Width: 582
Flags: W
HStem: -9.99805 114.484<117.8 352.525> 318.033 109.416<164.139 356.61> 620.491 118.501<125.091 349.881>
VStem: 389.59 135.603<459.293 582.293> 402.796 138.237<149.519 276.335>
LayerCount: 2
Fore
SplineSet
259.188671875 427.448945312 m 2xe8
 355.754574868 427.448945312 389.590125 459.209498405 389.590125 522.39934375 c 0
 389.590125 578.160492622 356.142057705 620.491132812 248.08284668 620.491132812 c 0
 138.486599986 620.491132812 72.1701796875 574.134132812 72.1701796875 574.134132812 c 1
 36.558359375 685.496875 l 1
 36.558359375 685.496875 116.753003561 738.9921875 255.76325 738.9921875 c 0
 422.837938175 738.9921875 525.1928125 668.069403618 525.1928125 533.482414062 c 0xf0
 525.1928125 411.056650893 414.180585938 375.434015625 414.180585938 375.434015625 c 1
 414.180585938 375.434015625 541.033632812 341.75978265 541.033632812 204.8222771 c 0
 541.033632812 51.8440139879 426.090496702 -9.998046875 253.5 -9.998046875 c 0
 104.790225753 -9.998046875 16.328671875 40.9091796875 16.328671875 40.9091796875 c 1
 53.2356640625 156.195695312 l 1
 53.2356640625 156.195695312 127.028648726 104.485703125 243.6775 104.485703125 c 0
 353.471670794 104.485703125 402.796148438 142.645873651 402.796148438 211.446 c 0
 402.796148438 283.309191226 353.416545582 317.511181417 259.188671875 317.769804688 c 2
 164 318.0325 l 1
 164.138671875 427.448945312 l 1
 259.188671875 427.448945312 l 2xe8
EndSplineSet
Substitution2: "'frac' Diagonal Fractions in Latin lookup 26 subtable" three.numr
Substitution2: "'onum' Oldstyle Figures lookup 18-1" three.osf
Substitution2: "'tnum' Tabular Numbers lookup 17-1" three.tf
Substitution2: "'numr' Numerators lookup 0 subtable" three.numr
Substitution2: "'dnom' Denominators lookup 0 subtable" three.dnom
Substitution2: "'sups' Superscript lookup 0 subtable" three.superior
Substitution2: "'sinf' Scientific Inferiors lookup 0 subtable" three.inferior
Substitution2: "'sups' Superscript lookup 0 subtable" three.superior
EndChar

StartChar: comma
Encoding: 44 44 61
Width: 252
Flags: W
HStem: -113.894 259.078
VStem: 45.6325 160.962<11.8834 120.059>
LayerCount: 2
Fore
SplineSet
45.6325 67.592109375 m 0
 45.6325 114.598319903 75.9763504647 145.18421875 122.612304688 145.18421875 c 0
 173.489999188 145.18421875 206.5940625 112.864203131 206.5940625 54.3675 c 0
 206.5940625 -39.8580827672 114.298 -113.894 114.298 -113.894 c 1
 59.64075 -72.1225 l 1
 59.64075 -72.1225 99.9662939034 -41.5902790313 117.887112625 -9.71234586549 c 1
 73.7488845566 -5.73021441422 45.6325 23.8303145275 45.6325 67.592109375 c 0
EndSplineSet
EndChar

StartChar: zero
Encoding: 48 48 63
Width: 683
Flags: W
HStem: -9.99805 117.846<263.077 420.701> 621.275 117.846<263.077 420.701>
VStem: 42.3775 130.18<219.941 509.182> 511.22 130.18<219.941 509.182>
LayerCount: 2
Fore
SplineSet
172.557132812 364.561523438 m 0
 172.557132812 210.622276675 223.270938862 107.847867188 341.888671875 107.847867188 c 0
 460.506404888 107.847867188 511.220210938 210.622276675 511.220210938 364.561523438 c 0
 511.220210938 518.500770196 460.506404888 621.275179688 341.888671875 621.275179688 c 0
 223.270938862 621.275179688 172.557132812 518.500770196 172.557132812 364.561523438 c 0
42.3775 364.561523438 m 0
 42.3775 591.206054688 145.947165039 739.12109375 341.888671875 739.12109375 c 0
 537.830178711 739.12109375 641.39984375 591.206054688 641.39984375 364.561523438 c 0
 641.39984375 137.916992188 537.830178711 -9.998046875 341.888671875 -9.998046875 c 0
 145.947165039 -9.998046875 42.3775 137.916992188 42.3775 364.561523438 c 0
EndSplineSet
Substitution2: "'frac' Diagonal Fractions in Latin lookup 26 subtable" zero.numr
Substitution2: "'onum' Oldstyle Figures lookup 18-1" zero.osf
Substitution2: "'tnum' Tabular Numbers lookup 17-1" zero.tf
Substitution2: "'numr' Numerators lookup 0 subtable" zero.numr
Substitution2: "'dnom' Denominators lookup 0 subtable" zero.dnom
Substitution2: "'sups' Superscript lookup 0 subtable" zero.superior
Substitution2: "'sinf' Scientific Inferiors lookup 0 subtable" zero.inferior
Substitution2: "'sups' Superscript lookup 0 subtable" zero.superior
EndChar

StartChar: one
Encoding: 49 49 64
Width: 415
Flags: W
HStem: 0 21G<215.765 351.745> 509.951 21G<56.1271 101.676> 711 20G<197.011 351.745>
VStem: 215.765 135.98<0 592.506>
LayerCount: 2
Fore
SplineSet
351.745 731 m 1
 351.745 0 l 1
 215.765 0 l 1
 215.765 592.50575 l 1
 65.2 509.95075 l 1
 19.1325 611.5 l 1
 232.765 731 l 1
 351.745 731 l 1
EndSplineSet
Substitution2: "'frac' Diagonal Fractions in Latin lookup 26 subtable" one.numr
Substitution2: "'onum' Oldstyle Figures lookup 18-1" one.osf
Substitution2: "'tnum' Tabular Numbers lookup 17-1" one.tf
Substitution2: "'numr' Numerators lookup 0 subtable" one.numr
Substitution2: "'dnom' Denominators lookup 0 subtable" one.dnom
Substitution2: "'sups' Superscript lookup 0 subtable" one.superior
Substitution2: "'sinf' Scientific Inferiors lookup 0 subtable" one.inferior
Substitution2: "'sups' Superscript lookup 0 subtable" one.superior
EndChar

StartChar: four
Encoding: 52 52 65
Width: 660
Flags: W
HStem: 0 21G<386.784 517.466> 174.207 110.972<188.835 622.622> 711 20G<388.784 517.466>
VStem: 386.784 130.681<0 543.153>
LayerCount: 2
Fore
SplineSet
517.4655 731 m 1
 517.4655 0 l 1
 386.7845 0 l 1
 386.7845 543.1525 l 1
 188.835 285.17875 l 1
 622.6225 285.17875 l 1
 622.6225 174.207 l 1
 64.7775 174.207 l 1
 64.7775 174.207 40.205 272.67875 40.205 272.67875 c 1
 40.205 272.67875 388.7845 731 388.7845 731 c 1
 517.4655 731 l 1
EndSplineSet
Substitution2: "'frac' Diagonal Fractions in Latin lookup 26 subtable" four.numr
Substitution2: "'onum' Oldstyle Figures lookup 18-1" four.osf
Substitution2: "'tnum' Tabular Numbers lookup 17-1" four.tf
Substitution2: "'numr' Numerators lookup 0 subtable" four.numr
Substitution2: "'dnom' Denominators lookup 0 subtable" four.dnom
Substitution2: "'sups' Superscript lookup 0 subtable" four.superior
Substitution2: "'sinf' Scientific Inferiors lookup 0 subtable" four.inferior
Substitution2: "'sups' Superscript lookup 0 subtable" four.superior
EndChar

StartChar: exclam
Encoding: 33 33 66
Width: 274
Flags: W
HStem: -10 155.184<81.0206 192.979> 711.008 20G<71.759 206.241>
VStem: 60.0192 153.962<11.1684 124.015> 71.759 134.482<513.241 731.008> 88.2815 101.437<217 434.767>
LayerCount: 2
Fore
SplineSet
88.2815 217 m 1xc8
 71.759 731.0078125 l 1xd0
 206.241 731.0078125 l 1
 189.7185 217 l 1
 88.2815 217 l 1xc8
60.01921875 67.592109375 m 0xe0
 60.01921875 114.598319903 90.3630692147 145.18421875 136.999023438 145.18421875 c 0
 183.635989108 145.18421875 213.98078125 114.598319903 213.98078125 67.592109375 c 0
 213.98078125 20.5850860413 183.635989108 -10 136.999023438 -10 c 0
 90.3630692148 -10 60.01921875 20.5850860413 60.01921875 67.592109375 c 0xe0
EndSplineSet
EndChar

StartChar: five
Encoding: 53 53 67
Width: 594
Flags: W
HStem: -9.99805 119.912<123.135 356.746> 371.836 108.569<210.409 369.226> 614.995 116.013<200.678 508.172>
VStem: 418.75 133.699<165.012 323.994>
LayerCount: 2
Fore
SplineSet
267 -9.998046875 m 0
 113.901126835 -9.998046875 22.828671875 40.9091796875 22.828671875 40.9091796875 c 1
 57.3356640625 159.056945312 l 1
 57.3356640625 159.056945312 142.523585556 109.91428125 252 109.91428125 c 0
 371.924546796 109.91428125 418.750476562 161.382752918 418.750476562 244.698671875 c 0
 418.750476562 324.326657738 375.378276861 371.836296875 288.3775 371.836296875 c 0
 195.672059914 371.836296875 164.288 309.7265 164.288 309.7265 c 1
 164.288 309.7265 58.886015625 337.963265625 58.886015625 337.963265625 c 1
 58.886015625 337.963265625 93.53875 731.0078125 93.53875 731.0078125 c 1
 508.171875 731.0078125 l 1
 508.171875 614.994570312 l 1
 200.6784375 614.994570312 l 1
 184.479203125 440.267515625 l 1
 184.479203125 440.267515625 217.017892944 480.404867188 321.815429688 480.404867188 c 0
 470.071216014 480.404867188 552.449648438 393.170544055 552.449648438 247.669570312 c 0
 552.449648438 87.9638432588 455.430441778 -9.998046875 267 -9.998046875 c 0
EndSplineSet
Substitution2: "'frac' Diagonal Fractions in Latin lookup 26 subtable" five.numr
Substitution2: "'onum' Oldstyle Figures lookup 18-1" five.osf
Substitution2: "'tnum' Tabular Numbers lookup 17-1" five.tf
Substitution2: "'numr' Numerators lookup 0 subtable" five.numr
Substitution2: "'dnom' Denominators lookup 0 subtable" five.dnom
Substitution2: "'sups' Superscript lookup 0 subtable" five.superior
Substitution2: "'sinf' Scientific Inferiors lookup 0 subtable" five.inferior
Substitution2: "'sups' Superscript lookup 0 subtable" five.superior
EndChar

StartChar: six
Encoding: 54 54 68
Width: 640
Flags: W
HStem: -9.99805 113.036<242.82 418.627> 370.743 103.756<243.12 418.071> 623.287 115.706<267.26 483.603>
VStem: 42.3775 125.284<405.35 515.021> 473.427 124.361<155.985 318.336>
LayerCount: 2
Back
SplineSet
188.3984375 236.890625 m 4
 188.3984375 160.019065367 229.88147703 103.890625 330.3984375 103.890625 c 4
 431.623435844 103.890625 473.3984375 160.019065367 473.3984375 236.890625 c 4
 473.3984375 314.340166284 431.623435844 370.890625 330.3984375 370.890625 c 4
 229.88147703 370.890625 188.3984375 314.340166284 188.3984375 236.890625 c 4
173.303710938 405.747070312 m 5
 173.303710938 405.747070312 214.094697864 475.599609375 341.263671875 475.599609375 c 4
 515.711185917 475.599609375 595.165039062 379.238029036 595.165039062 239 c 4
 595.165039062 79.095703125 494.937095781 -9.998046875 331.297851562 -9.998046875 c 4
 151.540405276 -9.998046875 45 99.6728515624 45 365.331054688 c 4
 45 605.528320312 159.046377502 738.9921875 364.297851562 738.9921875 c 4
 505.428880973 738.9921875 576.923828125 678.860351562 576.923828125 678.860351562 c 5
 532.619140625 573.388671875 l 5
 532.619140625 573.388671875 473.487673927 622.51953125 364.778320312 622.51953125 c 4
 242.266224145 622.51953125 180.301516454 546.295339891 173.303710938 405.747070312 c 5
EndSplineSet
Fore
SplineSet
188.0191875 236.890625 m 0
 188.0191875 159.526191514 230.478387544 103.037875 330.3984375 103.037875 c 0
 431.297353651 103.037875 473.4266875 159.526191514 473.4266875 236.890625 c 0
 473.4266875 314.255058486 431.643433091 370.743375 330.3984375 370.743375 c 0
 230.478387544 370.743375 188.0191875 314.255058486 188.0191875 236.890625 c 0
167.661210938 405.349570312 m 1
 167.661210938 405.349570312 209.0331122 474.499609375 348.637171875 474.499609375 c 0
 501.501579966 474.499609375 597.787539062 378.586033742 597.787539062 239 c 0
 597.787539062 79.095703125 496.563459111 -9.998046875 331.297851562 -9.998046875 c 0
 149.104069734 -9.998046875 42.3775 99.6728515624 42.3775 365.331054688 c 0
 42.3775 605.528320312 155.038917262 738.9921875 357.797851562 738.9921875 c 0
 504.401520564 738.9921875 578.668828125 679.474601562 578.668828125 679.474601562 c 1
 536.119140625 574.331171875 l 1
 536.119140625 574.331171875 476.203262779 623.28653125 366.051820312 623.28653125 c 0
 239.114627471 623.28653125 174.063607081 549.457509191 167.661210938 405.349570312 c 1
EndSplineSet
Substitution2: "'frac' Diagonal Fractions in Latin lookup 26 subtable" six.numr
Substitution2: "'onum' Oldstyle Figures lookup 18-1" six.osf
Substitution2: "'tnum' Tabular Numbers lookup 17-1" six.tf
Substitution2: "'numr' Numerators lookup 0 subtable" six.numr
Substitution2: "'dnom' Denominators lookup 0 subtable" six.dnom
Substitution2: "'ss07' Style Set 7 lookup 8-1" six.ss07
Substitution2: "'sups' Superscript lookup 0 subtable" six.superior
Substitution2: "'sinf' Scientific Inferiors lookup 0 subtable" six.inferior
Substitution2: "'sups' Superscript lookup 0 subtable" six.superior
EndChar

StartChar: parenright
Encoding: 41 41 69
Width: 402
Flags: W
HStem: -171.47 110.036<37.3775 129.897> 649.434 110.036<37.3775 129.897>
VStem: 240.301 124.448<94.206 493.794>
LayerCount: 2
Fore
SplineSet
37.3775 -61.4338359376 m 1
 172.497263391 -61.4338359376 240.300992188 37.043517856 240.300992188 294 c 0
 240.300992188 550.956482143 172.497263391 649.433835938 37.3775 649.433835938 c 1
 37.3775 759.469726562 l 1
 250.257414402 759.469726562 364.749453125 611.823242188 364.749453125 294 c 0
 364.749453125 -23.8232421877 250.257414402 -171.469726562 37.3775 -171.469726562 c 1
 37.3775 -61.4338359376 l 1
EndSplineSet
EndChar

StartChar: seven
Encoding: 55 55 70
Width: 604
Flags: W
HStem: 0 21G<175.685 314.235> 614.016 116.984<46.5 408.745>
VStem: 175.685 136.805<0 154.243>
LayerCount: 2
Fore
SplineSet
312.49 0 m 1
 175.6855 0 l 1
 187.543000856 341.4812 408.7455 614.016 408.7455 614.016 c 1
 46.5 614.016 l 1
 46.5 731 l 1
 557.5 731 l 1
 557.5 630.616 l 1
 557.5 630.616 315.980020477 360.0763736 312.49 0 c 1
EndSplineSet
Substitution2: "'frac' Diagonal Fractions in Latin lookup 26 subtable" seven.numr
Substitution2: "'onum' Oldstyle Figures lookup 18-1" seven.osf
Substitution2: "'tnum' Tabular Numbers lookup 17-1" seven.tf
Substitution2: "'numr' Numerators lookup 0 subtable" seven.numr
Substitution2: "'dnom' Denominators lookup 0 subtable" seven.dnom
Substitution2: "'sups' Superscript lookup 0 subtable" seven.superior
Substitution2: "'sinf' Scientific Inferiors lookup 0 subtable" seven.inferior
Substitution2: "'sups' Superscript lookup 0 subtable" seven.superior
EndChar

StartChar: eight
Encoding: 56 56 71
Width: 647
Flags: W
HStem: -9.99805 108.699<225.614 421.386> 329.43 102.687<248.5 401.72> 360.451 50.0018<163.487 486.767> 629.151 109.734<241.92 410.676>
VStem: 42.3775 128.835<148.359 279.669> 77.6373 124.195<469.152 592.29> 450.168 124.195<472.279 591.348> 475.787 128.835<148.359 279.669>
LayerCount: 2
Fore
SplineSet
323.6755 432.116773438 m 0xd6
 401.719747578 432.116773438 450.167757812 469.950813778 450.167757812 530.034390625 c 0
 450.167757812 592.353396806 403.551528294 629.150796875 323.5 629.150796875 c 0
 246.608694216 629.150796875 201.832242188 592.353396806 201.832242188 530.034390625 c 0
 201.832242188 469.950813778 248.499655501 432.116773438 323.6755 432.116773438 c 0xd6
323.5 738.884765625 m 0
 479.862275711 738.884765625 574.362734375 665.090820312 574.362734375 543.655273438 c 0
 574.362734375 425.387209569 486.766729025 360.450742188 323.5 360.450742188 c 0xb6
 163.487186746 360.450742188 77.637265625 425.387209569 77.637265625 543.655273438 c 0
 77.637265625 665.090820312 170.253948636 738.884765625 323.5 738.884765625 c 0
323.5 98.700625 m 0
 421.029695095 98.700625 475.787171875 140.249887711 475.787171875 215.328757812 c 0
 475.787171875 285.111581126 421.050817731 329.429960938 323.5 329.429960938 c 0
 225.949182269 329.429960938 171.212828125 285.111581126 171.212828125 215.328757812 c 0xd9
 171.212828125 140.249887711 225.970304905 98.700625 323.5 98.700625 c 0
323.5 410.452578125 m 0xb9
 504.848444595 410.452578125 604.6225 338.04880034 604.6225 207.065585938 c 0
 604.6225 75.652499505 494.031723616 -9.998046875 323.5 -9.998046875 c 0
 152.968276384 -9.998046875 42.3775 75.6524995052 42.3775 207.065585938 c 0
 42.3775 338.04880034 142.151555405 410.452578125 323.5 410.452578125 c 0xb9
EndSplineSet
Substitution2: "'frac' Diagonal Fractions in Latin lookup 26 subtable" eight.numr
Substitution2: "'onum' Oldstyle Figures lookup 18-1" eight.osf
Substitution2: "'tnum' Tabular Numbers lookup 17-1" eight.tf
Substitution2: "'numr' Numerators lookup 0 subtable" eight.numr
Substitution2: "'dnom' Denominators lookup 0 subtable" eight.dnom
Substitution2: "'sups' Superscript lookup 0 subtable" eight.superior
Substitution2: "'sinf' Scientific Inferiors lookup 0 subtable" eight.inferior
Substitution2: "'sups' Superscript lookup 0 subtable" eight.superior
EndChar

StartChar: nine
Encoding: 57 57 72
Width: 640
Flags: W
HStem: -9.99805 115.706<153.11 372.016> 253.095 104.282<223.181 400.879> 624.906 114.086<222.644 398.448>
VStem: 42.3775 126.535<409.952 571.194> 454.32 143.467<283.804 542.381> 469.004 128.784<213.973 323.645>
LayerCount: 2
Fore
SplineSet
454.320351562 491.053515625 m 0xf8
 454.320351562 568.417949111 411.861151519 624.906265625 311.941101562 624.906265625 c 0
 211.128705271 624.906265625 168.912851562 568.417949111 168.912851562 491.053515625 c 0
 168.912851562 413.790517919 210.696105972 357.376265625 311.941101562 357.376265625 c 0
 411.861151519 357.376265625 454.320351562 413.790517919 454.320351562 491.053515625 c 0xf8
469.003828125 323.644570312 m 1xf4
 469.003828125 323.644570312 428.502422459 253.09453125 291.527867188 253.09453125 c 0
 138.663459097 253.09453125 42.3775 349.579073757 42.3775 489.994140625 c 0
 42.3775 649.8984375 143.601579952 738.9921875 308.8671875 738.9921875 c 0
 491.148719328 738.9921875 597.787539062 629.321289062 597.787539062 363.663085938 c 0xf8
 597.787539062 123.465820312 485.1261218 -9.998046875 282.3671875 -9.998046875 c 0
 135.763518498 -9.998046875 61.4962109375 49.5195390625 61.4962109375 49.5195390625 c 1
 100.545898438 154.66296875 l 1
 100.545898438 154.66296875 161.694850176 105.707609375 274.11321875 105.707609375 c 0
 398.810990198 105.707609375 462.729346169 179.536789746 469.003828125 323.644570312 c 1xf4
EndSplineSet
Substitution2: "'frac' Diagonal Fractions in Latin lookup 26 subtable" nine.numr
Substitution2: "'onum' Oldstyle Figures lookup 18-1" nine.osf
Substitution2: "'tnum' Tabular Numbers lookup 17-1" nine.tf
Substitution2: "'numr' Numerators lookup 0 subtable" nine.numr
Substitution2: "'dnom' Denominators lookup 0 subtable" nine.dnom
Substitution2: "'ss07' Style Set 7 lookup 8-1" nine.ss07
Substitution2: "'sups' Superscript lookup 0 subtable" nine.superior
Substitution2: "'sinf' Scientific Inferiors lookup 0 subtable" nine.inferior
Substitution2: "'sups' Superscript lookup 0 subtable" nine.superior
EndChar

StartChar: question
Encoding: 63 63 73
Width: 562
Flags: W
HStem: -10 155.184<169.021 280.979> 217 177.661<173.289 276.877> 299.594 95.0676<212.186 349.498> 621.946 117.047<124.044 337.159>
VStem: 148.019 153.962<11.1684 124.015> 171.555 108.691<217 300.829> 393.738 130.754<437.025 572.157>
LayerCount: 2
Back
SplineSet
152.38671875 63.224609375 m 0xf4
 152.38671875 107.584937143 181.008990842 136.44921875 224.999023438 136.44921875 c 0
 268.990077228 136.44921875 297.61328125 107.584937143 297.61328125 63.224609375 c 0
 297.61328125 18.8635145521 268.990077228 -10 224.999023438 -10 c 0
 181.008990842 -10 152.38671875 18.8635145521 152.38671875 63.224609375 c 0xf4
280.88671875 300.653320312 m 1
 282.37890625 210 l 1
 169.422851562 210 l 1xec
 171.15625 399.46875 l 1
 171.15625 399.46875 208.949224154 395.048828125 256.3984375 395.048828125 c 0
 348.180522211 395.048828125 392.095703125 431.389934102 392.095703125 499.145507812 c 0
 392.095703125 585.201602829 327.571533338 623.228515625 232.89453125 623.228515625 c 0
 138.66274719 623.228515625 76.923828125 573.958007812 76.923828125 573.958007812 c 1
 30.2412109375 685.311523438 l 1
 30.2412109375 685.311523438 107.390463661 738.9921875 239.89453125 738.9921875 c 0
 405.150107971 738.9921875 521.870117188 670 521.870117188 501.010742188 c 0
 521.870117188 365.685958308 421.37343496 300.59375 309 300.59375 c 0
 290.63582236 300.59375 280.88671875 300.653320312 280.88671875 300.653320312 c 1
EndSplineSet
Fore
SplineSet
148.01921875 67.592109375 m 0x9a
 148.01921875 114.598319903 178.363069215 145.18421875 224.999023438 145.18421875 c 0
 271.635989108 145.18421875 301.98078125 114.598319903 301.98078125 67.592109375 c 0
 301.98078125 20.5850860413 271.635989108 -10 224.999023438 -10 c 0
 178.363069215 -10 148.01921875 20.5850860413 148.01921875 67.592109375 c 0x9a
278.75421875 300.828820312 m 1
 280.24640625 217 l 1
 171.555351562 217 l 1
 171.555351562 217 173.28875 399.25675 173.28875 399.25675 c 1
 173.28875 399.25675 207.768716737 394.661328125 251.0584375 394.661328125 c 0xd6
 347.563302759 394.661328125 393.738203125 432.045397763 393.738203125 501.745507812 c 0
 393.738203125 585.108600597 330.169527123 621.945515625 236.89453125 621.945515625 c 0
 133.952977151 621.945515625 66.507578125 569.600507812 66.507578125 569.600507812 c 1
 21.1187109375 685.311523438 l 1
 21.1187109375 685.311523438 101.624905765 738.9921875 239.89453125 738.9921875 c 0
 406.687059295 738.9921875 524.492617188 664.363007144 524.492617188 503.610742188 c 0
 524.492617188 365.855180275 420.68225137 299.59375 315.497 299.59375 c 0xb6
 291.495854213 299.59375 278.75421875 300.828820312 278.75421875 300.828820312 c 1
EndSplineSet
EndChar

StartChar: hyphen
Encoding: 45 45 74
Width: 354
Flags: W
HStem: 223.983 111.035<37.3775 316.623>
VStem: 37.3775 279.245<223.983 335.017>
LayerCount: 2
Fore
SplineSet
316.6225 223.9825 m 1
 37.3775 223.9825 l 1
 37.3775 335.0175 l 1
 316.6225 335.0175 l 1
 316.6225 223.9825 l 1
EndSplineSet
EndChar

StartChar: quotesingle
Encoding: 39 39 75
Width: 266
Flags: W
HStem: 456 275.008<92.155 177.845>
VStem: 92.155 85.69<456 572.511>
LayerCount: 2
Fore
SplineSet
92.155 456 m 1
 75.6325 731.0078125 l 1
 75.6325 731.0078125 194.3675 731.0078125 194.3675 731.0078125 c 1
 194.3675 731.0078125 177.845 456 177.845 456 c 1
 92.155 456 l 1
EndSplineSet
EndChar

StartChar: parenleft
Encoding: 40 40 77
Width: 402
Flags: W
HStem: -171.47 110.036<272.23 364.749> 649.434 110.036<272.23 364.749>
VStem: 37.3775 124.448<94.206 493.794>
LayerCount: 2
Fore
SplineSet
364.749453125 -61.4338359376 m 1
 364.749453125 -171.469726562 l 1
 151.869538723 -171.469726562 37.3775 -23.8232421877 37.3775 294 c 0
 37.3775 611.823242188 151.869538723 759.469726562 364.749453125 759.469726562 c 1
 364.749453125 649.433835938 l 1
 229.629689734 649.433835938 161.825960938 550.956482143 161.825960938 294 c 0
 161.825960938 37.043517856 229.629689734 -61.4338359376 364.749453125 -61.4338359376 c 1
EndSplineSet
EndChar

StartChar: asterisk
Encoding: 42 42 78
Width: 400
Flags: W
HStem: 718.992 20G<146.579 253.861>
LayerCount: 2
Fore
SplineSet
253.860523438 738.9921875 m 1
 243.465984375 603.782117188 l 1
 360.458679688 657.592804688 l 1
 395.440429688 562.185390625 l 1
 267.702734375 528.645078125 l 1
 354.966523438 432.374335938 l 1
 268.20265625 367.618992188 l 1
 200.219726562 480.936195312 l 1
 132.236796875 367.618992188 l 1
 45.4729296875 432.374335938 l 1
 132.73671875 528.645078125 l 1
 5 562.185390625 l 1
 39.98175 657.592804688 l 1
 156.97346875 603.782117188 l 1
 146.578929688 738.9921875 l 1
 253.860523438 738.9921875 l 1
EndSplineSet
Substitution2: "'ss13' Style Set 13 lookup 14-1" asterisk.ss13
EndChar

StartChar: less
Encoding: 60 60 79
Width: 450
Flags: W
LayerCount: 2
Fore
SplineSet
420 156.755 m 1
 30 300.6325 l 1
 30 415.3675 l 1
 420 559.245 l 1
 420 451.26 l 1
 160.311601562 358 l 1
 420 264.74 l 1
 420 156.755 l 1
EndSplineSet
EndChar

StartChar: greater
Encoding: 62 62 80
Width: 450
Flags: W
LayerCount: 2
Fore
SplineSet
30 559.245 m 1
 420 415.3675 l 1
 420 300.6325 l 1
 30 156.755 l 1
 30 264.74 l 1
 284.065898438 358 l 1
 30 451.26 l 1
 30 559.245 l 1
EndSplineSet
EndChar

StartChar: slash
Encoding: 47 47 81
Width: 434
Flags: W
LayerCount: 2
Fore
SplineSet
22.64575 -171.469726562 m 1
 297.64575 761.403320312 l 1
 411.35425 761.403320312 l 1
 136.35425 -171.469726562 l 1
 22.64575 -171.469726562 l 1
EndSplineSet
Substitution2: "'frac' Diagonal Fractions in Latin lookup 25 subtable" fraction
EndChar

StartChar: bar
Encoding: 124 124 82
Width: 249
Flags: W
VStem: 67.8212 113.358<-171.47 759.47>
LayerCount: 2
Fore
SplineSet
67.82125 -171.469726562 m 1
 67.82125 759.469726562 l 1
 181.17875 759.469726562 l 1
 181.17875 -171.469726562 l 1
 67.82125 -171.469726562 l 1
EndSplineSet
EndChar

StartChar: bracketleft
Encoding: 91 91 83
Width: 375
Flags: W
HStem: -171.47 98.6512<185.559 331.123> 661.468 98.0012<185.559 331.123>
VStem: 68.1755 262.947<-171.47 -72.8185 661.468 759.47> 68.1755 117.384<-72.8185 661.468>
LayerCount: 2
Fore
SplineSet
68.1755 759.469726562 m 1xe0
 331.1225 759.469726562 l 1
 331.1225 661.468476562 l 1xe0
 185.5595 661.468476562 l 1
 185.5595 -72.8184765624 l 1xd0
 331.1225 -72.8184765624 l 1
 331.1225 -171.469726562 l 1
 68.1755 -171.469726562 l 1
 68.1755 759.469726562 l 1xe0
EndSplineSet
EndChar

StartChar: bracketright
Encoding: 93 93 84
Width: 375
Flags: W
HStem: -171.47 98.6512<43.8775 189.441> 660.906 98.5635<43.8775 189.441>
VStem: 43.8775 262.947<-171.47 -72.8185 660.906 759.47> 189.441 117.384<-72.8185 660.906>
LayerCount: 2
Fore
SplineSet
306.8245 -171.469726562 m 1xd0
 306.8245 -171.469726562 43.8775 -171.469726562 43.8775 -171.469726562 c 1
 43.8775 -171.469726562 43.8775 -72.8184765624 43.8775 -72.8184765624 c 1xe0
 43.8775 -72.8184765624 189.4405 -72.8184765624 189.4405 -72.8184765624 c 1
 189.4405 660.906226562 l 1xd0
 189.4405 660.906226562 43.8775 660.906226562 43.8775 660.906226562 c 1
 43.8775 660.906226562 43.8775 759.469726562 43.8775 759.469726562 c 1xe0
 43.8775 759.469726562 306.8245 759.469726562 306.8245 759.469726562 c 1
 306.8245 -171.469726562 l 1xd0
EndSplineSet
EndChar

StartChar: asciicircum
Encoding: 94 94 85
Width: 449
Flags: W
HStem: 440 291.008
LayerCount: 2
Fore
SplineSet
284.8675 731.0078125 m 1
 436.6225 440 l 1
 321.5875 440 l 1
 225.393554688 643.550976562 l 1
 128.4125 440 l 1
 12.3775 440 l 1
 12.3775 440 164.1325 731.0078125 164.1325 731.0078125 c 1
 164.1325 731.0078125 284.8675 731.0078125 284.8675 731.0078125 c 1
EndSplineSet
EndChar

StartChar: braceleft
Encoding: 123 123 86
Width: 433
Flags: W
HStem: -171.47 96.6473<267.183 384.98> 260.665 107.735<43 126.317> 662.822 96.6473<267.09 384.026>
VStem: 134.755 117.735<-57.6521 252.251 376.047 649.471> 383 7<-161.206 -69.3836>
LayerCount: 2
Fore
SplineSet
193.33275 314.532226562 m 1
 193.33275 314.532226562 252.49 289.741155133 252.49 210.409726562 c 2
 252.49 -2.3836328125 l 2
 252.49 -58.0027354431 279.722450908 -74.8223828124 328.245 -74.8223828124 c 0
 373.126908351 -74.8223828124 383 -69.3836328124 383 -69.3836328124 c 1
 383 -69.3836328124 390 -161.206476562 390 -161.206476562 c 1
 390 -161.206476562 353.334716495 -171.469726562 293.8775 -171.469726562 c 0
 176.727836862 -171.469726562 134.755 -117.110332031 134.755 -24.8697265625 c 2
 134.755 -24.8697265625 134.755 196.909726562 134.755 196.909726562 c 2
 134.755 245.577542842 116.256953125 260.664726562 79.755 260.664726562 c 2
 43 260.664726562 l 1
 43 368.399726562 l 1
 79.755 368.399726562 l 2
 116.256953125 368.399726562 134.755 383.487914488 134.755 432.154726562 c 2
 134.755 612.869726562 l 2
 134.755 705.107805607 176.727836862 759.469726562 293.8775 759.469726562 c 0
 348.132210052 759.469726562 390 749.206476562 390 749.206476562 c 1
 383 657.383632812 l 1
 383 657.383632812 365.634035644 662.822382812 327.245 662.822382812 c 0
 279.363078446 662.822382812 252.49 646.001752929 252.49 590.383632812 c 2
 252.49 418.654726562 l 2
 252.49 337.342917481 193.33275 314.532226562 193.33275 314.532226562 c 1
EndSplineSet
EndChar

StartChar: grave
Encoding: 96 96 87
Width: 242
Flags: W
HStem: 529 212.008
VStem: 9.255 223.49
LayerCount: 2
Fore
SplineSet
150.1325 529 m 1
 150.1325 529 9.255 711.0078125 9.255 711.0078125 c 1
 123.99 741.0078125 l 1
 232.745 549 l 1
 232.745 549 150.1325 529 150.1325 529 c 1
EndSplineSet
EndChar

StartChar: underscore
Encoding: 95 95 88
Width: 564
Flags: W
HStem: -93.6125 93.6125<36.5 527.5>
LayerCount: 2
Fore
SplineSet
527.5 -93.6125 m 1
 36.5 -93.6125 l 1
 36.5 0 l 1
 527.5 0 l 1
 527.5 -93.6125 l 1
EndSplineSet
EndChar

StartChar: dollar
Encoding: 36 36 89
Width: 591
Flags: W
HStem: -105 170.082<240.804 348.218> -10 119.008<140.074 374.897> 619.113 120.008<229.305 444.902> 660.265 169.205<240.804 348.218>
VStem: 53.5045 138.042<475.063 585.596> 240.804 107.413<-105 65.0822 660.265 829.47> 416.441 132.701<146.192 255.958>
LayerCount: 2
Fore
SplineSet
240.804394531 -105 m 1x8e
 240.804394531 65.0822265625 l 1
 348.217822265 65.0822265625 l 1
 348.217822265 -105 l 1
 240.804394531 -105 l 1x8e
240.804394531 660.264746094 m 1x1e
 240.804394531 829.469726562 l 1
 348.217822265 829.469726562 l 1
 348.217822265 660.264746094 l 1
 240.804394531 660.264746094 l 1x1e
EndSplineSet
Refer: 22 83 N 1 0 0 1 0 0 2
EndChar

StartChar: percent
Encoding: 37 37 90
Width: 953
Flags: W
HStem: -9.99805 96.055<664.029 781.108> 0 21G<190.382 301.118> 272.798 96.054<664.029 781.108> 360.143 96.054<173.382 290.108> 642.937 96.055<173.382 290.108> 711.008 20G<642.174 765.618>
VStem: 42.3775 105.496<480.833 617.082> 317.197 103.386<483.765 616.33> 533.378 104.496<113.625 246.19> 808.197 103.386<113.625 246.19>
LayerCount: 2
Fore
SplineSet
637.87365625 179.981445312 m 0xa3c0
 637.87365625 112.600283584 676.372070162 86.0569765623 722.48046875 86.0569765623 c 0
 768.04882094 86.0569765623 808.19665625 112.600283584 808.19665625 179.981445312 c 0
 808.19665625 248.047036918 768.04882094 272.797515625 722.48046875 272.797515625 c 0
 676.372070162 272.797515625 637.87365625 248.047036918 637.87365625 179.981445312 c 0xa3c0
533.3775 179.981445312 m 0
 533.3775 284.052592232 602.374395314 368.8515625 722.48046875 368.8515625 c 0
 842.585560612 368.8515625 911.582460938 284.052592232 911.582460938 179.981445312 c 0
 911.582460938 76.0063373081 842.585560612 -9.998046875 722.48046875 -9.998046875 c 0
 602.374395314 -9.998046875 533.3775 76.0063373081 533.3775 179.981445312 c 0
147.87365625 550.122070312 m 0
 147.87365625 482.741054878 185.921979995 456.196625 231.48046875 456.196625 c 0
 277.04882094 456.196625 317.19665625 482.741054878 317.19665625 550.122070312 c 0
 317.19665625 618.186630189 277.04882094 642.937164062 231.48046875 642.937164062 c 0x1bc0
 185.921979995 642.937164062 147.87365625 618.186630189 147.87365625 550.122070312 c 0
42.3775 550.122070312 m 0
 42.3775 654.193217232 111.374395314 738.9921875 231.48046875 738.9921875 c 0
 351.585560612 738.9921875 420.582460938 654.193217232 420.582460938 550.122070312 c 0
 420.582460938 446.146962308 351.585560612 360.142578125 231.48046875 360.142578125 c 0
 111.374395314 360.142578125 42.3775 446.146962308 42.3775 550.122070312 c 0
EndSplineSet
Refer: 138 8260 N 1 0 0 1 301 0 2
EndChar

StartChar: at
Encoding: 64 64 91
Width: 924
Flags: W
HStem: -159.727 96.0326<351.275 647.464> 71.9697 95.5674<389.882 512.355 667.008 763.896> 385.489 93.5869<401.764 524.263> 613.376 94.3508<343.76 611.912>
VStem: 35.8775 100.799<136.822 404.603> 249.681 114.765<193.468 343.913> 550.29 109.012<213.407 333.775> 557.14 62.2769<151.945 350.156> 795.814 92.5959<202.992 438.832>
LayerCount: 2
Fore
SplineSet
364.445398438 263.1546875 m 0xfe80
 364.445398438 200.586149342 393.5834875 167.537132812 448.753585938 167.537132812 c 0
 512.877046847 167.537132812 550.289617188 213.406779111 550.289617188 292.029296875 c 0
 550.289617188 352.388644254 518.525528464 385.489234375 466.930960938 385.489234375 c 0
 402.138284713 385.489234375 364.445398438 340.496043171 364.445398438 263.1546875 c 0xfe80
424.092578125 71.9697265625 m 0
 319.679946795 71.9697265625 249.680546875 146.666648006 249.680546875 258.087109375 c 0
 249.680546875 389.0550073 333.667256812 479.076171875 447.558105469 479.076171875 c 0
 563.542551421 479.076171875 619.417132812 399.066297186 619.417132812 265.71709375 c 0xfd80
 619.417132812 151.945399031 538.791844689 71.9697265625 424.092578125 71.9697265625 c 0
487.713867188 -159.7265625 m 0
 207.940801145 -159.7265625 35.8775 14.611328125 35.8775 268.08984375 c 0
 35.8775 524.041992188 214.916157956 707.7265625 472.920898438 707.7265625 c 0
 715.490733436 707.7265625 888.409609375 561.379882812 888.409609375 321.901367188 c 0
 888.409609375 171.18359375 819.702697377 72.708984375 699.781953125 72.708984375 c 0
 610.352432811 72.708984375 557.140203125 120.982421875 557.140203125 228.081054688 c 0xfd80
 557.140203125 350.15625 596.170476562 476.46484375 596.170476562 476.46484375 c 1
 702.45765625 476.46484375 l 1
 702.45765625 476.46484375 659.301562501 333.775477243 659.301562501 230.977148438 c 0xfe80
 659.301562501 185.613315189 674.803641486 161.673765625 709.558675781 161.673765625 c 0
 757.356398036 161.673765625 795.813742188 198.51000046 795.813742188 324.572265625 c 0
 795.813742188 509.149685471 669.931061716 613.37578125 469.747625 613.37578125 c 0
 267.620673141 613.37578125 136.676054688 481.076794476 136.676054688 271.689257812 c 0
 136.676054688 63.286586565 259.940917561 -63.694 497.0654375 -63.694 c 0
 664.700704207 -63.694 769.49278125 11.6966171875 769.49278125 11.6966171875 c 1
 769.49278125 11.6966171875 805.250976562 -72.2255859375 805.250976562 -72.2255859375 c 1
 805.250976562 -72.2255859375 701.004882812 -159.7265625 487.713867188 -159.7265625 c 0
EndSplineSet
EndChar

StartChar: numbersign
Encoding: 35 35 92
Width: 767
Flags: W
HStem: 0 21G<111.606 224.47 381.606 494.47> 182.43 97.639<48.8775 683.122> 433.93 97.639<83.8775 718.122> 711.008 20G<272.092 384.955 542.092 654.955>
LayerCount: 2
Fore
SplineSet
83.8775 531.5695 m 1
 718.1225 531.5695 l 1
 718.1225 433.9305 l 1
 83.8775 433.9305 l 1
 83.8775 531.5695 l 1
48.8775 280.0695 m 1
 48.8775 280.0695 683.1225 280.0695 683.1225 280.0695 c 1
 683.1225 182.4305 l 1
 683.1225 182.4305 48.8775 182.4305 48.8775 182.4305 c 1
 48.8775 182.4305 48.8775 280.0695 48.8775 280.0695 c 1
381.606 0 m 1
 546.606 731.0078125 l 1
 654.95525 731.0078125 l 1
 489.95525 0 l 1
 381.606 0 l 1
111.606 0 m 1
 276.606 731.0078125 l 1
 384.95525 731.0078125 l 1
 219.95525 0 l 1
 111.606 0 l 1
EndSplineSet
EndChar

StartChar: braceright
Encoding: 125 125 93
Width: 433
Flags: W
HStem: -171.47 96.6473<36.7751 157.545> 260.665 107.735<306.683 390> 662.822 96.6473<37.729 157.667>
VStem: 31.755 7<-161.206 -69.3836> 180.51 117.735<-50.6072 252.251 376.047 638.606>
LayerCount: 2
Fore
SplineSet
239.755 314.532226562 m 1
 239.755 314.532226562 180.51 337.342917481 180.51 418.654726562 c 2
 180.51 570.142632812 l 2
 180.51 641.301694336 149.594546233 662.822382812 94.51 662.822382812 c 0
 56.1209643555 662.822382812 38.755 657.383632812 38.755 657.383632812 c 1
 31.755 749.206476562 l 1
 31.755 749.206476562 73.6227899485 759.469726562 127.8775 759.469726562 c 0
 253.305992103 759.469726562 298.245 697.602078171 298.245 592.628726562 c 2
 298.245 432.154726562 l 2
 298.245 383.487914488 316.743046875 368.399726562 353.245 368.399726562 c 2
 390 368.399726562 l 1
 390 260.664726562 l 1
 353.245 260.664726562 l 2
 316.743046875 260.664726562 298.245 245.577542842 298.245 196.909726562 c 2
 298.245 -4.6287265625 l 2
 298.245 -109.604953418 253.305992103 -171.469726562 127.8775 -171.469726562 c 0
 68.4202835052 -171.469726562 31.755 -161.206476562 31.755 -161.206476562 c 1
 31.755 -161.206476562 38.755 -69.3836328124 38.755 -69.3836328124 c 1
 38.755 -69.3836328124 48.6280916494 -74.8223828124 93.51 -74.8223828124 c 0
 149.235190034 -74.8223828124 180.51 -53.3029513854 180.51 17.8573671875 c 2
 180.51 210.409726562 l 2
 180.51 289.741155133 239.755 314.532226562 239.755 314.532226562 c 1
EndSplineSet
EndChar

StartChar: asciitilde
Encoding: 126 126 94
Width: 436
VWidth: 999
Flags: W
HStem: 291.228 99.6125<233.545 355.01> 341.983 98.6125<83.6898 203.554>
LayerCount: 2
Fore
SplineSet
424.5 355.78975 m 1x80
 424.5 355.78975 375.295573771 291.2285 299.43875 291.2285 c 0x80
 221.475038462 291.2285 195.487134615 341.9835 138.56125 341.9835 c 0
 96.2566485507 341.9835 61.745 301.4835 61.745 301.4835 c 1
 11.5 387.096 l 1
 11.5 387.096 65.8298872951 440.596 136.56125 440.596 c 0x40
 213.287442308 440.596 245.462942308 390.841 297.43875 390.841 c 0
 345.6095 390.841 370.255 427.77975 370.255 427.77975 c 1
 424.5 355.78975 l 1x80
EndSplineSet
EndChar

StartChar: cent
Encoding: 162 162 95
Width: 497
Flags: W
HStem: -5 185.082<243.24 342.758> 105.002 105.148<232.182 417.519> 518.774 107.16<226.662 408.822> 572.632 156.837<243.24 342.758>
VStem: 42.3775 125.28<276.119 457.491> 243.24 99.5175<-5 180.082 572.632 729.47>
LayerCount: 2
Fore
SplineSet
243.24008789 -5 m 1x8c
 243.24008789 180.082226562 l 1
 342.757617187 180.082226562 l 1
 342.757617187 -5 l 1
 243.24008789 -5 l 1x8c
243.24008789 572.632373047 m 1x1c
 243.24008789 729.469726562 l 1
 342.757617187 729.469726562 l 1
 342.757617187 572.632373047 l 1
 243.24008789 572.632373047 l 1x1c
EndSplineSet
Refer: 40 99 N 1 0 0 1 0 115 2
EndChar

StartChar: sterling
Encoding: 163 163 96
Width: 553
Flags: W
HStem: 0 116.072<187.299 523> 289.332 108.635<46.5 434> 621.075 118.387<240.225 447.492>
VStem: 66.7291 140.609<445.873 588.022> 144.202 123.765<215.111 395.813>
LayerCount: 2
Fore
SplineSet
434 289.3325 m 1xe0
 46.5 289.3325 l 1
 46.5 397.9675 l 1
 434 397.9675 l 1
 434 289.3325 l 1xe0
523 0 m 1
 30 0 l 1
 30 106.47175 l 1
 30 106.47175 144.20171875 184.249543374 144.20171875 296.379882812 c 0xe8
 144.20171875 395.813097549 66.7290625 421.670965514 66.7290625 547.185546875 c 0
 66.7290625 671.3984375 161.193421789 739.461914062 302.80859375 739.461914062 c 0
 439.685800529 739.461914062 500.82953125 702.352273438 500.82953125 702.352273438 c 1
 474.9375 588.600664062 l 1
 474.9375 588.600664062 408.628963854 621.07484375 335.17609375 621.07484375 c 0
 264.121029894 621.07484375 207.337578125 604.633200846 207.337578125 523.926271728 c 0xf0
 207.337578125 441.637971264 267.966445312 409.067898623 267.966445312 300.658203125 c 0xe8
 267.966445312 186.279890066 187.299335938 116.07175 187.299335938 116.07175 c 1
 523 116.07175 l 1
 523 0 l 1
EndSplineSet
EndChar

StartChar: yen
Encoding: 165 165 97
Width: 649
Flags: W
HStem: 0 21G<256.51 392.49> 176.755 82.49<92.5 556.5> 306.755 93.8675<256.51 392.49> 306.755 82.49<92.5 262.51 386.49 556.5> 322.877 66.3675<262.51 386.49> 711.008 20G<27.3775 184.374 464.626 621.622>
VStem: 256.51 135.98<0 400.623>
LayerCount: 2
Fore
SplineSet
262.51 322.8775 m 1xce
 27.3775 731.0078125 l 1
 174.035 731.0078125 l 1
 324.5 439.956015625 l 1
 474.965 731.0078125 l 1
 621.6225 731.0078125 l 1
 386.49 322.8775 l 1
 262.51 322.8775 l 1xce
256.51 0 m 1
 256.51 400.6225 l 1
 392.49 400.6225 l 1xe6
 392.49 0 l 1
 256.51 0 l 1
556.5 176.755 m 1
 92.5 176.755 l 1
 92.5 259.245 l 1
 556.5 259.245 l 1
 556.5 176.755 l 1
556.5 306.755 m 1xd6
 92.5 306.755 l 1
 92.5 389.245 l 1
 556.5 389.245 l 1
 556.5 306.755 l 1xd6
EndSplineSet
EndChar

StartChar: currency
Encoding: 164 164 98
Width: 513
Flags: W
HStem: 156.724 104.723<199.039 312.878> 452.744 104.911<199.059 312.897>
VStem: 53.4888 112.233<289.271 426.996> 347.279 112.233<289.271 426.996>
LayerCount: 2
Fore
SplineSet
316.126757812 214.314023438 m 1
 406.512148438 246.325195312 l 1
 500.882265625 123.010625 l 1
 386.967578125 67.0230078125 l 1
 316.126757812 214.314023438 l 1
197.133007812 214.314023438 m 1
 126.2921875 67.0230078125 l 1
 12.3775 123.010625 l 1
 106.747617188 246.325195312 l 1
 197.133007812 214.314023438 l 1
316.126757812 496.86859375 m 1
 386.967578125 644.158632812 l 1
 500.882265625 588.171015625 l 1
 406.512148438 464.856445312 l 1
 316.126757812 496.86859375 l 1
197.133007812 496.86859375 m 1
 106.747617188 464.856445312 l 1
 12.3775 588.171015625 l 1
 126.2921875 644.158632812 l 1
 197.133007812 496.86859375 l 1
165.721460938 359.283203125 m 0
 165.721460938 300.61610153 192.610051562 261.447046875 255.5 261.447046875 c 0
 319.791429025 261.447046875 347.278539062 300.61610153 347.278539062 359.283203125 c 0
 347.278539062 415.327353012 319.824588949 452.744359375 255.611328125 452.744359375 c 0
 192.643210175 452.744359375 165.721460938 415.327353012 165.721460938 359.283203125 c 0
53.488828125 359.283203125 m 0
 53.488828125 479.317382812 129.925356356 557.655273438 255.5 557.655273438 c 0
 382.317808051 557.655273438 459.511171875 479.317382812 459.511171875 359.283203125 c 0
 459.511171875 236.715820312 382.317808051 156.723632812 255.5 156.723632812 c 0
 129.925356356 156.723632812 53.488828125 236.715820312 53.488828125 359.283203125 c 0
EndSplineSet
EndChar

StartChar: brokenbar
Encoding: 166 166 99
Width: 249
Flags: W
VStem: 65.01 118.98<-171.47 239 339 759.47>
LayerCount: 2
Fore
SplineSet
65.01 -171.469726562 m 1
 65.01 239 l 1
 183.99 239 l 1
 183.99 -171.469726562 l 1
 65.01 -171.469726562 l 1
65.01 339 m 1
 65.01 759.469726562 l 1
 183.99 759.469726562 l 1
 183.99 339 l 1
 65.01 339 l 1
EndSplineSet
EndChar

StartChar: section
Encoding: 167 167 100
Width: 593
Flags: W
HStem: -19.6709 100.503<169.333 340.438> 654.099 100.503<252.673 423.924>
VStem: 37.1386 118.217<350.558 441.569> 111.289 125.689<550.254 636.928> 355.928 126.04<97.9478 186.306> 437.901 118.217<292.718 383.471>
LayerCount: 2
Fore
SplineSet
179.848144531 528.478125 m 1xe8
 241.146484375 468.03046875 l 1
 241.146484375 468.03046875 155.355615234 463.025720854 155.355615234 391.516308594 c 0
 155.355615234 354.384355394 184.891803847 328.500212118 301.152001953 310.507792969 c 0
 437.791528318 289.372516014 481.967470703 227.081148366 481.967470703 144.492617188 c 0
 481.967470703 42.229670983 407.506483617 -19.6708984375 285.179296875 -19.6708984375 c 0
 172.464453125 -19.6708984375 117.647705078 19.734375 117.647705078 19.734375 c 1
 148.3975 112.537695312 l 1
 148.3975 112.537695312 199.242094508 80.8322265623 274.182861328 80.8322265623 c 0
 330.57003843 80.8322265623 355.927890625 104.275158839 355.927890625 142.077109375 c 0
 355.927890625 174.568471306 338.018858446 201.639828143 257.724267578 211.069853516 c 0
 83.7087826177 232.504396681 37.1385742188 300.983260755 37.1385742188 376.686816406 c 0
 37.1385742188 510.91356168 179.848144531 528.478125 179.848144531 528.478125 c 1xe8
400.408544922 195.910693359 m 1
 350.355078125 267.603222656 l 1
 350.355078125 267.603222656 437.901074219 272.435436358 437.901074219 339.393457031 c 0
 437.901074219 381.556165979 405.780018998 403.389021612 286.949121094 425.103300781 c 0
 154.925687828 449.135847515 111.28921875 508.188503959 111.28921875 590.439023438 c 0
 111.28921875 692.701969642 185.750205836 754.602539062 308.077392578 754.602539062 c 0
 420.792236328 754.602539062 475.608984375 715.197265625 475.608984375 715.197265625 c 1
 444.859189453 622.218445312 l 1
 444.859189453 622.218445312 394.015236571 654.099414062 319.073828125 654.099414062 c 0
 262.444533879 654.099414062 236.977798828 630.488539173 236.977798828 592.41578125 c 0
 236.977798828 560.653753846 254.616782944 537.999263626 340.054492188 523.0996875 c 0
 507.244712964 495.366667371 556.118115234 427.367241449 556.118115234 346.772070312 c 0xd4
 556.118115234 213.390850031 400.408544922 195.910693359 400.408544922 195.910693359 c 1
EndSplineSet
EndChar

StartChar: dieresis
Encoding: 168 168 101
Width: 459
Flags: W
HStem: 590.808 148.184<69.8815 179.118 279.881 389.118>
VStem: 51.0192 146.962<609.827 719.972> 261.019 146.962<609.827 719.972>
LayerCount: 2
Fore
SplineSet
261.01921875 664.900078125 m 0
 261.01921875 709.786275902 289.983084058 738.9921875 334.499023438 738.9921875 c 0
 379.015974675 738.9921875 407.98078125 709.786275902 407.98078125 664.900078125 c 0
 407.98078125 620.01306941 379.015974675 590.80796875 334.499023438 590.80796875 c 0
 289.983084058 590.80796875 261.01921875 620.01306941 261.01921875 664.900078125 c 0
51.01921875 664.900078125 m 0
 51.01921875 709.786275902 79.9830840587 738.9921875 124.499023438 738.9921875 c 0
 169.015974675 738.9921875 197.98078125 709.786275902 197.98078125 664.900078125 c 0
 197.98078125 620.01306941 169.015974675 590.80796875 124.499023438 590.80796875 c 0
 79.9830840585 590.80796875 51.01921875 620.01306941 51.01921875 664.900078125 c 0
EndSplineSet
EndChar

StartChar: copyright
Encoding: 169 169 102
Width: 797
Flags: W
HStem: -9.99805 92.8209<280.186 517.591> 177.281 86.4714<363.668 523.736> 465.37 86.4714<363.668 505.831> 646.3 92.8209<280.186 517.591>
VStem: 35.8775 95.509<236.687 492.436> 231.085 103.26<292.489 436.634> 666.391 95.509<236.687 492.436>
LayerCount: 2
Fore
SplineSet
231.08453125 364.561523438 m 0
 231.08453125 477.88408452 294.908526163 551.841796875 417.701367188 551.841796875 c 0
 499.950691167 551.841796875 539.720351562 518.7265625 539.720351562 518.7265625 c 1
 539.720351562 518.7265625 510.285765625 439.521859375 510.285765625 439.521859375 c 1
 510.285765625 439.521859375 488.618162213 465.370351562 432.323867188 465.370351562 c 0
 361.007600207 465.370351562 334.344359375 425.012324197 334.344359375 364.561523438 c 0
 334.344359375 304.11072268 361.007600207 263.752695312 432.323867188 263.752695312 c 0
 492.798112214 263.752695312 518.765820312 286.818125 518.765820312 286.818125 c 1
 541.292617188 204.578125 l 1
 541.292617188 204.578125 499.402537474 177.28125 417.701367188 177.28125 c 0
 294.908526163 177.28125 231.08453125 251.238962356 231.08453125 364.561523438 c 0
131.386484375 364.561523438 m 0
 131.386484375 195.616039391 213.257044817 82.822875 398.888671875 82.822875 c 0
 584.520298933 82.822875 666.390859375 195.616039391 666.390859375 364.561523438 c 0
 666.390859375 533.507007484 584.520298933 646.300171875 398.888671875 646.300171875 c 0
 213.257044817 646.300171875 131.386484375 533.507007484 131.386484375 364.561523438 c 0
35.8775 364.561523438 m 0
 35.8775 591.206054688 173.233947435 739.12109375 398.888671875 739.12109375 c 0
 624.543396315 739.12109375 761.89984375 591.206054688 761.89984375 364.561523438 c 0
 761.89984375 137.916992188 624.543396315 -9.998046875 398.888671875 -9.998046875 c 0
 173.233947435 -9.998046875 35.8775 137.916992188 35.8775 364.561523438 c 0
EndSplineSet
EndChar

StartChar: registered
Encoding: 174 174 103
Width: 797
Flags: W
HStem: -9.99805 92.8209<280.186 517.591> 311.629 68.1443<300.15 435.622> 477.459 70.7972<344.092 448.761> 646.3 92.8209<280.186 517.591>
VStem: 35.8775 95.509<236.687 492.436> 249.528 94.5645<182.752 311.629 379.774 477.459> 300.15 43.942<311.629 379.774> 457.173 91.9883<388.173 468.888> 666.391 95.509<236.687 492.436>
LayerCount: 2
Fore
SplineSet
300.15 379.773734375 m 1xfb80
 389.742335938 379.828421875 l 2
 428.346202308 379.85068961 457.17284375 387.576080166 457.17284375 428.147453125 c 0
 457.17284375 468.197388112 428.346199225 477.373470011 389.742335938 477.407890625 c 2
 344.092 477.458671875 l 1
 344.092 182.751953125 l 1
 249.5275 182.751953125 l 1
 249.5275 548.255859375 l 1xfd80
 408.216835938 548.255859375 l 2
 482.374550781 548.255859375 549.161171875 516.958945997 549.161171875 433.168039551 c 0
 549.161171875 362.014040065 488.94075 341.451875 488.94075 341.451875 c 1
 488.94075 341.451875 517.154521961 331.226547537 536.1240625 271.451171875 c 2
 564.2725 182.751953125 l 1
 468.3835 182.751953125 l 1
 445.708 265.251953125 l 2
 433.772557044 308.609604181 420.440601001 311.629453125 385.048 311.629453125 c 2
 300.15 311.629453125 l 1
 300.15 379.773734375 l 1xfb80
131.386484375 364.561523438 m 0
 131.386484375 195.616039391 213.257044817 82.822875 398.888671875 82.822875 c 0
 584.520298933 82.822875 666.390859375 195.616039391 666.390859375 364.561523438 c 0
 666.390859375 533.507007484 584.520298933 646.300171875 398.888671875 646.300171875 c 0
 213.257044817 646.300171875 131.386484375 533.507007484 131.386484375 364.561523438 c 0
35.8775 364.561523438 m 0
 35.8775 591.206054688 173.233947435 739.12109375 398.888671875 739.12109375 c 0
 624.543396315 739.12109375 761.89984375 591.206054688 761.89984375 364.561523438 c 0
 761.89984375 137.916992188 624.543396315 -9.998046875 398.888671875 -9.998046875 c 0
 173.233947435 -9.998046875 35.8775 137.916992188 35.8775 364.561523438 c 0
EndSplineSet
EndChar

StartChar: uni2117
Encoding: 8471 8471 104
Width: 797
Flags: W
HStem: -9.99805 92.8209<280.186 517.591> 288.507 69.5433<315.592 463.039> 476.059 72.1972<353.35 465.275> 646.3 92.8209<280.186 517.591>
VStem: 35.8775 95.509<236.687 492.436> 258.697 94.6522<182.752 288.507 358.05 476.059> 315.592 37.7572<288.507 358.05> 476.517 90.8638<370.225 462.733> 666.391 95.509<236.687 492.436>
LayerCount: 2
Fore
SplineSet
315.592335938 288.506953125 m 1xfb80
 315.592335938 358.050234375 l 1xfb80
 398.836671875 358.104921875 l 2
 443.308700351 358.137680434 476.517179688 368.679008066 476.517179688 416.910703125 c 0
 476.517179688 464.95843095 443.683815789 475.945261316 399.714171875 476.007890625 c 2
 353.349585938 476.058671875 l 1
 353.349585938 182.751953125 l 1
 258.697335938 182.751953125 l 1
 258.697335938 548.255859375 l 1xfd80
 414.214171875 548.255859375 l 2
 494.802668438 548.255859375 567.381007812 512.483966289 567.381007812 416.910703125 c 0
 567.381007812 322.99470945 497.632546605 288.506953125 421.136671875 288.506953125 c 2
 315.592335938 288.506953125 l 1xfb80
131.386484375 364.561523438 m 0
 131.386484375 195.616039391 213.257044817 82.822875 398.888671875 82.822875 c 0
 584.520298933 82.822875 666.390859375 195.616039391 666.390859375 364.561523438 c 0
 666.390859375 533.507007484 584.520298933 646.300171875 398.888671875 646.300171875 c 0
 213.257044817 646.300171875 131.386484375 533.507007484 131.386484375 364.561523438 c 0
35.8775 364.561523438 m 0
 35.8775 591.206054688 173.233947435 739.12109375 398.888671875 739.12109375 c 0
 624.543396315 739.12109375 761.89984375 591.206054688 761.89984375 364.561523438 c 0
 761.89984375 137.916992188 624.543396315 -9.998046875 398.888671875 -9.998046875 c 0
 173.233947435 -9.998046875 35.8775 137.916992188 35.8775 364.561523438 c 0
EndSplineSet
EndChar

StartChar: guillemotleft
Encoding: 171 171 105
Width: 590
Flags: W
LayerCount: 2
Fore
SplineSet
44.1325 280.1225 m 1
 44.1325 280.1225 184.1325 441 184.1325 441 c 1
 184.1325 441 312.42875 441 312.42875 441 c 1
 159.17875 254 l 1
 312.42875 67 l 1
 312.42875 67 184.1325 67 184.1325 67 c 1
 184.1325 67 44.1325 227.8775 44.1325 227.8775 c 1
 44.1325 280.1225 l 1
294.1325 280.1225 m 1
 434.1325 441 l 1
 562.42875 441 l 1
 409.17875 254 l 1
 562.42875 67 l 1
 434.1325 67 l 1
 294.1325 227.8775 l 1
 294.1325 280.1225 l 1
EndSplineSet
EndChar

StartChar: guillemotright
Encoding: 187 187 106
Width: 590
Flags: W
LayerCount: 2
Fore
SplineSet
545.8675 227.8775 m 1
 405.8675 67 l 1
 277.57125 67 l 1
 430.82125 254 l 1
 277.57125 441 l 1
 405.8675 441 l 1
 545.8675 280.1225 l 1
 545.8675 227.8775 l 1
295.8675 227.8775 m 1
 295.8675 227.8775 155.8675 67 155.8675 67 c 1
 155.8675 67 27.57125 67 27.57125 67 c 1
 27.57125 67 180.82125 254 180.82125 254 c 1
 180.82125 254 27.57125 441 27.57125 441 c 1
 27.57125 441 155.8675 441 155.8675 441 c 1
 155.8675 441 295.8675 280.1225 295.8675 280.1225 c 1
 295.8675 227.8775 l 1
EndSplineSet
EndChar

StartChar: mu
Encoding: 181 181 107
Width: 595
Flags: W
HStem: -9.92285 103.512<225.926 359.624> 0 21G<407.595 534.102> 481.011 20G<62.553 189.059 407.595 534.102>
VStem: 62.553 126.506<196.449 501.011> 99.745 89.3145<56.9261 321.011> 407.595 126.507<207.449 501.011>
LayerCount: 2
Fore
SplineSet
62.553 -180 m 1x34
 62.553 501.010742188 l 1x34
 189.0595 501.010742188 l 1
 189.0595 -180 l 1x2c
 62.553 -180 l 1x34
407.59534375 217.010742188 m 9
 464.34034375 207.44921875 l 17
 442.675036273 57.0107421877 383.583070048 -9.9228515625 263.27734375 -9.9228515625 c 0
 161.425092761 -9.9228515625 99.745 56.9260601597 99.745 196.44921875 c 2
 99.745 321.010742188 l 1
 189.0595 321.010742188 l 1
 189.0595 213.44921875 l 2
 189.0595 137.521794945 220.297653279 93.5890625 295.89984375 93.5890625 c 0xac
 372.388194464 93.5890625 407.59534375 143.000497924 407.59534375 217.010742188 c 9
534.10184375 501.010742188 m 1
 534.10184375 0 l 1
 407.59534375 0 l 1x64
 407.59534375 501.010742188 l 1
 534.10184375 501.010742188 l 1
EndSplineSet
EndChar

StartChar: acute
Encoding: 180 180 108
Width: 242
Flags: W
HStem: 529 212.008
VStem: 9.255 223.49
LayerCount: 2
Fore
SplineSet
91.8675 529 m 1
 9.255 549 l 1
 118.01 741.0078125 l 1
 232.745 711.0078125 l 1
 91.8675 529 l 1
EndSplineSet
EndChar

StartChar: macron
Encoding: 175 175 109
Width: 374
Flags: W
HStem: 628.448 102.559<37.3775 336.623>
VStem: 37.3775 299.245<628.448 731.008>
LayerCount: 2
Fore
SplineSet
336.6225 628.4483125 m 1
 37.3775 628.4483125 l 1
 37.3775 731.0078125 l 1
 336.6225 731.0078125 l 1
 336.6225 628.4483125 l 1
EndSplineSet
EndChar

StartChar: uni00AD
Encoding: 173 173 110
Width: 354
Flags: W
HStem: 223.983 111.035<43 311>
VStem: 43 268<223.983 335.017>
LayerCount: 2
Fore
SplineSet
311 223.9825 m 1
 43 223.9825 l 1
 43 335.0175 l 1
 311 335.0175 l 1
 311 223.9825 l 1
EndSplineSet
EndChar

StartChar: logicalnot
Encoding: 172 172 111
Width: 450
Flags: W
HStem: 306.944 102.112<30 304.576>
VStem: 304.576 105.674<165.439 306.944>
LayerCount: 2
Fore
SplineSet
410.25 165.43875 m 1
 304.57625 165.43875 l 1
 304.57625 306.94375 l 1
 30 306.94375 l 1
 30 409.05625 l 1
 410.25 409.05625 l 1
 410.25 165.43875 l 1
EndSplineSet
EndChar

StartChar: minus
Encoding: 8722 8722 112
Width: 450
Flags: W
HStem: 307.207 101.586<30 420>
LayerCount: 2
Fore
SplineSet
420 307.207 m 1
 30 307.207 l 1
 30 408.793 l 1
 420 408.793 l 1
 420 307.207 l 1
EndSplineSet
EndChar

StartChar: notequal
Encoding: 8800 8800 113
Width: 450
Flags: W
HStem: 226.856 92.5513<30 420> 396.593 92.5513<30 420>
LayerCount: 2
Fore
SplineSet
65.588625 108.530273438 m 1
 270.588625 601.403320312 l 1
 378.937875 601.403320312 l 1
 173.937875 108.530273438 l 1
 65.588625 108.530273438 l 1
EndSplineSet
Refer: 52 61 N 1 0 0 1 0 0 2
EndChar

StartChar: partialdiff
Encoding: 8706 8706 114
Width: 620
Flags: W
HStem: -9.99805 112.474<214.836 371.331> 370.428 100.171<225.006 385.146> 620.437 118.556<192.266 374.155>
VStem: 42.3775 126.961<148.187 312.312> 454.09 123.698<413.169 519.757>
LayerCount: 2
Fore
SplineSet
428.843851562 246.890625 m 0
 428.843851562 318.293033257 392.26289034 370.428125 309.766601562 370.428125 c 0
 211.274836869 370.428125 169.338351562 309.852666285 169.338351562 226.890625 c 0
 169.338351562 154.981037844 204.519402914 102.475625 289.766601562 102.475625 c 0
 388.214646918 102.475625 428.843851562 163.421404816 428.843851562 246.890625 c 0
454.089578125 413.168820312 m 1
 448.769573572 547.679204175 395.602700466 620.43653125 289.043129883 620.43653125 c 0
 204.97483202 620.43653125 159.125648438 578.653671875 159.125648438 578.653671875 c 1
 109.741210938 688.860351562 l 1
 109.741210938 688.860351562 172.325600075 738.9921875 295.8671875 738.9921875 c 0
 477.091606778 738.9921875 577.787539062 612.671898034 577.787539062 385.331054688 c 0
 577.787539062 105.516837439 470.271219328 -9.998046875 288.8671875 -9.998046875 c 0
 136.004732141 -9.998046875 42.3775 75.5176128099 42.3775 229 c 0
 42.3775 372.20164401 139.499679477 470.599609375 292.778867188 470.599609375 c 0
 414.91343719 470.599609375 454.089578125 413.168820312 454.089578125 413.168820312 c 1
EndSplineSet
EndChar

StartChar: emptyset
Encoding: 8709 8709 115
Width: 797
Flags: W
HStem: -9.99805 104.46<308.956 518.279> 634.661 104.46<279.498 492.106>
VStem: 35.8775 106.584<236.37 492.753> 655.316 106.584<236.37 492.753>
LayerCount: 2
Fore
SplineSet
142.461132812 364.561523438 m 0
 142.461132812 202.595464615 220.137181705 94.4621171877 398.888671875 94.4621171877 c 0
 577.640162045 94.4621171877 655.316210938 202.595464615 655.316210938 364.561523438 c 0
 655.316210938 526.527582257 577.640162045 634.660929688 398.888671875 634.660929688 c 0
 220.137181705 634.660929688 142.461132812 526.527582257 142.461132812 364.561523438 c 0
35.8775 364.561523438 m 0
 35.8775 591.206054688 173.233947435 739.12109375 398.888671875 739.12109375 c 0
 624.543396315 739.12109375 761.89984375 591.206054688 761.89984375 364.561523438 c 0
 761.89984375 137.916992188 624.543396315 -9.998046875 398.888671875 -9.998046875 c 0
 173.233947435 -9.998046875 35.8775 137.916992188 35.8775 364.561523438 c 0
110.6325 -90.873046875 m 1
 575.6325 812 l 1
 686.3675 812 l 1
 686.3675 812 221.3675 -90.873046875 221.3675 -90.873046875 c 1
 221.3675 -90.873046875 110.6325 -90.873046875 110.6325 -90.873046875 c 1
EndSplineSet
EndChar

StartChar: Delta
Encoding: 8710 8710 116
Width: 719
Flags: W
HStem: 0 126.106<190.818 528.182> 711.008 20G<282.387 426.613>
LayerCount: 2
Fore
SplineSet
676.6225 0 m 1
 42.3775 0 l 1
 42.3775 0 42.3775 116.1065 42.3775 116.1065 c 1
 42.3775 116.1065 282.3875 731.0078125 282.3875 731.0078125 c 1
 426.6125 731.0078125 l 1
 426.6125 731.0078125 676.6225 116.1065 676.6225 116.1065 c 1
 676.6225 116.1065 676.6225 0 676.6225 0 c 1
528.18225 126.1065 m 1
 528.18225 126.1065 355.393554688 578.955976562 355.393554688 578.955976562 c 1
 355.393554688 578.955976562 190.81775 126.1065 190.81775 126.1065 c 1
 190.81775 126.1065 528.18225 126.1065 528.18225 126.1065 c 1
EndSplineSet
EndChar

StartChar: plusminus
Encoding: 177 177 117
Width: 450
Flags: W
HStem: 151.39 92.4635<30 174.207 275.793 420> 161.64 82.2135<174.207 275.793> 340.918 101.586<30 420>
VStem: 174.207 101.586<161.64 562.062>
LayerCount: 2
Fore
SplineSet
420 151.38975 m 1xb0
 30 151.38975 l 1
 30 243.85325 l 1
 420 243.85325 l 1
 420 151.38975 l 1xb0
174.207 161.63975 m 1x70
 174.207 562.06225 l 1
 275.793 562.06225 l 1
 275.793 161.63975 l 1
 174.207 161.63975 l 1x70
420 340.91825 m 1
 30 340.91825 l 1
 30 442.50425 l 1
 420 442.50425 l 1
 420 340.91825 l 1
EndSplineSet
EndChar

StartChar: degree
Encoding: 176 176 118
Width: 431
Flags: W
HStem: 401.825 91.5889<156.209 274.596> 669.226 91.7764<156.225 274.612>
VStem: 34.1275 100.174<515.409 647.484> 297.476 100.174<516.105 646.795>
LayerCount: 2
Fore
SplineSet
134.301109375 581.731992188 m 0
 134.301109375 528.772285172 158.406388866 493.414179688 214.786132812 493.414179688 c 0
 272.710883815 493.414179688 297.476234375 528.772285172 297.476234375 581.731992188 c 0
 297.476234375 634.197828598 272.748076053 669.225585938 214.909179688 669.225585938 c 0
 158.443583612 669.225585938 134.301109375 634.197828598 134.301109375 581.731992188 c 0
34.1275 581.507382812 m 0
 34.1275 690.119222721 102.523671261 761.001953125 214.888671875 761.001953125 c 0
 328.496837457 761.001953125 397.64984375 690.119222721 397.64984375 581.507382812 c 0
 397.64984375 472.782722371 328.496837457 401.8253125 214.888671875 401.8253125 c 0
 102.523671261 401.8253125 34.1275 472.782722371 34.1275 581.507382812 c 0
EndSplineSet
EndChar

StartChar: cedilla
Encoding: 184 184 120
Width: 317
VWidth: 999
Flags: W
HStem: -253.684 72.3675<47.967 186.173> -89.149 65.9553<136.431 188.582> -89.149 55.4507<136.75 180.727>
VStem: 193.369 91.8758<-172.431 -93.7648>
LayerCount: 2
Fore
SplineSet
285.245 -131.43875 m 0xb0
 285.245 -209.291762932 236.545739165 -253.68375 145.8245 -253.68375 c 0
 86.0811399355 -253.68375 33.98775 -230.15725 33.98775 -230.15725 c 1
 53.91225 -159.78975 l 1
 53.91225 -159.78975 83.3517963481 -181.31625 130.78975 -181.31625 c 0
 177.339873677 -181.31625 193.36925 -162.652381894 193.36925 -133.03875 c 0
 193.36925 -103.204898438 176.061161558 -89.149 147.93975 -89.149 c 0xd0
 115.509884472 -89.149 104.21025 -110.56125 104.21025 -110.56125 c 1
 47.8775 -92 l 1
 69.8775 39 l 1
 148.35625 39 l 1
 148.35625 39 136.102851562 -33.698265625 136.102851562 -33.698265625 c 1
 136.102851562 -33.698265625 148.500990099 -23.19375 182.295 -23.19375 c 0
 246.073869508 -23.19375 285.245 -64.054699929 285.245 -131.43875 c 0xb0
EndSplineSet
EndChar

StartChar: paragraph
Encoding: 182 182 121
Width: 682
Flags: W
HStem: 626.78 104.212<403.256 495.021>
VStem: 36.5 366.756<393.753 606.792> 286.899 116.358<-179.994 283.738> 495.021 116.358<-179.994 626.78>
LayerCount: 2
Fore
SplineSet
403.256171875 -179.994140625 m 1xb0
 286.898671875 -179.994140625 l 1
 286.898671875 282.2024375 l 1xb0
 145.168423166 291.3249375 36.5 337.465699025 36.5 500.310117188 c 0xd0
 36.5 667.274604217 148.5 730.9921875 290.388671875 730.9921875 c 2
 611.378671875 730.9921875 l 1
 611.378671875 -179.994140625 l 1
 495.021171875 -179.994140625 l 1
 495.021171875 626.7796875 l 1
 403.256171875 626.7796875 l 1
 403.256171875 -179.994140625 l 1xb0
EndSplineSet
EndChar

StartChar: ordfeminine
Encoding: 170 170 122
Width: 402
Flags: W
HStem: 369.992 73.6165<126.962 233.338 301.68 385.095> 533.657 61.495<135.732 258.983> 660.663 78.3288<89.2992 229.529>
VStem: 27.3775 94.888<449.895 519.065> 246.106 93.039<457.984 486.992 586.442 644.654> 246.106 35.7715<414.762 481.918> 246.106 12.8775<533.657 595.152>
LayerCount: 2
Fore
SplineSet
246.106 496.7421875 m 1xf2
 246.106 464.614954942 217.594203704 443.6086875 176.1225 443.6086875 c 0
 138.02852439 443.6086875 122.2655 459.443268145 122.2655 484.5146875 c 0
 122.2655 524.153087167 155.486696261 533.6574375 258.9835 533.6574375 c 1
 258.9835 595.1524375 l 1xf2
 123.966549327 595.1524375 27.3775 578.412098517 27.3775 475.9921875 c 0
 27.3775 411.9921875 73.3775 369.9921875 147.3775 369.9921875 c 0
 238.79546875 369.9921875 281.8775 414.7623875 281.8775 481.9176875 c 1xf4
 246.106 496.7421875 l 1xf2
246.106 586.4421875 m 2xf8
 246.106 459.9921875 l 2
 246.106 398.9921875 273.670853723 369.9921875 329.68975 369.9921875 c 0
 370.267665493 369.9921875 389.71125 386.4656875 389.71125 386.4656875 c 1
 383.71125 451.8331875 l 1
 383.71125 451.8331875 375.449223684 447.7454375 361.28575 447.7454375 c 0
 345.470928571 447.7454375 339.145 457.983720108 339.145 486.9921875 c 2
 339.145 595.9921875 l 2
 339.145 682.197861259 294.15865625 738.9921875 186 738.9921875 c 0
 107.009641072 738.9921875 52.76325 706.2554375 52.76325 706.2554375 c 1
 79.53475 633.3256875 l 1
 79.53475 633.3256875 116.876577586 660.6634375 169.7775 660.6634375 c 0
 222.715008064 660.6634375 246.106 637.918215726 246.106 586.4421875 c 2xf8
EndSplineSet
EndChar

StartChar: ordmasculine
Encoding: 186 186 123
Width: 418
Flags: W
HStem: 367.992 86.29<151.125 267.302> 652.702 86.29<151.125 267.053>
VStem: 30.3775 94.888<481.451 627.157> 292.735 94.888<481.451 627.157>
LayerCount: 2
Fore
SplineSet
125.2655 554.9921875 m 0
 125.2655 493.749619932 150.731278571 454.2821875 209 454.2821875 c 0
 268.464928572 454.2821875 292.7345 493.749619932 292.7345 554.9921875 c 0
 292.7345 612.79246919 267.268721429 652.7021875 209 652.7021875 c 0
 150.731278571 652.7021875 125.2655 612.79246919 125.2655 554.9921875 c 0
30.3775 555.9921875 m 0
 30.3775 667.025895365 98.5613575267 738.9921875 209 738.9921875 c 0
 320.398978494 738.9921875 387.6225 667.025895365 387.6225 555.9921875 c 0
 387.6225 441.959400615 320.398978494 367.9921875 209 367.9921875 c 0
 98.5613575267 367.9921875 30.3775 441.959400615 30.3775 555.9921875 c 0
EndSplineSet
EndChar

StartChar: arrowleft
Encoding: 8592 8592 124
Width: 550
Flags: W
HStem: 298.948 119.384<240.479 537.749> 308.597 100.086<127.984 425.254>
LayerCount: 2
Fore
SplineSet
537.749023438 298.947648438 m 1x80
 127.984023438 308.596648438 l 1
 127.984023438 408.682648438 l 1x40
 537.749023438 418.331648438 l 1
 537.749023438 298.947648438 l 1x80
139.296523438 358.638671875 m 1
 308.716132812 206.4929375 l 1
 226.002492188 123.779296875 l 1
 12.2509765625 358.638671875 l 1
 226.002492188 593.5 l 1
 308.716132812 510.78440625 l 1
 139.296523438 358.638671875 l 1
EndSplineSet
EndChar

StartChar: product
Encoding: 8719 8719 128
Width: 719
Flags: W
HStem: 613.462 117.546<198.358 520.643>
VStem: 62.3775 135.98<-179.994 613.462> 520.643 135.98<-179.994 613.462>
LayerCount: 2
Fore
SplineSet
656.6225 731.0078125 m 1
 656.6225 -179.994140625 l 1
 520.6425 -179.994140625 l 1
 520.6425 613.4615625 l 1
 198.3575 613.4615625 l 1
 198.3575 -179.994140625 l 1
 62.3775 -179.994140625 l 1
 62.3775 731.0078125 l 1
 656.6225 731.0078125 l 1
EndSplineSet
EndChar

StartChar: summation
Encoding: 8721 8721 129
Width: 634
Flags: W
HStem: -179.994 116.984<209.979 596.622> 614.024 116.984<229.277 596.622>
LayerCount: 2
Back
SplineSet
264 585.0078125 m 5
 394 410 l 5
 394 319 l 5
 244 146 l 5
 544 146 l 5
 544 0 l 5
 55 0 l 5
 55 161 l 5
 235 358 l 5
 55 589 l 5
 55 731.0078125 l 5
 544 731.0078125 l 5
 544 585.0078125 l 5
 264 585.0078125 l 5
EndSplineSet
Fore
SplineSet
229.277 614.0238125 m 1
 429.6645 326.841 l 1
 429.6645 241.106 l 1
 429.6645 241.106 209.979 -63.010140625 209.979 -63.010140625 c 1
 209.979 -63.010140625 596.6225 -63.010140625 596.6225 -63.010140625 c 1
 596.6225 -63.010140625 596.6225 -179.994140625 596.6225 -179.994140625 c 1
 62.3775 -179.994140625 l 1
 62.3775 -179.994140625 62.3775 -48.010140625 62.3775 -48.010140625 c 1
 62.3775 -48.010140625 303.6325 278 303.6325 278 c 1
 62.3775 618.016 l 1
 62.3775 731.0078125 l 1
 596.6225 731.0078125 l 1
 596.6225 614.0238125 l 1
 229.277 614.0238125 l 1
EndSplineSet
EndChar

StartChar: approxequal
Encoding: 8776 8776 130
Width: 450
VWidth: 999
Flags: W
HStem: 192.633 99.8757<237.961 368.37> 241.633 98.8757<86.0051 211.414> 382.281 99.9635<239.224 368.439> 431.281 98.9635<86.1806 211.589>
LayerCount: 2
Fore
SplineSet
437.1225 256.755 m 1x80
 437.1225 256.755 385.187929688 192.6325 305.1225 192.6325 c 0x80
 227.584414062 192.6325 201.737734375 241.6325 145.1225 241.6325 c 0
 102.110905797 241.6325 67.0225 204.207 67.0225 204.207 c 1
 12.8775 287.00825 l 1
 12.8775 287.00825 69.4598023571 340.50825 143.1225 340.50825 c 0x40
 220.360116272 340.50825 252.750116272 292.50825 305.0725 292.50825 c 0
 356.2296 292.50825 382.403 326.6715 382.403 326.6715 c 1
 382.403 326.6715 437.1225 256.755 437.1225 256.755 c 1x80
437.1225 447.19375 m 1
 437.1225 447.19375 385.187929688 382.2815 305.1225 382.2815 c 0x20
 227.584414062 382.2815 201.737734375 431.2815 145.1225 431.2815 c 0
 102.110905797 431.2815 67.0225 394.0315 67.0225 394.0315 c 1
 13.2285 476.745 l 1
 13.2285 476.745 69.8108023571 530.245 143.4735 530.245 c 0x10
 220.711116272 530.245 253.101116272 482.245 305.4235 482.245 c 0x20
 356.29035 482.245 382.31525 516.93475 382.31525 516.93475 c 1
 437.1225 447.19375 l 1
EndSplineSet
EndChar

StartChar: perthousand
Encoding: 8240 8240 131
Width: 1263
Flags: W
HStem: -9.99805 96.055<665.691 787.035 970.386 1091.87> 0 21G<190.382 301.118> 272.798 96.054<663.259 787.035 968.095 1091.87> 360.143 96.054<173.384 290.106> 642.937 96.055<173.384 290.106> 711.008 20G<642.174 765.618>
VStem: 42.3775 105.496<480.833 617.082> 317.197 103.386<483.765 616.33> 533.378 104.496<113.625 246.19> 813.468 129.134<112.601 248.047> 850.128 54.705<76.0066 284.052> 1118.2 103.386<113.625 246.19>
LayerCount: 2
Fore
SplineSet
942.60215625 179.981445312 m 0xa3d0
 942.60215625 112.600547939 981.900796875 86.0569765623 1029.93246875 86.0569765623 c 0
 1077.2940616 86.0569765623 1118.19665625 112.600547939 1118.19665625 179.981445312 c 0
 1118.19665625 248.047178648 1077.2940616 272.797515625 1029.93246875 272.797515625 c 0
 981.900796875 272.797515625 942.60215625 248.047178648 942.60215625 179.981445312 c 0xa3d0
850.1275 179.981445312 m 0xa3b0
 850.1275 284.052175638 919.124198905 368.8515625 1039.23046875 368.8515625 c 0
 1161.25938485 368.8515625 1221.58246094 284.052175638 1221.58246094 179.981445312 c 0
 1221.58246094 76.006635684 1161.25938485 -9.998046875 1039.23046875 -9.998046875 c 0
 919.124198905 -9.998046875 850.1275 76.006635684 850.1275 179.981445312 c 0xa3b0
637.87365625 179.981445312 m 0
 637.87365625 112.600283584 677.092827183 86.0569765623 725.02846875 86.0569765623 c 0
 772.484151809 86.0569765623 813.46815625 112.600283584 813.46815625 179.981445312 c 0xa3d0
 813.46815625 248.047036918 772.484151809 272.797515625 725.02846875 272.797515625 c 0
 677.092827183 272.797515625 637.87365625 248.047036918 637.87365625 179.981445312 c 0
533.3775 179.981445312 m 0
 533.3775 284.052592232 593.700583239 368.8515625 715.73046875 368.8515625 c 0
 835.835775411 368.8515625 904.832460938 284.052175638 904.832460938 179.981445312 c 0xa3b0
 904.832460938 76.006635684 835.835775411 -9.998046875 715.73046875 -9.998046875 c 0
 593.700583239 -9.998046875 533.3775 76.0063373081 533.3775 179.981445312 c 0
147.87365625 550.122070312 m 0
 147.87365625 482.741054878 185.934997322 456.196625 231.48046875 456.196625 c 0
 277.036004144 456.196625 317.19665625 482.741054878 317.19665625 550.122070312 c 0
 317.19665625 618.186630189 277.036004144 642.937164062 231.48046875 642.937164062 c 0x1b90
 185.934997322 642.937164062 147.87365625 618.186630189 147.87365625 550.122070312 c 0
42.3775 550.122070312 m 0
 42.3775 654.193217232 111.374395314 738.9921875 231.48046875 738.9921875 c 0
 351.585560612 738.9921875 420.582460938 654.193217232 420.582460938 550.122070312 c 0
 420.582460938 446.146962308 351.585560612 360.142578125 231.48046875 360.142578125 c 0
 111.374395314 360.142578125 42.3775 446.146962308 42.3775 550.122070312 c 0
EndSplineSet
Refer: 138 8260 N 1 0 0 1 301 0 2
EndChar

StartChar: uni2031
Encoding: 8241 8241 132
Width: 1573
Flags: W
HStem: -9.99805 96.055<665.691 787.035 972.483 1092.65 1280.39 1401.87> 0 21G<190.382 301.118> 272.798 96.054<663.259 787.035 972.483 1095.02 1278.1 1401.87> 360.143 96.054<173.368 290.122> 642.937 96.055<173.368 290.122> 711.008 20G<642.174 765.618>
VStem: 42.3775 105.496<480.833 619.238> 317.197 103.386<483.765 616.33> 533.378 104.496<113.625 246.19> 813.468 131.682<112.601 248.047> 847.404 57.4285<76.0066 284.052> 1120.92 131.682<112.601 248.047> 1160.13 57.4285<76.0066 284.052> 1428.2 103.386<113.625 246.19>
LayerCount: 2
Fore
SplineSet
1252.60215625 179.981445312 m 0xa394
 1252.60215625 112.600547939 1291.90079688 86.0569765623 1339.93246875 86.0569765623 c 0
 1387.2940616 86.0569765623 1428.19665625 112.600547939 1428.19665625 179.981445312 c 0
 1428.19665625 248.047178648 1387.2940616 272.797515625 1339.93246875 272.797515625 c 0
 1291.90079688 272.797515625 1252.60215625 248.047178648 1252.60215625 179.981445312 c 0xa394
1160.1275 179.981445312 m 0xa38c
 1160.1275 284.052175638 1229.1241989 368.8515625 1349.23046875 368.8515625 c 0
 1471.25938485 368.8515625 1531.58246094 284.052175638 1531.58246094 179.981445312 c 0
 1531.58246094 76.006635684 1471.25938485 -9.998046875 1349.23046875 -9.998046875 c 0
 1229.1241989 -9.998046875 1160.1275 76.006635684 1160.1275 179.981445312 c 0xa38c
945.15015625 179.981445312 m 0xa3d4
 945.15015625 112.600547939 984.448796875 86.0569765623 1032.48046875 86.0569765623 c 0
 1079.93623297 86.0569765623 1120.92015625 112.600547939 1120.92015625 179.981445312 c 0
 1120.92015625 248.047178648 1079.93623297 272.797515625 1032.48046875 272.797515625 c 0
 984.448796875 272.797515625 945.15015625 248.047178648 945.15015625 179.981445312 c 0xa3d4
847.404 179.981445312 m 0xa3ac
 847.404 284.052175638 908.62802781 368.8515625 1032.48046875 368.8515625 c 0
 1156.33193556 368.8515625 1217.55596094 284.052175638 1217.55596094 179.981445312 c 0
 1217.55596094 76.006635684 1156.33193556 -9.998046875 1032.48046875 -9.998046875 c 0
 908.62802781 -9.998046875 847.404 76.006635684 847.404 179.981445312 c 0xa3ac
637.87365625 179.981445312 m 0
 637.87365625 112.600283584 677.092827183 86.0569765623 725.02846875 86.0569765623 c 0
 772.484151809 86.0569765623 813.46815625 112.600283584 813.46815625 179.981445312 c 0xa3c4
 813.46815625 248.047036918 772.484151809 272.797515625 725.02846875 272.797515625 c 0
 677.092827183 272.797515625 637.87365625 248.047036918 637.87365625 179.981445312 c 0
533.3775 179.981445312 m 0
 533.3775 284.052592232 593.700583239 368.8515625 715.73046875 368.8515625 c 0
 835.835775411 368.8515625 904.832460938 284.052175638 904.832460938 179.981445312 c 0xa3a4
 904.832460938 76.006635684 835.835775411 -9.998046875 715.73046875 -9.998046875 c 0
 593.700583239 -9.998046875 533.3775 76.0063373081 533.3775 179.981445312 c 0
147.87365625 550.122070312 m 0
 147.87365625 482.741054878 185.847247322 456.196625 231.48046875 456.196625 c 0
 277.123754144 456.196625 317.19665625 482.741054878 317.19665625 550.122070312 c 0
 317.19665625 618.186630189 277.123754144 642.937164062 231.48046875 642.937164062 c 0x1b84
 185.847247322 642.937164062 147.87365625 618.186630189 147.87365625 550.122070312 c 0
42.3775 550.122070312 m 0
 42.3775 654.193217232 111.374395314 738.9921875 231.48046875 738.9921875 c 0
 351.585560612 738.9921875 420.582460938 654.193217232 420.582460938 550.122070312 c 0
 420.582460938 446.146962308 351.585560612 360.142578125 231.48046875 360.142578125 c 0
 111.374395314 360.142578125 42.3775 446.146962308 42.3775 550.122070312 c 0
EndSplineSet
Refer: 138 8260 N 1 0 0 1 301 0 2
EndChar

StartChar: uni203D
Encoding: 8253 8253 133
Width: 566
Flags: W
HStem: -10 155.184<182.021 293.979> 291.158 102.889<227.346 350.818> 621.946 117.047<120.644 369.404>
VStem: 161.019 153.962<11.1684 124.015> 175.983 126.033<547.821 791.008> 192.506 92.988<217 460.187> 393.738 130.754<435.547 572.157>
LayerCount: 2
Fore
SplineSet
192.506 217 m 1xe6
 175.9835 791.0078125 l 1
 302.0165 791.0078125 l 1xea
 285.494 217 l 1
 192.506 217 l 1xe6
161.01921875 67.592109375 m 0xf2
 161.01921875 114.598319903 191.363069215 145.18421875 237.999023438 145.18421875 c 0
 284.635989108 145.18421875 314.98078125 114.598319903 314.98078125 67.592109375 c 0
 314.98078125 20.5850860413 284.635989108 -10 237.999023438 -10 c 0
 191.363069215 -10 161.01921875 20.5850860413 161.01921875 67.592109375 c 0xf2
213.300351562 301.5 m 1
 221.53375 398.9935 l 1
 221.53375 398.9935 237.828198946 394.047078125 258.2859375 394.047078125 c 0
 347.863914846 394.047078125 393.738203125 431.645588073 393.738203125 501.745507812 c 0
 393.738203125 585.108600597 331.871247735 621.945515625 229.45878125 621.945515625 c 0
 138.247168522 621.945515625 63.007578125 573.100507812 63.007578125 573.100507812 c 1
 21.1187109375 688.811523438 l 1
 21.1187109375 688.811523438 101.5968125 738.9921875 230.77203125 738.9921875 c 0
 406.937132261 738.9921875 524.492617188 664.363007144 524.492617188 503.610742188 c 0
 524.492617188 360.444345894 407.909545557 291.1578125 281.855 291.1578125 c 0
 233.146825413 291.1578125 213.300351562 301.5 213.300351562 301.5 c 1
EndSplineSet
EndChar

StartChar: lira
Encoding: 8356 8356 134
Width: 553
Flags: W
HStem: 0 116.072<187.299 523> 216.755 82.49<56.5 424> 346.755 82.49<56.5 424> 621.075 118.387<238.874 449.027>
VStem: 64.9791 140.609<445.873 588.022> 144.202 123.765<186.28 345.693>
LayerCount: 2
Fore
SplineSet
523 0 m 1xf4
 30 0 l 1
 30 106.47175 l 1
 30 106.47175 144.20171875 184.249543374 144.20171875 296.379882812 c 0xf4
 144.20171875 395.813097549 64.9790625 421.6709125 64.9790625 547.185546875 c 0
 64.9790625 671.398535433 165.332329771 739.461914062 308.43109375 739.461914062 c 0
 441.421882735 739.461914062 500.82953125 702.352273438 500.82953125 702.352273438 c 1
 474.9375 588.161914062 l 1
 474.9375 588.161914062 414.372633731 621.07484375 334.12609375 621.07484375 c 0
 263.256749643 621.07484375 205.587578125 604.633200846 205.587578125 523.926271728 c 0xf8
 205.587578125 441.637971264 267.966445312 409.067898623 267.966445312 300.658203125 c 0
 267.966445312 186.279890066 187.299335938 116.07175 187.299335938 116.07175 c 1
 523 116.07175 l 1
 523 0 l 1xf4
424 216.755 m 1
 56.5 216.755 l 1
 56.5 299.245 l 1
 424 299.245 l 1
 424 216.755 l 1
424 346.755 m 1
 56.5 346.755 l 1
 56.5 429.245 l 1
 424 429.245 l 1
 424 346.755 l 1
EndSplineSet
EndChar

StartChar: uni20B5
Encoding: 8373 8373 135
Width: 623
Flags: W
HStem: -9.99805 73.3253<320.194 428.806> 661.143 77.9786<320.194 428.806>
VStem: 42.3775 135.065<234.854 494.36> 320.194 108.612<-105 63.3272 661.143 829.47>
LayerCount: 2
Fore
SplineSet
42.3775 364.561523438 m 0
 42.3775 591.206054688 166.798207007 739.12109375 385.888671875 739.12109375 c 0
 536.775981664 739.12109375 598.804140625 672.891601562 598.804140625 672.891601562 c 1
 546.43496875 566.754671875 l 1
 546.43496875 566.754671875 495.487094397 618.626179688 392.186671875 618.626179688 c 0
 241.757623572 618.626179688 177.442578125 516.91228803 177.442578125 364.561523438 c 0
 177.442578125 212.421237227 242.910983535 110.847867188 396.037671875 110.847867188 c 0
 505.447796298 110.847867188 563.396054688 156.804203125 563.396054688 156.804203125 c 1
 601.949648438 44.595703125 l 1
 601.949648438 44.595703125 535.951869581 -9.998046875 385.888671875 -9.998046875 c 0
 166.798207007 -9.998046875 42.3775 137.916992188 42.3775 364.561523438 c 0
320.19375 -105 m 1
 320.19375 -105 320.19375 63.3272265625 320.19375 63.3272265625 c 1
 320.19375 63.3272265625 428.80625 63.3272265625 428.80625 63.3272265625 c 1
 428.80625 63.3272265625 428.80625 -105 428.80625 -105 c 1
 320.19375 -105 l 1
320.19375 661.1425 m 1
 320.19375 829.469726562 l 1
 428.80625 829.469726562 l 1
 428.80625 661.1425 l 1
 320.19375 661.1425 l 1
EndSplineSet
EndChar

StartChar: uni20B2
Encoding: 8370 8370 136
Width: 739
Flags: W
HStem: -9.99805 74.466<320.194 428.806> 295.783 112.322<379 501.655 626.072 707.5> 295.783 24.4457<501.655 626.072> 659.826 79.2948<320.194 428.806>
VStem: 42.3775 133.315<227.711 493.854> 320.194 108.612<-105 64.468 659.826 829.47> 521.772 125.583<162.794 295.14>
LayerCount: 2
Fore
SplineSet
320.19375 -105 m 1x9e
 320.19375 64.4679765625 l 1
 428.80625 64.4679765625 l 1
 428.80625 -105 l 1
 320.19375 -105 l 1x9e
320.19375 659.82625 m 1
 320.19375 829.469726562 l 1
 428.80625 829.469726562 l 1
 428.80625 659.82625 l 1
 320.19375 659.82625 l 1
707.5 295.7825 m 1xde
 379 295.7825 l 1
 379 408.10425 l 1
 707.5 408.10425 l 1
 707.5 295.7825 l 1xde
42.3775 364.561523438 m 0
 42.3775 591.206054688 169.706856979 739.12109375 378.888671875 739.12109375 c 0
 530.13006212 739.12109375 592.304140625 672.891601562 592.304140625 672.891601562 c 1
 545.08296875 565.067921875 l 1
 545.08296875 565.067921875 490.506582141 616.675976562 379.849023438 616.675976562 c 0
 237.870306859 616.675976562 175.692578125 515.742841868 175.692578125 364.561523438 c 0
 175.692578125 212.315998035 228.818026117 110.672367188 369.888671875 110.672367188 c 0
 478.361075808 110.672367188 521.771945312 161.773832248 521.771945312 238.4735 c 0
 521.771945312 295.652984657 501.655054688 320.228203125 501.655054688 320.228203125 c 1
 626.072148438 320.228203125 l 1xbe
 626.072148438 320.228203125 647.354921875 297.220700071 647.354921875 222 c 0
 647.354921875 93.0859042083 558.056523437 -9.998046875 369.888671875 -9.998046875 c 0
 161.28027291 -9.998046875 42.3775 137.916992188 42.3775 364.561523438 c 0
EndSplineSet
EndChar

StartChar: uni20BA
Encoding: 8378 8378 137
Width: 648
Flags: W
HStem: 0 117.985<238.358 391.535> 711.008 20G<102.377 238.358>
VStem: 102.377 135.98<117.985 731.008>
LayerCount: 2
Fore
SplineSet
377.1225 353.3295 m 1
 37.3775 249.8295 l 1
 37.3775 332.6705 l 1
 377.1225 436.1705 l 1
 377.1225 353.3295 l 1
377.1225 483.3295 m 1
 37.3775 379.8295 l 1
 37.3775 462.6705 l 1
 377.1225 566.1705 l 1
 377.1225 483.3295 l 1
238.3575 117.985 m 1
 300 117.985 l 2
 488.511114131 117.985 492.25175 313.24 492.25175 313.24 c 1
 619.8725 294.6675 l 1
 619.8725 294.6675 610.796869653 -3.70902822344e-14 300 0 c 2
 102.3775 0 l 1
 102.3775 731.0078125 l 1
 238.3575 731.0078125 l 1
 238.3575 117.985 l 1
EndSplineSet
EndChar

StartChar: fraction
Encoding: 8260 8260 138
Width: 304
Flags: W
HStem: 0 21G<-110.618 0.117627> 711.008 20G<341.174 464.618>
LayerCount: 2
Fore
SplineSet
-110.617626953 0 m 1
 353.882373047 731.0078125 l 1
 464.617626953 731.0078125 l 1
 464.617626953 731.0078125 0.117626953125 0 0.117626953125 0 c 1
 0.117626953125 0 -110.617626953 0 -110.617626953 0 c 1
EndSplineSet
EndChar

StartChar: endash
Encoding: 8211 8211 139
Width: 570
Flags: W
HStem: 223.983 111.035<37.3775 532.622>
LayerCount: 2
Fore
SplineSet
37.3775 223.9825 m 1
 37.3775 335.0175 l 1
 532.6225 335.0175 l 1
 532.6225 223.9825 l 1
 37.3775 223.9825 l 1
EndSplineSet
EndChar

StartChar: emdash
Encoding: 8212 8212 140
Width: 820
Flags: W
HStem: 223.983 111.035<24.3775 795.622>
LayerCount: 2
Fore
SplineSet
24.3775 223.9825 m 1
 24.3775 335.0175 l 1
 795.6225 335.0175 l 1
 795.6225 223.9825 l 1
 24.3775 223.9825 l 1
EndSplineSet
EndChar

StartChar: Euro
Encoding: 8364 8364 141
Width: 683
Flags: W
HStem: -9.99805 120.495<357.165 577.837> 261.755 82.49<36.5 441.694> 391.755 82.49<36.5 465.493> 618.977 120.144<348.421 556.655>
VStem: 102.377 134.626<296.061 385.626>
LayerCount: 2
Fore
SplineSet
441.69378125 261.755 m 1
 36.5 261.755 l 1
 36.5 344.245 l 1
 456.85784375 344.245 l 1
 441.69378125 261.755 l 1
465.49315625 391.755 m 1
 36.5 391.755 l 1
 36.5 474.245 l 1
 480.65721875 474.245 l 1
 465.49315625 391.755 l 1
102.3775 364.561523438 m 0
 102.3775 591.206054688 226.798124089 739.12109375 445.888671875 739.12109375 c 0
 596.775602496 739.12109375 658.804140625 672.891601562 658.804140625 672.891601562 c 1
 606.43496875 567.105671875 l 1
 606.43496875 567.105671875 553.397680137 618.977001953 445.862451172 618.977001953 c 0
 299.55595098 618.977001953 237.003955078 517.122659835 237.003955078 364.561523438 c 0
 237.003955078 212.210758842 304.444967255 110.496867188 462.186671875 110.496867188 c 0
 567.576660502 110.496867188 623.396054688 156.453203125 623.396054688 156.453203125 c 1
 661.949648438 44.595703125 l 1
 661.949648438 44.595703125 595.952062962 -9.998046875 445.888671875 -9.998046875 c 0
 226.798124089 -9.998046875 102.3775 137.916992188 102.3775 364.561523438 c 0
EndSplineSet
EndChar

StartChar: uni20AD
Encoding: 8365 8365 142
Width: 665
Flags: W
HStem: 0 21G<98.3775 234.358 464.588 647.622> 303.869 103.262<24.3775 606.622> 711.008 20G<98.3775 234.358 462.695 637.622>
VStem: 98.3775 135.98<0 313.369 398.631 731.008> 227.028 7.32925<313.369 398.631>
LayerCount: 2
Fore
SplineSet
606.6225 303.86925 m 1xe0
 24.3775 303.86925 l 1
 24.3775 407.13075 l 1
 606.6225 407.13075 l 1
 606.6225 303.86925 l 1xe0
480.78325 0 m 1
 227.02825 313.36925 l 1
 227.02825 398.63075 l 1xe8
 477.78325 731.0078125 l 1
 637.6225 731.0078125 l 1
 345.5 371.03475 l 1
 647.6225 0 l 1
 480.78325 0 l 1
98.3775 0 m 1xf0
 98.3775 731.0078125 l 1
 234.3575 731.0078125 l 1
 234.3575 0 l 1
 98.3775 0 l 1xf0
EndSplineSet
EndChar

StartChar: uni20B9
Encoding: 8377 8377 143
Width: 574
Flags: W
HStem: 0 21G<352.934 498.5> 269.033 116.149<37.3775 267.049> 451.755 82.49<37.3775 536.622> 612.541 118.467<37.3775 275.442>
VStem: 322.449 136.829<397.216 569.527>
LayerCount: 2
Fore
SplineSet
149.265 269.0325 m 2
 37.3775 269.0325 l 1
 37.3775 385.1813125 l 1
 166.888671875 385.291664062 l 2
 255.714408737 385.364950331 322.448710938 405.445859701 322.448710938 497.377773438 c 0
 322.448710938 590.924049816 255.620699104 612.369882748 167.888671875 612.437398438 c 2
 37.3775 612.540914062 l 1
 37.3775 731.0078125 l 1
 183.888671875 731.0078125 l 2
 328.584738129 731.0078125 459.27734375 669.573948857 459.27734375 505.439023438 c 0
 459.27734375 368.494704413 340.933476562 330.837617188 340.933476562 330.837617188 c 1
 340.933476562 330.837617188 405.647558468 314.664773247 437.770081543 206.30128833 c 2
 437.770081543 206.30128833 498.5 0 498.5 0 c 1
 358.52 0 l 1
 313.603293945 160.808052246 l 2
 286.501263546 255.728806697 261.640595606 269.0325 149.265 269.0325 c 2
536.6225 451.755 m 1
 37.3775 451.755 l 1
 37.3775 534.245 l 1
 536.6225 534.245 l 1
 536.6225 451.755 l 1
EndSplineSet
EndChar

StartChar: uni20B4
Encoding: 8372 8372 144
Width: 677
Flags: W
HStem: -10 117.608<256.007 490.027> 256.755 82.49<37.3775 639.622> 386.755 82.49<37.3775 639.622> 620.513 118.608<188.899 403.437>
VStem: 83.8775 131.301<142.511 255.992> 442.874 136.642<473.81 585.224>
LayerCount: 2
Fore
SplineSet
639.6225 256.755 m 1
 37.3775 256.755 l 1
 37.3775 339.245 l 1
 639.6225 339.245 l 1
 639.6225 256.755 l 1
639.6225 386.755 m 1
 37.3775 386.755 l 1
 37.3775 469.245 l 1
 639.6225 469.245 l 1
 639.6225 386.755 l 1
349.625916015 305.11028125 m 0
 233.607938306 274.594243217 215.178890625 246.927402216 215.178890625 196.88575 c 0
 215.178890625 137.923644813 264.984998314 107.608164062 367.155992188 107.608164062 c 0
 471.642087653 107.608164062 556.546875 156.690921875 556.546875 156.690921875 c 1
 591.948125 42.2294921875 l 1
 591.948125 42.2294921875 495.662301935 -10 343.59234375 -10 c 0
 174.298739699 -10 83.8775 72.9999203354 83.8775 206.48475 c 0
 83.8775 318.493951903 138.988024639 377.424159482 311.785710938 425.696554688 c 0
 414.725670928 454.66653632 442.873554688 477.437217968 442.873554688 530.202 c 0
 442.873554688 586.383709531 399.685354194 620.512929688 303.646 620.512929688 c 0
 209.899633263 620.512929688 146.2974375 577.992421875 146.2974375 577.992421875 c 1
 106.029414062 688.891601562 l 1
 106.029414062 688.891601562 175.1525974 739.12109375 317.286132812 739.12109375 c 0
 480.292904292 739.12109375 579.515078125 653.786735929 579.515078125 521.26725 c 0
 579.515078125 413.866094741 520.604409908 350.299604849 349.625916015 305.11028125 c 0
EndSplineSet
EndChar

StartChar: colonmonetary
Encoding: 8353 8353 145
Width: 623
Flags: W
HStem: -9.99805 76.8353<173.212 261.325 326.01 413.045> 660.265 78.8561<275.755 363.867 429.255 517.367>
VStem: 42.3775 135.065<237.451 494.451>
LayerCount: 2
Fore
SplineSet
295.246757812 -105 m 1
 326.010429688 64.2047265625 l 1
 414.122929688 64.2047265625 l 1
 383.359257812 -105 l 1
 295.246757812 -105 l 1
429.254570312 660.265 m 1
 460.018242188 829.469726562 l 1
 548.130742188 829.469726562 l 1
 517.367070312 660.265 l 1
 429.254570312 660.265 l 1
42.3775 364.561523438 m 0
 42.3775 591.206054688 166.798207007 739.12109375 385.888671875 739.12109375 c 0
 536.775981664 739.12109375 598.804140625 672.891601562 598.804140625 672.891601562 c 1
 546.43496875 567.105671875 l 1
 546.43496875 567.105671875 493.340141872 618.977001953 385.686621094 618.977001953 c 0
 239.8108829 618.977001953 177.442578125 517.122659835 177.442578125 364.561523438 c 0
 177.442578125 212.210758842 244.700024236 110.496867188 402.011171875 110.496867188 c 0
 507.401402919 110.496867188 563.220554688 156.804203125 563.220554688 156.804203125 c 1
 601.949648438 44.595703125 l 1
 601.949648438 44.595703125 535.951869581 -9.998046875 385.888671875 -9.998046875 c 0
 166.798207007 -9.998046875 42.3775 137.916992188 42.3775 364.561523438 c 0
141.746757812 -105 m 1
 173.212429688 66.8372265625 l 1
 261.324929688 66.8372265625 l 1
 229.859257812 -105 l 1
 141.746757812 -105 l 1
275.754570312 660.265 m 1
 306.518242188 829.469726562 l 1
 394.630742188 829.469726562 l 1
 363.867070312 660.265 l 1
 275.754570312 660.265 l 1
EndSplineSet
EndChar

StartChar: zero.inferior
Encoding: 8320 8320 148
Width: 455
Flags: W
HStem: -358 88.9875<168.406 287.594> 54.5 88.5<168.406 287.594>
VStem: 26.0031 96.0125<-216.64 1.32489> 333.984 96.0125<-216.64 1.32489>
LayerCount: 2
Fore
SplineSet
122.015625 -107.5125 m 0
 122.015625 -204.596875 154.01875 -269.0125 228 -269.0125 c 0
 301.98125 -269.0125 333.984375 -204.596875 333.984375 -107.5125 c 0
 333.984375 -10.428125 301.98125 54.5 228 54.5 c 0
 154.01875 54.5 122.015625 -10.428125 122.015625 -107.5125 c 0
26.003125 -108 m 0
 26.003125 44 95.796875 143 228 143 c 0
 360.203125 143 429.996875 44 429.996875 -108 c 0
 429.996875 -260 360.203125 -358 228 -358 c 0
 95.796875 -358 26.003125 -260 26.003125 -108 c 0
EndSplineSet
EndChar

StartChar: one.inferior
Encoding: 8321 8321 149
Width: 276
Flags: W
VStem: 137.369 100.012<-350 32.3188>
LayerCount: 2
Fore
SplineSet
237.38125 137 m 1
 237.38125 -350 l 1
 137.36875 -350 l 1
 137.36875 32.31875 l 1
 41.3875 -18.55625 l 1
 9.59375 53.5875 l 1
 149.265625 137 l 1
 237.38125 137 l 1
EndSplineSet
EndChar

StartChar: two.inferior
Encoding: 8322 8322 150
Width: 404
Flags: W
HStem: -350 87.5<139.575 383.356> 54.9094 88.0906<97.8069 261.49>
VStem: 278.575 99.2937<-59.0983 36.5002>
LayerCount: 2
Fore
SplineSet
278.575 -11.91875 m 0
 278.575 27.7 254.93125 54.909375 187.590625 54.909375 c 0
 121.871875 54.909375 74.896875 19.29375 74.896875 19.29375 c 1
 74.896875 19.29375 44.15625 101 44.15625 101 c 1
 44.15625 101 103.565625 143 191.4875 143 c 0
 307.5625 143 377.86875 92.384375 377.86875 -7.74375 c 0
 377.86875 -96.33125 323.146875 -133.86875 233.76875 -178.43125 c 0
 145.346875 -222.9 140.31875 -249.3125 139.575 -262.5 c 1
 383.35625 -262.5 l 1
 383.35625 -350 l 1
 32.4875 -350 l 1
 32.4875 -314 l 2
 32.4875 -210.771875 96.103125 -152.59375 208.590625 -92.903125 c 0
 255.209375 -68.825 278.575 -43.796875 278.575 -11.91875 c 0
EndSplineSet
EndChar

StartChar: three.inferior
Encoding: 8323 8323 151
Width: 391
Flags: W
HStem: -358 85.7063<60.8988 243.115> -142.328 80.6562<109.487 242.571> 54.2938 88.7062<65.4244 240.481>
VStem: 253.422 101.728<-48.4705 38.4066> 262.6 102.934<-253.716 -160.72>
LayerCount: 2
Fore
SplineSet
169.903125 -61.671875 m 2xe8
 232.36875 -61.671875 253.421875 -42.515625 253.421875 -4.1 c 0
 253.421875 29.44375 233.290625 54.29375 167.28125 54.29375 c 0
 94.5875 54.29375 50.35625 24.471875 50.35625 24.471875 c 1
 24.384375 106.76875 l 1
 24.384375 106.76875 78.153125 143 172.434375 143 c 0
 285.740625 143 355.15 95.4875 355.15 5.4875 c 0xf0
 355.15 -76 281.43125 -100 281.43125 -100 c 1
 281.43125 -100 365.534375 -123 365.534375 -214.4875 c 0
 365.534375 -317 287.996875 -358 170.81875 -358 c 0
 70.640625 -358 10.4875 -323.4875 10.4875 -323.4875 c 1
 37.6375 -237.934375 l 1
 37.6375 -237.934375 86.971875 -272.29375 164.28125 -272.29375 c 0
 232.365625 -272.29375 262.6 -249.034375 262.6 -207.10625 c 0
 262.6 -163.84375 230.290625 -142.328125 169.415625 -142.328125 c 2
 108.975 -142.328125 l 1
 109.4875 -61.671875 l 1
 169.903125 -61.671875 l 2xe8
EndSplineSet
EndChar

StartChar: four.inferior
Encoding: 8324 8324 152
Width: 439
Flags: W
HStem: -235.559 81.6312<132.094 416.613>
VStem: 251.137 96.1406<-350 -2.36875>
LayerCount: 2
Fore
SplineSet
347.278125 137 m 1
 347.278125 -350 l 1
 251.1375 -350 l 1
 251.1375 -350 251.1375 -2.36875 251.1375 -2.36875 c 1
 251.1375 -2.36875 132.09375 -153.928125 132.09375 -153.928125 c 1
 416.6125 -153.928125 l 1
 416.6125 -235.559375 l 1
 41.925 -235.559375 l 1
 23.721875 -164.4125 l 1
 252.625 137 l 1
 347.278125 137 l 1
EndSplineSet
EndChar

StartChar: five.inferior
Encoding: 8325 8325 153
Width: 406
Flags: W
HStem: -357 88.0656<65.3941 255.24> -108.069 78.4531<138.844 261.194> 52.0875 84.9125<144.944 344.975>
VStem: 282.3 98.525<-244.161 -129.556>
LayerCount: 2
Fore
SplineSet
182.875 -357 m 0
 76.259375 -357 13.003125 -322.23125 13.003125 -322.23125 c 1
 39.975 -235.934375 l 1
 39.975 -235.934375 98.4125 -268.934375 174.3375 -268.934375 c 0
 252.21875 -268.934375 282.3 -237.46875 282.3 -186.23125 c 0
 282.3 -137.328125 254.553125 -108.06875 198.290625 -108.06875 c 0
 138.309375 -108.06875 117.896875 -147.125 117.896875 -147.125 c 1
 40.928125 -128.6125 l 1
 67.2375 137 l 1
 344.975 137 l 1
 344.975 52.0875 l 1
 144.94375 52.0875 l 1
 133.890625 -55.540625 l 1
 133.890625 -55.540625 155.353125 -29.615625 225.690625 -29.615625 c 0
 325.4375 -29.615625 380.825 -87.4875 380.825 -184.334375 c 0
 380.825 -291.4875 313.490625 -357 182.875 -357 c 0
EndSplineSet
EndChar

StartChar: six.inferior
Encoding: 8326 8326 154
Width: 426
Flags: W
HStem: -358 83.5031<156.395 284.022> -110.503 76.8375<154.137 284.954> 57.2156 85.7844<168.821 339.698>
VStem: 26.0031 92.3719<-77.8 3.90065> 308.216 92.6531<-250.629 -133.942>
LayerCount: 2
Fore
SplineSet
131.734375 -192 m 0
 131.734375 -239.2875 157.865625 -274.496875 219.71875 -274.496875 c 0
 282.084375 -274.496875 308.215625 -239.2875 308.215625 -192 c 0
 308.215625 -144.7125 282.571875 -110.503125 219.71875 -110.503125 c 0
 157.865625 -110.503125 131.734375 -144.7125 131.734375 -192 c 0
118.375 -77.8 m 1
 118.375 -77.8 145.478125 -33.665625 234.765625 -33.665625 c 0
 336.38125 -33.665625 400.86875 -97.76875 400.86875 -191 c 0
 400.86875 -298 332.690625 -358 221 -358 c 0
 98.4375 -358 26.003125 -285 26.003125 -107 c 0
 26.003125 54 102.71875 143 240.484375 143 c 0
 338.38125 143 388.38125 102.4875 388.38125 102.4875 c 1
 388.38125 102.4875 357.18125 25.215625 357.18125 25.215625 c 1
 357.18125 25.215625 317.23125 57.215625 245.203125 57.215625 c 0
 164.146875 57.215625 122.375 10.903125 118.375 -77.8 c 1
EndSplineSet
EndChar

StartChar: seven.inferior
Encoding: 8327 8327 155
Width: 402
Flags: W
HStem: 50.8062 86.1937<29.0281 261.784>
VStem: 113.544 100.013<-350 -212.663>
LayerCount: 2
Fore
SplineSet
213.55625 -350 m 1
 113.54375 -350 l 1
 120.851106651 -127.659375 261.784375 50.80625 261.784375 50.80625 c 1
 29.028125 50.80625 l 1
 29.028125 137 l 1
 373.484375 137 l 1
 373.484375 69.309375 l 1
 373.484375 69.309375 215.54272343 -111.05 213.55625 -350 c 1
EndSplineSet
EndChar

StartChar: eight.inferior
Encoding: 8328 8328 156
Width: 442
Flags: W
HStem: -358 80.4<144.785 297.894> -133.688 75.1437<172.353 273.262> -110.513 36.5094<109.797 335.691> 62.2406 80.7594<157.295 288.085>
VStem: 26.0031 95.525<-255.145 -156.578> 50.0031 91.5<-41.4509 45.1968> 304.984 91.5<-40.9544 45.1968> 321.472 95.525<-255.145 -156.578>
LayerCount: 2
Fore
SplineSet
221.74375 -58.54375 m 0xd6
 273.2625 -58.54375 304.984375 -35.028125 304.984375 1.540625 c 0
 304.984375 39.46875 274.621875 62.240625 221.74375 62.240625 c 0
 171.353125 62.240625 141.503125 39.46875 141.503125 1.540625 c 0
 141.503125 -35.028125 172.353125 -58.54375 221.74375 -58.54375 c 0xd6
221.74375 143 m 0
 330.690625 143 396.484375 93 396.484375 12 c 0
 396.484375 -67.5125 335.690625 -110.5125 221.74375 -110.5125 c 0xb6
 109.796875 -110.5125 50.003125 -67.5125 50.003125 12 c 0
 50.003125 93 114.796875 143 221.74375 143 c 0
221.25625 -277.6 m 0
 284.75 -277.6 321.471875 -251.571875 321.471875 -204.64375 c 0
 321.471875 -161.203125 284.75 -133.6875 221.25625 -133.6875 c 0xd1
 157.7625 -133.6875 121.528125 -161.203125 121.528125 -204.64375 c 0
 121.528125 -251.571875 157.7625 -277.6 221.25625 -277.6 c 0
221.25625 -74.003125 m 0xb9
 347.33125 -74.003125 416.996875 -123.796875 416.996875 -212.4875 c 0
 416.996875 -301 340.203125 -358 221.25625 -358 c 0
 102.309375 -358 26.003125 -301 26.003125 -212.4875 c 0
 26.003125 -123.796875 95.18125 -74.003125 221.25625 -74.003125 c 0xb9
EndSplineSet
EndChar

StartChar: nine.inferior
Encoding: 8329 8329 157
Width: 426
Flags: W
HStem: -358 85.2719<85.205 254.704> -182.744 76.9656<141.805 273.57> 58.2156 84.7844<142.711 271.565>
VStem: 26.0031 93.525<-81.6426 35.288> 304.909 95.575<-220.738 -137.328>
LayerCount: 2
Fore
SplineSet
295.625 -23.76875 m 0
 295.625 23.51875 269.878125 58.215625 208.025 58.215625 c 0
 146.04375 58.215625 119.528125 23.51875 119.528125 -23.76875 c 0
 119.528125 -71.05625 145.55625 -105.778125 208.025 -105.778125 c 0
 269.878125 -105.778125 295.625 -71.05625 295.625 -23.76875 c 0
304.909375 -137.328125 m 1
 304.909375 -137.328125 278.31875 -182.74375 190.3125 -182.74375 c 0
 89.85 -182.74375 26.003125 -117.615625 26.003125 -23.615625 c 0
 26.003125 83.384375 94.309375 143 206 143 c 0
 328.5625 143 400.484375 70 400.484375 -108 c 0
 400.484375 -269 324.665625 -358 187.4125 -358 c 0
 89.259375 -358 38.875 -317.4875 38.875 -317.4875 c 1
 65.71875 -239.83125 l 1
 65.71875 -239.83125 107.078125 -272.728125 181.796875 -272.728125 c 0
 260.803125 -272.728125 300.909375 -226.03125 304.909375 -137.328125 c 1
EndSplineSet
EndChar

StartChar: zero.superior
Encoding: 8304 8304 158
Width: 455
Flags: W
HStem: 342 88.9875<168.456 287.523> 754.5 88.5<168.456 287.523>
VStem: 26.0031 96.0125<483.36 701.325> 333.856 96.0125<483.36 701.325>
LayerCount: 2
Fore
SplineSet
122.015625 592.4875 m 0
 122.015625 495.403125 154.146875 430.9875 228 430.9875 c 0
 301.853125 430.9875 333.85625 495.403125 333.85625 592.4875 c 0
 333.85625 689.571875 301.853125 754.5 228 754.5 c 0
 154.146875 754.5 122.015625 689.571875 122.015625 592.4875 c 0
26.003125 592 m 0
 26.003125 744 95.925 843 228 843 c 0
 360.075 843 429.86875 744 429.86875 592 c 0
 429.86875 440 360.075 342 228 342 c 0
 95.925 342 26.003125 440 26.003125 592 c 0
EndSplineSet
EndChar

StartChar: one.superior
Encoding: 185 185 159
Width: 276
Flags: W
VStem: 137.369 100.012<350 738.169>
LayerCount: 2
Fore
SplineSet
237.38125 840.4125 m 1
 237.38125 350 l 1
 137.36875 350 l 1
 137.36875 738.16875 l 1
 40.9 686.31875 l 1
 9.59375 759.4375 l 1
 149.265625 840.4125 l 1
 237.38125 840.4125 l 1
EndSplineSet
EndChar

StartChar: two.superior
Encoding: 178 178 160
Width: 404
Flags: W
HStem: 350 86.2188<139.575 383.356> 754.909 88.0906<100.113 261.595>
VStem: 278.575 99.2937<640.594 736.304>
LayerCount: 2
Fore
SplineSet
278.575 688.08125 m 0
 278.575 727.7 255.41875 754.909375 188.078125 754.909375 c 0
 122.359375 754.909375 74.896875 719.165625 74.896875 719.165625 c 1
 44.15625 801 l 1
 44.15625 801 103.565625 843 191.4875 843 c 0
 307.5625 843 377.86875 792.128125 377.86875 691.74375 c 0
 377.86875 603.028125 323.146875 565.234375 233.76875 520.2875 c 0
 145.346875 475.434375 140.31875 449.40625 139.575 436.21875 c 1
 383.35625 436.21875 l 1
 383.35625 350 l 1
 32.4875 350 l 1
 32.4875 386 l 2
 32.4875 489.228125 96.103125 547.40625 208.590625 607.096875 c 0
 255.209375 631.175 278.575 656.203125 278.575 688.08125 c 0
EndSplineSet
EndChar

StartChar: three.superior
Encoding: 179 179 161
Width: 390
Flags: W
HStem: 342 85.7063<60.8108 242.744> 557.672 80.6562<109.487 241.421> 754.294 88.7062<65.452 240.208>
VStem: 252.934 101.728<651.563 738.407> 262.113 102.934<446.466 539.445>
LayerCount: 2
Fore
SplineSet
169.415625 638.328125 m 2xe8
 231.39375 638.328125 252.934375 657.484375 252.934375 695.9 c 0
 252.934375 729.44375 232.803125 754.29375 166.79375 754.29375 c 0
 94.1 754.29375 50.35625 724.0875 50.35625 724.0875 c 1
 24.384375 806.384375 l 1
 24.384375 806.384375 78.640625 843 172.434375 843 c 0
 285.740625 843 354.6625 795.4875 354.6625 705.4875 c 0xf0
 354.6625 624 280.94375 600.384375 280.94375 600.384375 c 1
 280.94375 600.384375 365.046875 577.25625 365.046875 485.896875 c 0
 365.046875 383.384375 287.509375 342 170.81875 342 c 0
 70.640625 342 10.4875 376.384375 10.4875 376.384375 c 1
 37.6375 462.065625 l 1
 37.6375 462.065625 86.484375 427.70625 163.79375 427.70625 c 0
 231.878125 427.70625 262.1125 450.965625 262.1125 492.89375 c 0
 262.1125 536.15625 230.290625 557.671875 169.415625 557.671875 c 2
 108.975 557.671875 l 1
 109.4875 638.328125 l 1
 169.415625 638.328125 l 2xe8
EndSplineSet
EndChar

StartChar: four.superior
Encoding: 8308 8308 162
Width: 439
Flags: W
HStem: 465.903 81.1438<132.094 416.613>
VStem: 251.137 96.1406<350 700.866>
LayerCount: 2
Fore
SplineSet
347.278125 839.4375 m 1
 347.278125 350 l 1
 251.1375 350 l 1
 251.1375 700.865625 l 1
 132.09375 547.046875 l 1
 416.6125 547.046875 l 1
 416.6125 465.903125 l 1
 41.925 465.903125 l 1
 23.721875 536.5625 l 1
 252.625 839.4375 l 1
 347.278125 839.4375 l 1
EndSplineSet
EndChar

StartChar: five.superior
Encoding: 8309 8309 163
Width: 406
Flags: W
HStem: 343 88.0656<65.3941 255.24> 591.931 78.4531<138.844 261.194> 752.087 84.9125<144.944 344.975>
VStem: 282.3 98.525<455.839 570.444>
LayerCount: 2
Fore
SplineSet
182.875 343 m 0
 76.259375 343 13.003125 377.76875 13.003125 377.76875 c 1
 39.975 464.065625 l 1
 39.975 464.065625 98.4125 431.065625 174.3375 431.065625 c 0
 252.21875 431.065625 282.3 462.53125 282.3 513.76875 c 0
 282.3 562.671875 254.553125 591.93125 198.290625 591.93125 c 0
 138.309375 591.93125 117.896875 552.875 117.896875 552.875 c 1
 40.928125 571.3875 l 1
 67.2375 837 l 1
 344.975 837 l 1
 344.975 752.0875 l 1
 144.94375 752.0875 l 1
 133.890625 644.459375 l 1
 133.890625 644.459375 155.353125 670.384375 225.690625 670.384375 c 0
 325.4375 670.384375 380.825 612.5125 380.825 515.665625 c 0
 380.825 408.5125 313.490625 343 182.875 343 c 0
EndSplineSet
EndChar

StartChar: six.superior
Encoding: 8310 8310 164
Width: 426
Flags: W
HStem: 342 83.5031<156.395 284.022> 589.497 76.8375<154.137 284.954> 757.216 85.7844<168.821 339.698>
VStem: 26.0031 92.3719<621.816 703.807> 308.216 92.6531<449.371 566.058>
LayerCount: 2
Fore
SplineSet
131.734375 508 m 0
 131.734375 460.7125 157.865625 425.503125 219.71875 425.503125 c 0
 282.084375 425.503125 308.215625 460.7125 308.215625 508 c 0
 308.215625 555.2875 282.571875 589.496875 219.71875 589.496875 c 0
 157.865625 589.496875 131.734375 555.2875 131.734375 508 c 0
118.375 621.815625 m 1
 118.375 621.815625 145.478125 666.334375 234.765625 666.334375 c 0
 336.38125 666.334375 400.86875 602.23125 400.86875 509 c 0
 400.86875 402 332.690625 342 221 342 c 0
 98.4375 342 26.003125 415 26.003125 593 c 0
 26.003125 754 102.71875 843 240.484375 843 c 0
 338.38125 843 388.38125 802.871875 388.38125 802.871875 c 1
 357.18125 725.215625 l 1
 357.18125 725.215625 317.23125 757.215625 245.203125 757.215625 c 0
 164.146875 757.215625 122.375 710.903125 118.375 621.815625 c 1
EndSplineSet
EndChar

StartChar: seven.superior
Encoding: 8311 8311 165
Width: 402
Flags: W
HStem: 750.806 86.1938<29.0281 261.784>
VStem: 113.544 100.013<350 487.337>
LayerCount: 2
Fore
SplineSet
213.55625 350 m 1
 113.54375 350 l 1
 120.851106651 572.340625 261.784375 750.80625 261.784375 750.80625 c 1
 29.028125 750.80625 l 1
 29.028125 837 l 1
 373.484375 837 l 1
 373.484375 769.309375 l 1
 373.484375 769.309375 215.54272343 588.95 213.55625 350 c 1
EndSplineSet
EndChar

StartChar: eight.superior
Encoding: 8312 8312 166
Width: 443
Flags: W
HStem: 342 80.4<145.02 298.467> 566.312 75.1437<172.353 273.262> 589.487 36.5094<109.797 335.691> 762.241 80.7594<157.22 288.265>
VStem: 26.0031 95.525<444.855 543.422> 50.0031 91.5<658.549 745.197> 305.472 91.5<659.046 744.701> 321.959 95.525<444.855 543.422>
LayerCount: 2
Fore
SplineSet
221.74375 641.45625 m 0xd6
 273.2625 641.45625 305.471875 664.971875 305.471875 701.540625 c 0
 305.471875 739.46875 274.621875 762.240625 221.74375 762.240625 c 0
 170.865625 762.240625 141.503125 739.46875 141.503125 701.540625 c 0
 141.503125 664.971875 172.353125 641.45625 221.74375 641.45625 c 0xd6
221.74375 843 m 0
 330.690625 843 396.971875 793 396.971875 712 c 0
 396.971875 632.4875 335.690625 589.4875 221.74375 589.4875 c 0xb6
 109.796875 589.4875 50.003125 632.4875 50.003125 712 c 0
 50.003125 793 114.796875 843 221.74375 843 c 0
221.74375 422.4 m 0
 285.725 422.4 321.959375 448.428125 321.959375 495.35625 c 0
 321.959375 538.796875 285.725 566.3125 221.74375 566.3125 c 0xd1
 157.7625 566.3125 121.528125 538.796875 121.528125 495.35625 c 0
 121.528125 448.428125 157.7625 422.4 221.74375 422.4 c 0
221.74375 625.996875 m 0xb9
 347.81875 625.996875 417.484375 576.203125 417.484375 487.5125 c 0
 417.484375 399 340.690625 342 221.74375 342 c 0
 102.796875 342 26.003125 399 26.003125 487.5125 c 0
 26.003125 576.203125 95.66875 625.996875 221.74375 625.996875 c 0xb9
EndSplineSet
EndChar

StartChar: nine.superior
Encoding: 8313 8313 167
Width: 426
Flags: W
HStem: 342 85.2719<85.205 254.704> 517.256 76.9656<141.805 273.57> 758.216 84.7844<142.711 271.565>
VStem: 26.0031 93.525<618.357 735.288> 304.909 95.575<479.262 562.544>
LayerCount: 2
Fore
SplineSet
295.625 676.23125 m 0
 295.625 723.51875 269.878125 758.215625 208.025 758.215625 c 0
 146.04375 758.215625 119.528125 723.51875 119.528125 676.23125 c 0
 119.528125 628.94375 145.55625 594.221875 208.025 594.221875 c 0
 269.878125 594.221875 295.625 628.94375 295.625 676.23125 c 0
304.909375 562.54375 m 1
 304.909375 562.54375 278.31875 517.25625 190.3125 517.25625 c 0
 89.85 517.25625 26.003125 582.384375 26.003125 676.384375 c 0
 26.003125 783.384375 94.309375 843 206 843 c 0
 328.5625 843 400.484375 770 400.484375 592 c 0
 400.484375 431 324.665625 342 187.4125 342 c 0
 89.259375 342 38.875 382.384375 38.875 382.384375 c 1
 65.71875 460.16875 l 1
 65.71875 460.16875 107.078125 427.271875 181.796875 427.271875 c 0
 260.803125 427.271875 300.909375 473.840625 304.909375 562.54375 c 1
EndSplineSet
EndChar

StartChar: circumflex
Encoding: 710 710 168
Width: 362
Flags: W
HStem: 516.878 214.13
VStem: 14.8775 332.245
LayerCount: 2
Fore
SplineSet
273.6325 516.8775 m 1
 181 624.820117188 l 1
 88.3675 516.8775 l 1
 14.8775 546 l 1
 125.755 731.0078125 l 1
 236.245 731.0078125 l 1
 347.1225 546 l 1
 273.6325 516.8775 l 1
EndSplineSet
EndChar

StartChar: caron
Encoding: 711 711 169
Width: 362
Flags: W
HStem: 526.878 214.13
VStem: 14.8775 332.245
LayerCount: 2
Fore
SplineSet
88.3675 741.0078125 m 1
 181 633.065195312 l 1
 273.6325 741.0078125 l 1
 347.1225 711.8853125 l 1
 236.245 526.8775 l 1
 125.755 526.8775 l 1
 14.8775 711.8853125 l 1
 88.3675 741.0078125 l 1
EndSplineSet
EndChar

StartChar: breve
Encoding: 728 728 170
Width: 322
VWidth: 999
Flags: W
HStem: 593.347 92.5275<94.8862 227.934> 715 20G<43.7265 72.3109 250.509 250.509>
VStem: 5.8775 311.065
LayerCount: 2
Fore
SplineSet
161.41015625 593.346523438 m 0
 52.4681557127 593.346523438 5.8775 688.517695312 5.8775 688.517695312 c 1
 72.310859375 735 l 1
 72.310859375 735 92.0040359448 685.874023438 161.41015625 685.874023438 c 0
 230.816276555 685.874023438 250.509453125 735 250.509453125 735 c 1
 250.509453125 735 316.9428125 688.517695312 316.9428125 688.517695312 c 1
 316.9428125 688.517695312 270.352156787 593.346523438 161.41015625 593.346523438 c 0
EndSplineSet
EndChar

StartChar: dotaccent
Encoding: 729 729 171
Width: 248
Flags: W
HStem: 590.808 148.184<69.8815 179.118>
VStem: 51.0192 146.962<609.827 719.972>
LayerCount: 2
Fore
SplineSet
51.01921875 664.900078125 m 0
 51.01921875 709.786275902 79.9830840587 738.9921875 124.499023438 738.9921875 c 0
 169.015974675 738.9921875 197.98078125 709.786275902 197.98078125 664.900078125 c 0
 197.98078125 620.01306941 169.015974675 590.80796875 124.499023438 590.80796875 c 0
 79.9830840585 590.80796875 51.01921875 620.01306941 51.01921875 664.900078125 c 0
EndSplineSet
EndChar

StartChar: tilde
Encoding: 732 732 172
Width: 371
VWidth: 999
Flags: W
HStem: 599.052 98.15<196.173 312.487> 645.521 97.2809<62.0335 175.329>
LayerCount: 2
Fore
SplineSet
366.400390625 656.011746094 m 1x80
 366.400390625 656.011746094 324.012239155 599.052050781 258.664335938 599.052050781 c 0x80
 184.129430211 599.052050781 168.896768117 645.521386719 114.474335938 645.521386719 c 0
 78.9469039509 645.521386719 49.96375 613.383300781 49.96375 613.383300781 c 1
 5 697.177246094 l 1
 5 697.177246094 51.8039727509 742.802246094 112.73703125 742.802246094 c 0x40
 186.088723172 742.802246094 207.236373726 697.202050781 256.92703125 697.202050781 c 0
 297.617080261 697.202050781 318.43653125 725.214550781 318.43653125 725.214550781 c 1
 366.400390625 656.011746094 l 1x80
EndSplineSet
EndChar

StartChar: hungarumlaut
Encoding: 733 733 173
Width: 412
Flags: W
HStem: 529 212.008
LayerCount: 2
Fore
SplineSet
278.845 529 m 1
 202.2775 548.1225 l 1
 281.51 741.0078125 l 1
 397.1225 711.8853125 l 1
 278.845 529 l 1
88.845 529 m 1
 12.2775 548.1225 l 1
 91.51 741.0078125 l 1
 207.1225 711.8853125 l 1
 88.845 529 l 1
EndSplineSet
EndChar

StartChar: multiply
Encoding: 215 215 174
Width: 450
Flags: W
LayerCount: 2
Fore
SplineSet
418.040039062 481.090085938 m 1
 101.909914062 164.959960938 l 1
 31.9599609375 234.909914062 l 1
 348.090085938 551.040039062 l 1
 418.040039062 481.090085938 l 1
348.090085938 164.959960938 m 1
 31.9599609375 481.090085938 l 1
 101.909914062 551.040039062 l 1
 418.040039062 234.909914062 l 1
 348.090085938 164.959960938 l 1
EndSplineSet
EndChar

StartChar: divide
Encoding: 247 247 175
Width: 450
Flags: W
HStem: 125.458 138.294<172.937 277.062> 307.207 101.586<30 420> 452.248 138.294<172.937 277.062>
VStem: 156.403 137.193<142.125 247.085 468.915 573.875>
CounterMasks: 1 e0
LayerCount: 2
Fore
SplineSet
420 307.207 m 1
 30 307.207 l 1
 30 408.793 l 1
 420 408.793 l 1
 420 307.207 l 1
156.4034375 194.604460938 m 0
 156.4034375 236.494796787 183.441917397 263.751804688 224.999023438 263.751804688 c 0
 266.557142629 263.751804688 293.5965625 236.494796787 293.5965625 194.604460938 c 0
 293.5965625 152.71422913 266.557142629 125.45809375 224.999023438 125.45809375 c 0
 183.441917397 125.45809375 156.4034375 152.71422913 156.4034375 194.604460938 c 0
156.4034375 521.395539062 m 0
 156.4034375 563.284966047 183.441917397 590.54190625 224.999023438 590.54190625 c 0
 266.557142629 590.54190625 293.5965625 563.284966047 293.5965625 521.395539062 c 0
 293.5965625 479.504398388 266.557142629 452.248195312 224.999023438 452.248195312 c 0
 183.441917397 452.248195312 156.4034375 479.504398388 156.4034375 521.395539062 c 0
EndSplineSet
EndChar

StartChar: AE
Encoding: 198 198 176
Width: 1024
Flags: W
HStem: 0 117.546<653.541 986.622> 147.983 116.809<225.5 618.541> 305.26 120.358<586.49 926.622> 613.462 117.546<653.541 986.622>
VStem: 518 100.541<147.983 264.792> 586.49 67.0512<305.26 425.618>
LayerCount: 2
Fore
SplineSet
926.6225 305.26 m 1xf4
 586.49 305.26 l 1
 586.49 425.6175 l 1
 926.6225 425.6175 l 1
 926.6225 305.26 l 1xf4
653.54125 613.4615625 m 1
 653.54125 117.54625 l 1xf4
 986.6225 117.54625 l 1
 986.6225 0 l 1
 518 0 l 1
 518 731.0078125 l 1xf8
 986.6225 731.0078125 l 1
 986.6225 613.4615625 l 1
 653.54125 613.4615625 l 1
618.54125 147.9835 m 1xf8
 157.255 147.9835 l 1
 225.5 264.792 l 1
 618.54125 264.792 l 1
 618.54125 147.9835 l 1xf8
576.3675 731.0078125 m 1
 563.367626953 731.0078125 563.367626953 639.642626953 563.367626953 639.642626953 c 1
 168.86575 0 l 1
 12.3775 0 l 1
 488.877246094 731.0078125 l 1
 576.3675 731.0078125 l 1
EndSplineSet
EndChar

StartChar: ae
Encoding: 230 230 177
Width: 872
Flags: W
HStem: -9.99805 100.561<179.486 316.653> -9.99805 104.461<552.252 772.028> 207.369 87.389<450.346 715.19> 226.738 81.4403<193.904 369.01> 405.687 105.324<137.363 317.48> 408.748 102.185<535.606 671.715>
VStem: 34.1275 128.656<107.371 198.899> 352.459 96.887<168.5 368.508> 352.459 16.5505<226.738 308.179> 450.346 37.4241<207.369 294.758>
LayerCount: 2
Fore
SplineSet
352.459210938 188.061523438 m 1x9340
 455.99 173.745 l 1
 434.85344081 57.0699227135 362.876508442 -9.998046875 225.324421875 -9.998046875 c 0
 96.5104411827 -9.998046875 34.1275 49.5467307466 34.1275 139.85925 c 0
 34.1275 285.046891137 163.787413135 308.043345127 369.161210938 308.17859375 c 1
 369.009716797 226.73828125 l 1x92c0
 190.996387181 226.627189237 162.783632812 200.13684237 162.783632812 153.030023438 c 0
 162.783632812 111.59483934 194.496926897 90.5631171877 246.346921875 90.5631171877 c 0
 302.908135077 90.5631171877 352.459210938 122.558930701 352.459210938 188.061523438 c 1x9340
449.346210938 168.5 m 1x0b40
 352.459210938 165 l 1x0ac0
 352.459210938 293.870742188 l 2
 352.459210938 372.00888034 311.335582688 405.686865235 240.4390625 405.686865235 c 0
 165.028662215 405.686865235 111.151464844 370.775488281 111.151464844 370.775488281 c 1
 77.7059570312 467.887988281 l 1
 77.7059570312 467.887988281 138.954555937 511.010742188 251.707798828 511.010742188 c 0
 367.176463465 511.010742188 449.346210938 446.639120815 449.346210938 333.010742188 c 2
 449.346210938 168.5 l 1x0b40
EndSplineSet
Refer: 43 101 N 1 0 0 1 321 0 2
EndChar

StartChar: Eth
Encoding: 208 208 178
Width: 789
Flags: W
HStem: 0 121.371<260.358 487.166> 303.296 114.409<30.8775 433.123> 609.63 121.378<260.358 481.691>
VStem: 124.377 135.98<121.371 609.63> 610.571 136.829<242.451 486.851>
LayerCount: 2
Fore
SplineSet
433.1225 303.29575 m 1
 30.8775 303.29575 l 1
 30.8775 417.70425 l 1
 433.1225 417.70425 l 1
 433.1225 303.29575 l 1
EndSplineSet
Refer: 5 68 N 1 0 0 1 62 0 2
EndChar

StartChar: eth
Encoding: 240 240 179
Width: 588
Flags: W
HStem: -9.99805 113.92<220.46 368.328> 403.211 107.722<221.754 370.971>
VStem: 45.4488 122.531<160.911 348.225> 425.204 126.267<162.907 440> 425.204 59.8651<282.439 349.778>
LayerCount: 2
Fore
SplineSet
153.705371094 614.903076172 m 1xe0
 480.618457031 708.324951172 l 1
 503.657470703 627.486328125 l 1
 176.743408203 534.063476562 l 1
 153.705371094 614.903076172 l 1xe0
425.20375 251.561523438 m 0xf0
 425.20375 500.500878072 351.083366746 570.189404297 205.060839844 704.559082031 c 1
 317.9 771.274414062 l 1
 317.9 771.274414062 551.471132812 601 551.471132812 279 c 0xf0
 551.471132812 93.8330078125 454.565292806 -9.998046875 296.959960938 -9.998046875 c 0
 140.615306628 -9.998046875 45.4487890625 94.0830078124 45.4487890625 253.561523438 c 0
 45.4487890625 409.295898438 129.476433888 510.93359375 275.78975 510.93359375 c 0
 398.257355861 510.93359375 485.068882812 424.080616477 485.068882812 282.439023438 c 1xe8
 425.20375 273.561523438 l 1
 425.20375 349.77770522 381.143604521 403.211429688 298.585382812 403.211429688 c 0
 207.094625451 403.211429688 167.979421875 343.299360339 167.979421875 253.561523438 c 0
 167.979421875 163.830401702 206.608086657 103.922367188 296.959960938 103.922367188 c 0
 389.410517469 103.922367188 425.20375 176.888476806 425.20375 251.561523438 c 0xf0
EndSplineSet
EndChar

StartChar: Thorn
Encoding: 222 222 180
Width: 650
Flags: W
HStem: 0 21G<62.3775 198.358> 154 105.003<153.113 431.338> 491.998 108.659<154.113 431.305> 711.008 20G<62.3775 198.358>
VStem: 62.3775 135.98<0 154 259.003 491.998 600.657 731.008> 154.113 44.245<154 259.003 491.998 600.657> 480.43 127.969<304.817 445.425>
LayerCount: 2
Fore
SplineSet
62.3775 0 m 1xfa
 62.3775 731.0078125 l 1
 198.3575 731.0078125 l 1
 198.3575 0 l 1
 62.3775 0 l 1xfa
153.1125 154 m 1
 153.1125 259.0028125 l 1
 321.266171875 259.113164062 l 2
 412.387920045 259.229777335 480.430460938 279.872050227 480.430460938 374.561523438 c 0
 480.430460938 469.957196267 412.377852772 491.861993701 321.266171875 491.894648438 c 2
 154.1125 491.998164062 l 1
 154.1125 600.6568125 l 1xf6
 351.511171875 600.6568125 l 2
 486.67298035 600.6568125 608.39984375 539.080089721 608.39984375 374.561523438 c 0
 608.39984375 213.240207598 486.759109269 154 351.511171875 154 c 2
 153.1125 154 l 1
EndSplineSet
EndChar

StartChar: thorn
Encoding: 254 254 181
Width: 602
Flags: W
HStem: -9.99805 108.447<238.037 386.432> 403.299 107.634<243.82 388.909> 731.002 20G<62.553 189.059>
VStem: 62.553 126.506<-180 751.002> 118.598 70.4611<66.4395 183.562> 140.088 48.9711<283.562 425.747> 438.845 122.706<156.027 348.253>
LayerCount: 2
Fore
SplineSet
62.553 -180 m 1xf2
 62.553 751.001953125 l 1xf2
 189.0595 751.001953125 l 1
 189.0595 -180 l 1xe6
 62.553 -180 l 1xf2
189.0595 213.561523438 m 1xe6
 189.0595 157.479145323 226.63968159 98.4488671877 314.540039062 98.4488671877 c 0
 401.615956466 98.4488671877 438.845078125 160.547323109 438.845078125 253.561523438 c 0
 438.845078125 343.351979786 401.650280497 403.299179688 314.651367188 403.299179688 c 0
 228.429141121 403.299179688 189.0595 355.362812514 189.0595 283.561523438 c 1
 140.088367188 283.561523438 l 1xe6
 140.088367188 425.747070312 217.853730297 510.93359375 337.6225 510.93359375 c 0
 479.862734375 510.93359375 561.551210938 409.295898438 561.551210938 253.561523438 c 0
 561.551210938 94.0830078124 476.07953125 -9.998046875 335.662539062 -9.998046875 c 0
 200.731179185 -9.998046875 118.598367188 66.4394531249 118.598367188 183.561523438 c 1xea
 189.0595 213.561523438 l 1xe6
EndSplineSet
EndChar

StartChar: kgreenlandic
Encoding: 312 312 182
Width: 555
Flags: W
HStem: 0 21G<68.1755 194.682 339.637 513.377> 218.553 74.894<99.5 191.467> 481.011 20G<68.1755 194.682 335.422 503.377>
VStem: 68.1755 126.506<0 218.553 293.447 501.011> 99.5 95.182<218.553 293.447>
LayerCount: 2
Fore
SplineSet
191.467 293.447 m 1xe8
 191.467 218.553 l 1
 99.5 218.553 l 1
 99.5 293.447 l 1
 191.467 293.447 l 1xe8
354.561572266 0 m 1
 191.467 218.553 l 1
 191.467 293.447 l 1
 350.771923828 501.010742188 l 1
 503.377246094 501.010742188 l 1
 299.5 266.572753906 l 1
 513.377246094 0 l 1
 354.561572266 0 l 1
68.1755 0 m 1xf0
 68.1755 501.010742188 l 1
 194.682 501.010742188 l 1
 194.682 0 l 1
 68.1755 0 l 1xf0
EndSplineSet
EndChar

StartChar: Eng
Encoding: 330 330 183
Width: 719
Flags: W
HStem: -189.994 105.761<339.839 504.188> 0 21G<62.3775 193.733> 711.008 20G<62.3775 214.334 525.267 656.622>
VStem: 62.3775 131.356<0 502.79> 525.267 131.356<239.937 731.008>
LayerCount: 2
Back
SplineSet
75 0 m 5
 75 731.0078125 l 5
 208 731.0078125 l 5
 517 228.599609375 l 5
 517 731.0078125 l 5
 644 731.0078125 l 5
 644 0 l 5
 511 0 l 5
 202 515.004882812 l 5
 202 0 l 5
 75 0 l 5
EndSplineSet
Fore
SplineSet
62.3775 0 m 1
 62.3775 731.0078125 l 1
 201.133 731.0078125 l 1
 525.267 239.937109375 l 1
 525.267 731.0078125 l 1
 656.6225 731.0078125 l 1
 656.6225 -3 l 2
 656.6225 -125.529296875 601.447241379 -189.994140625 468.3775 -189.994140625 c 0
 380.167393578 -189.994140625 328.255 -169.906390625 328.255 -169.906390625 c 1
 341.904 -68.969390625 l 1
 341.904 -68.969390625 383.155829865 -84.232640625 440.89575 -84.232640625 c 0
 491.726550569 -84.232640625 519.273997966 -63.6814193189 523.743392703 -9.43686363961 c 1
 193.733 502.789882812 l 1
 193.733 0 l 1
 62.3775 0 l 1
EndSplineSet
Substitution2: "'ss06' Style Set 6 lookup 7-1" Eng.ss06
EndChar

StartChar: eng
Encoding: 331 331 184
Width: 595
Flags: W
HStem: -189.994 108.561<253.128 386.743> 0 21G<62.553 189.059> 407.422 103.512<239.762 372.191> 481.011 20G<62.553 189.059>
VStem: 62.553 126.506<0 501.011> 407.595 126.507<-58.9715 368.894>
LayerCount: 2
Fore
SplineSet
62.553 0 m 1xdc
 62.553 501.010742188 l 1
 189.0595 501.010742188 l 1
 189.0595 0 l 1
 62.553 0 l 1xdc
189.0595 284 m 1
 132.3145 293.561523438 l 1
 155.191499249 444 211.280616055 510.93359375 344.6225 510.93359375 c 0
 469.752227296 510.93359375 534.10184375 443.516195023 534.10184375 302.806523438 c 2
 534.10184375 302.806523438 534.10184375 1.5 534.10184375 1.5 c 2
 534.10184375 -113.757389383 482.256171655 -189.994140625 357.21609375 -189.994140625 c 0
 288.831285644 -189.994140625 241.53234375 -172.694140625 241.53234375 -172.694140625 c 1
 255.18134375 -69.520390625 l 1
 255.18134375 -69.520390625 284.609220709 -81.433640625 325.79859375 -81.433640625 c 0
 383.387495414 -81.433640625 407.59534375 -54.7048755648 407.59534375 7.305859375 c 2
 407.59534375 285.806523438 l 2
 407.59534375 364.407042065 375.742940472 407.421679688 300.755 407.421679688 c 0xec
 224.354399286 407.421679688 189.0595 358.010244264 189.0595 284 c 1
EndSplineSet
EndChar

StartChar: OE
Encoding: 338 338 185
Width: 991
Flags: W
HStem: 0 117.546<615.358 958.622> 0 119.32<306.47 532.777> 305.26 120.358<547.868 898.622> 612.25 118.758<306.026 532.777> 613.462 117.546<615.358 958.622>
VStem: 48.8775 132.092<241.667 487.604> 547.868 67.49<305.26 425.618>
LayerCount: 2
Fore
SplineSet
532.77734375 119.2100625 m 1x76
 532.77734375 0 l 1
 421.888671875 0 l 2
 226.778328428 0 48.8775 97.9169921874 48.8775 364.561523438 c 0
 48.8775 631.206054688 225.629663447 731.0078125 421.888671875 731.0078125 c 2
 532.77734375 731.0078125 l 1
 532.77734375 612.353164062 l 1
 441.888671875 612.249648438 l 2
 295.201363071 612.09552675 180.969382812 565.939154401 180.969382812 364.561523438 c 0
 180.969382812 163.418129851 295.201363109 119.483364946 441.888671875 119.320414062 c 2
 532.77734375 119.2100625 l 1x76
EndSplineSet
Refer: 10 69 N 1 0 0 1 417 0 2
EndChar

StartChar: oe
Encoding: 339 339 186
Width: 920
Flags: W
HStem: -9.99805 111.109<218.218 367.433 593.952 836.286> 207.369 87.389<500.979 763.191> 399.637 111.297<216.952 368.754> 408.748 102.185<585.504 720.423>
VStem: 42.3775 122.794<156.876 344.021> 421.096 122.794<128.114 375.226> 500.979 42.9111<209.754 292.304>
LayerCount: 2
Fore
SplineSet
165.171382812 253.561523438 m 0xec
 165.171382812 162.144383057 204.153832046 101.111117188 292.572421875 101.111117188 c 0
 381.822719203 101.111117188 421.095960938 162.144383057 421.095960938 253.561523438 c 0
 421.095960938 341.1563125 381.856331274 399.636929688 292.68375 399.636929688 c 0
 204.187076253 399.636929688 165.171382812 341.1563125 165.171382812 253.561523438 c 0xec
42.3775 253.561523438 m 0
 42.3775 409.295898438 137.046321728 510.93359375 292.572421875 510.93359375 c 0
 448.796214972 510.93359375 543.88984375 409.295898438 543.88984375 253.561523438 c 0
 543.88984375 94.0830078125 448.796214972 -9.998046875 292.572421875 -9.998046875 c 0
 137.046321728 -9.998046875 42.3775 94.0830078125 42.3775 253.561523438 c 0
414.01 253.561523438 m 0
 414.01 409.295898438 506.40865701 510.93359375 658.204921875 510.93359375 c 0
 833.228660948 510.93359375 888.088320312 373.939137451 888.088320312 275.8516875 c 0
 888.088320312 233.573050049 883.6225 207.36925 883.6225 207.36925 c 1
 500.97875 207.36925 l 1
 500.97875 294.75825 l 1
 763.1905 294.75825 l 1
 763.1905 294.75825 762.935018311 300.940130616 761.21859375 311.445 c 0
 754.833651611 358.199500244 728.682261682 408.748179688 652.055 408.748179688 c 0xda
 572.44132813 408.748179688 538.402882812 347.360311768 538.402882812 255.411523438 c 0
 538.402882812 150.23822876 584.046355253 94.4631171877 698.0765 94.4631171877 c 0
 784.910570836 94.4631171877 834.393054688 122.594953125 834.393054688 122.594953125 c 1
 854.949648438 18.245703125 l 1
 854.949648438 18.245703125 796.219885218 -9.998046875 694.204921875 -9.998046875 c 0
 500.632313147 -9.998046875 414.01 94.0830078125 414.01 253.561523438 c 0
EndSplineSet
EndChar

StartChar: longs
Encoding: 383 383 187
Width: 269
Flags: W
HStem: 0 21G<71.2468 197.753> 658.325 102.686<222.783 356.633>
VStem: 71.2468 126.507<0 632.128>
LayerCount: 2
Fore
SplineSet
197.75325 559.643242188 m 2
 197.75325 0 l 1
 71.24675 0 l 1
 71.24675 572.643242188 l 2
 71.24675 686.020668089 124.483193901 761.010742188 252.8775 761.010742188 c 0
 321.002947266 761.010742188 368.1225 745.010742188 368.1225 745.010742188 c 1
 354.649 646.973742188 l 1
 354.649 646.973742188 326.143436621 658.324742188 286.245 658.324742188 c 0
 223.942491785 658.324742188 197.75325 628.600953473 197.75325 559.643242188 c 2
EndSplineSet
EndChar

StartChar: uni018F
Encoding: 399 399 188
Width: 765
Flags: W
HStem: -9.99805 123.095<287.341 478.219> 320.668 114.708<182.588 632.259> 615.727 123.394<168.948 459.088>
VStem: 590.253 44.0059<320.668 435.376>
LayerCount: 2
Back
SplineSet
35 364.561523438 m 0
 35 591.206054688 163.541887394 739.12109375 389.888671875 739.12109375 c 0
 653.541980974 739.12109375 740.108398438 551.971330386 740.108398438 365.891601562 c 0
 740.108398438 303.039520695 732 284 732 284 c 1
 162 284 l 1
 160 424 l 1
 562 424 l 1
 562 424 560.13712938 586.659179688 391 586.659179688 c 0
 261.796380576 586.659179688 205.848632812 497.743164062 205.848632812 364.561523438 c 4
 205.848632812 231.379882812 273.845797251 142.463867188 432.888671875 142.463867188 c 0
 580.720714467 142.463867188 659.018554688 179.595703125 659.018554688 179.595703125 c 1
 682.827148438 32.595703125 l 1
 682.827148438 32.595703125 604.343305548 -9.998046875 425.888671875 -9.998046875 c 0
 176.581210181 -9.998046875 35 137.916992188 35 364.561523438 c 0
EndSplineSet
Fore
SplineSet
727.730898438 364.561523438 m 0
 727.730898438 137.916992187 601.861166706 -9.998046875 380.219726562 -9.998046875 c 0
 122.120365857 -9.998046875 37.3775 170.193073361 37.3775 349.353945312 c 0
 37.3775 414.584331895 45.4858984375 435.376296875 45.4858984375 435.376296875 c 1
 632.259148438 435.376296875 l 1
 634.259148438 320.667796875 l 1
 182.588398438 320.667796875 l 1
 182.588398438 320.667796875 182.498559037 311.195183618 184.601154424 290.645750352 c 0
 188.991621894 214.772021897 242.91612186 113.096867188 379.932898438 113.096867188 c 0
 526.259836466 113.096867188 590.253265625 213.769857986 590.253265625 364.561523438 c 0
 590.253265625 515.173892487 513.751383565 615.727179688 337.746226562 615.727179688 c 0
 193.991449126 615.727179688 117.85309375 575.55659375 117.85309375 575.55659375 c 1
 94.65875 693.92734375 l 1
 94.65875 693.92734375 170.889078513 739.12109375 344.219726562 739.12109375 c 0
 588.821843918 739.12109375 727.730898438 591.206054687 727.730898438 364.561523438 c 0
EndSplineSet
EndChar

StartChar: florin
Encoding: 402 402 190
Width: 398
Flags: W
HStem: -190.011 108.473<-41.3528 91.5983> 400.225 100.785<27 369> 657.974 103.037<262.077 396.633>
VStem: 111.247 126.507<-59.5853 632.128>
LayerCount: 2
Fore
SplineSet
27 501.010742188 m 1
 369 501.010742188 l 1
 369 400.22525 l 1
 27 400.22525 l 1
 27 501.010742188 l 1
111.24675 6.0607578125 m 2
 111.24675 572.643242188 l 2
 111.24675 686.020668089 164.483193901 761.010742188 292.8775 761.010742188 c 0
 361.002947266 761.010742188 408.1225 745.010742188 408.1225 745.010742188 c 1
 394.649 646.622742188 l 1
 394.649 646.622742188 366.143436621 657.973742188 326.245 657.973742188 c 0
 263.942491785 657.973742188 237.75325 628.355677949 237.75325 559.643242188 c 2
 237.75325 559.643242188 237.75325 0.6117578125 237.75325 0.6117578125 c 2
 237.75325 -114.123111856 186.601862069 -190.010742188 63.23675 -190.010742188 c 0
 -5.51117393531 -190.010742188 -53.06125 -172.622992188 -53.06125 -172.622992188 c 1
 -39.23675 -69.2737421876 l 1
 -39.23675 -69.2737421876 -9.88227261825 -81.5379921876 31.205 -81.5379921876 c 0
 87.5586129516 -81.5379921876 111.24675 -55.1528265248 111.24675 6.0607578125 c 2
EndSplineSet
EndChar

StartChar: uni01B7
Encoding: 439 439 191
Width: 584
Flags: W
HStem: -9.99805 113.047<110.871 357.924> 614.016 116.984<40.8775 360.079>
VStem: 412.645 134.888<153.9 287.057>
LayerCount: 2
Fore
SplineSet
341.43825 426.4205 m 1
 358.144734676 426.4205 547.533632812 421.688424858 547.533632812 218.007648438 c 0
 547.533632812 55.2098578359 428.592942225 -9.998046875 250 -9.998046875 c 0
 103.484775212 -9.998046875 16.328671875 40.7336796875 16.328671875 40.7336796875 c 1
 51.7601640625 150.384445312 l 1
 51.7601640625 150.384445312 126.316434525 103.048953125 243.26325 103.048953125 c 0
 360.434856992 103.048953125 412.645148438 144.832115851 412.645148438 221.858871338 c 0
 412.645148438 297.96933684 356.64403267 334.286249049 249.271171875 334.594304688 c 2
 170.5 334.857 l 1
 170.5 398.1755 l 1
 360.07925 614.016 l 1
 40.8775 614.016 l 1
 40.8775 731 l 1
 520.1225 731 l 1
 520.1225 630.616 l 1
 341.43825 426.4205 l 1
EndSplineSet
EndChar

StartChar: uni0292
Encoding: 658 658 192
Width: 524
Flags: W
HStem: -189.994 105.45<75.1242 312.725> 393.237 107.774<44 314.918>
VStem: 363.167 124.367<-40.452 80.745>
LayerCount: 2
Fore
SplineSet
294.12275 209.347 m 1
 306.058028365 209.347 487.533632812 204.286074817 487.533632812 18.0543405762 c 0
 487.533632812 -130.100475901 376.588051179 -189.994140625 210 -189.994140625 c 0
 94.8354817715 -189.994140625 26.328671875 -159.086914062 26.328671875 -159.086914062 c 1
 51.4499140625 -53.2208984376 l 1
 51.4499140625 -53.2208984376 111.132934903 -84.544140625 204.75 -84.544140625 c 0
 314.336286627 -84.544140625 363.166648438 -45.9405948157 363.166648438 21.8158134766 c 0
 363.166648438 90.2649231655 309.513436646 122.387299783 206.643671875 122.698210938 c 2
 206.643671875 122.698210938 132.255 122.96090625 132.255 122.96090625 c 1
 132.255 122.96090625 132.255 188.95090625 132.255 188.95090625 c 1
 314.918 393.236992188 l 1
 44 393.236992188 l 1
 44 501.010742188 l 1
 473.1225 501.010742188 l 1
 473.1225 409.836992188 l 1
 294.12275 209.347 l 1
EndSplineSet
EndChar

StartChar: Oslash
Encoding: 216 216 193
Width: 811
Flags: W
HStem: -9.99805 123.657<293.329 504.449> 615.464 123.657<293.329 504.449>
VStem: 42.3775 135.079<238.238 490.886> 620.321 135.079<238.238 490.886>
LayerCount: 2
Fore
SplineSet
157.296044922 -91.4697265625 m 1
 537.290917969 801.403320312 l 1
 639.714111328 801.403320312 l 1
 259.719238281 -91.4697265625 l 1
 157.296044922 -91.4697265625 l 1
EndSplineSet
Refer: 1 79 N 1 0 0 1 0 0 2
EndChar

StartChar: oslash
Encoding: 248 248 194
Width: 598
Flags: W
HStem: -9.99805 111.109<218.968 369.692> 399.637 111.297<217.689 371.035>
VStem: 42.3775 122.794<156.876 344.021> 424.606 122.794<158.306 342.651>
LayerCount: 2
Fore
SplineSet
65.5197265625 -91.4697265625 m 1
 425.326904297 581.403320312 l 1
 519.990429687 581.403320312 l 1
 160.183251953 -91.4697265625 l 1
 65.5197265625 -91.4697265625 l 1
EndSplineSet
Refer: 29 111 N 1 0 0 1 0 0 2
EndChar

StartChar: ring
Encoding: 730 730 197
Width: 355
Flags: W
HStem: 484.458 78.6365<133.403 223.287> 682.178 78.824<130.962 224.015>
VStem: 35.8825 86.1799<572.826 672.533> 233.715 86.1799<573.21 672.173>
LayerCount: 2
Fore
SplineSet
122.062375 624.590234375 m 0
 122.062375 587.714243671 138.515033983 563.094296875 176.99609375 563.094296875 c 0
 216.727895374 563.094296875 233.71496875 587.714243671 233.71496875 624.590234375 c 0
 233.71496875 659.122918673 216.757668791 682.17796875 177.094726562 682.17796875 c 0
 138.544808145 682.17796875 122.062375 659.122918673 122.062375 624.590234375 c 0
35.8825 624.823632812 m 0
 35.8825 707.224888176 89.236227354 761.001953125 176.888671875 761.001953125 c 0
 265.784298265 761.001953125 319.89484375 707.224888176 319.89484375 624.823632812 c 0
 319.89484375 539.889025122 265.784298265 484.4578125 176.888671875 484.4578125 c 0
 89.236227354 484.4578125 35.8825 539.889025122 35.8825 624.823632812 c 0
EndSplineSet
EndChar

StartChar: ogonek
Encoding: 731 731 198
Width: 307
VWidth: 999
Flags: W
HStem: -253.684 76.192<147.676 263.947>
VStem: 37.3775 97.6125<-165.188 -46.5526>
LayerCount: 2
Fore
SplineSet
37.3775 -130 m 0
 37.3775 -30.5220125786 126.255 39 126.255 39 c 1
 219.745 39 l 1
 219.745 39 134.99 -30.1663375796 134.99 -109.755 c 0
 134.99 -158.454288893 159.192237949 -177.49175 201.7715 -177.49175 c 0
 241.602434746 -177.49175 259.5265 -162.8775 259.5265 -162.8775 c 1
 277 -230.68375 l 1
 277 -230.68375 244.426287616 -253.68375 179 -253.68375 c 0
 91.7937847527 -253.68375 37.3775 -209.680464463 37.3775 -130 c 0
EndSplineSet
EndChar

StartChar: minute
Encoding: 8242 8242 203
Width: 235
Flags: W
HStem: 456 275.008<94.91 103.584>
VStem: 14.0325 208.235
LayerCount: 2
Fore
SplineSet
14.0325 456 m 1
 94.91 731.0078125 l 1
 222.2675 731.0078125 l 1
 103.58375 456 l 1
 14.0325 456 l 1
EndSplineSet
EndChar

StartChar: bullet
Encoding: 8226 8226 206
Width: 325
Flags: W
HStem: 243 240.449<88.295 236.931>
VStem: 43 239.227<288.527 437.922>
LayerCount: 2
Fore
SplineSet
43 363.224609375 m 0
 43 436.058088763 90.148702207 483.44921875 162.612304688 483.44921875 c 0
 235.076823475 483.44921875 282.2265625 436.058088763 282.2265625 363.224609375 c 0
 282.2265625 290.389870589 235.076823475 243 162.612304688 243 c 0
 90.148702207 243 43 290.389870589 43 363.224609375 c 0
EndSplineSet
EndChar

StartChar: dagger
Encoding: 8224 8224 207
Width: 530
Flags: W
HStem: 375.643 109.735<30 500>
VStem: 192.01 145.98<-171.47 13.4032> 201.571 126.857<581.287 759.47> 214.633 100.735<241.818 604.719>
LayerCount: 2
Fore
SplineSet
192.01 -171.469726562 m 1xc0
 192.01 -171.469726562 214.6325 427 214.6325 427 c 1x90
 214.6325 427 201.57125 759.469726562 201.57125 759.469726562 c 1
 328.42875 759.469726562 l 1xa0
 315.3675 426 l 1x90
 337.99 -171.469726562 l 1
 192.01 -171.469726562 l 1xc0
30 375.643242188 m 1
 30 485.378242188 l 1
 500 485.378242188 l 1
 500 375.643242188 l 1
 30 375.643242188 l 1
EndSplineSet
EndChar

StartChar: daggerdbl
Encoding: 8225 8225 208
Width: 530
Flags: W
HStem: 85.6432 109.735<30 500> 425.643 109.735<30 500>
VStem: 201.133 127.735<-171.47 -12.041 223.667 399.926 613.004 759.47> 214.633 100.735<-22.9473 232.825 391.887 627.922>
LayerCount: 2
Fore
SplineSet
30 85.6432421876 m 1xc0
 30 195.378242188 l 1
 500 195.378242188 l 1
 500 85.6432421876 l 1
 30 85.6432421876 l 1xc0
201.1325 -171.469726562 m 1xe0
 201.1325 -171.469726562 214.6325 137 214.6325 137 c 1
 214.6325 137 201.4835 317 201.4835 317 c 1
 201.4835 317 214.6325 477 214.6325 477 c 1
 214.6325 477 201.57125 759.469726562 201.57125 759.469726562 c 1
 328.42875 759.469726562 l 1
 315.3675 476 l 1
 328.5165 318 l 1
 315.3675 136 l 1xd0
 328.8675 -171.469726562 l 1
 328.8675 -171.469726562 201.1325 -171.469726562 201.1325 -171.469726562 c 1xe0
30 425.643242188 m 1
 30 535.378242188 l 1
 500 535.378242188 l 1
 500 425.643242188 l 1
 30 425.643242188 l 1
EndSplineSet
EndChar

StartChar: uni2116
Encoding: 8470 8470 209
Width: 1126
Flags: W
HStem: 0 21G<62.3775 193.733 504.974 656.622> 247.606 88.4635<734.977 1071.02> 379.816 98.9634<852.765 962.255> 639.841 99.1509<852.207 962.859> 711.008 20G<62.3775 214.334 525.267 656.622>
VStem: 62.3775 131.356<0 502.79> 525.267 131.356<239.937 731.008> 728.466 104.586<498.598 622.045> 982.948 104.586<498.598 622.045>
LayerCount: 2
Fore
SplineSet
734.9775 336.0695 m 1xe780
 1071.0225 336.0695 l 1
 1071.0225 247.606 l 1
 734.9775 247.606 l 1
 734.9775 336.0695 l 1xe780
833.0521875 561.722226562 m 0
 833.0521875 511.985334259 855.329901194 478.778914062 906.897460938 478.778914062 c 0
 960.009741608 478.778914062 982.9478125 511.985334259 982.9478125 561.722226562 c 0
 982.9478125 608.566611594 960.046920643 639.841320312 907.020507812 639.841320312 c 0xf780
 855.367082399 639.841320312 833.0521875 608.566611594 833.0521875 561.722226562 c 0
728.466328125 561.497617188 m 0
 728.466328125 668.899260712 796.019660905 738.9921875 907 738.9921875 c 0
 1019.22350501 738.9921875 1087.53367188 668.899260712 1087.53367188 561.497617188 c 0
 1087.53367188 451.562767435 1019.22350501 379.815546875 907 379.815546875 c 0
 796.019660905 379.815546875 728.466328125 451.562767435 728.466328125 561.497617188 c 0
EndSplineSet
Refer: 11 78 N 1 0 0 1 0 0 2
EndChar

StartChar: uni20BF
Encoding: 8383 8383 210
Width: 649
Flags: W
HStem: -105 170.959<155.326 262.739 346.986 454.399> 0 117.831<195.108 432.621> 310.289 110.43<152.235 406.331> 613.279 117.729<195.108 404.816> 658.51 170.959<155.326 262.739 346.986 454.399>
VStem: 152.235 42.8725<310.289 420.719> 155.326 107.413<-105 65.9595 658.51 829.47> 346.986 107.413<-105 65.9595 658.51 829.47> 445.821 133.579<455.606 577.349> 468.821 133.579<152.218 273.566>
LayerCount: 2
Fore
SplineSet
346.98618164 -105 m 1xa1
 346.98618164 65.9594726562 l 1
 454.39897461 65.9594726562 l 1
 454.39897461 -105 l 1
 346.98618164 -105 l 1xa1
346.98618164 658.510253906 m 1x29
 346.98618164 829.469726562 l 1
 454.39897461 829.469726562 l 1
 454.39897461 658.510253906 l 1
 346.98618164 658.510253906 l 1x29
155.325927735 -105 m 1xa2
 155.325927735 65.9594726562 l 1
 262.739355469 65.9594726562 l 1
 262.739355469 -105 l 1
 155.325927735 -105 l 1xa2
155.325927735 658.510253906 m 1x2a
 155.325927735 829.469726562 l 1
 262.739355469 829.469726562 l 1
 262.739355469 658.510253906 l 1
 155.325927735 658.510253906 l 1x2a
EndSplineSet
Refer: 19 66 N 1 0 0 1 0 0 2
EndChar

StartChar: uni20A6
Encoding: 8358 8358 211
Width: 874
Flags: W
HStem: 0 21G<153.178 284.358 574.772 727.822> 260.404 82.9287<37.3775 240.858 633.143 836.622> 390.667 82.9287<37.3775 240.858 633.143 836.622> 711.008 20G<153.178 306.508 596.643 727.822>
VStem: 37.3775 246.98<260.404 343.333 390.667 473.596> 153.178 131.18<0 260.404 343.333 390.667 473.596 509.29> 153.178 87.68<260.404 343.333 390.667 473.596> 596.643 239.98<260.404 343.333 390.667 473.596> 596.643 131.18<233.437 260.404 343.333 390.667 473.596 731.008> 633.143 94.68<260.404 343.333 390.667 473.596>
LayerCount: 2
Fore
SplineSet
836.6225 260.404 m 1xf1
 633.1425 260.404 l 1
 633.1425 343.33275 l 1xf040
 836.6225 343.33275 l 1
 836.6225 260.404 l 1xf1
836.6225 390.66725 m 1xf1
 633.1425 390.66725 l 1
 633.1425 473.596 l 1xf040
 836.6225 473.596 l 1
 836.6225 390.66725 l 1xf1
240.8575 260.404 m 1xf2
 37.3775 260.404 l 1
 37.3775 343.33275 l 1xf8
 240.8575 343.33275 l 1
 240.8575 260.404 l 1xf2
240.8575 390.66725 m 1xf2
 37.3775 390.66725 l 1
 37.3775 473.596 l 1xf8
 240.8575 473.596 l 1
 240.8575 390.66725 l 1xf2
153.1775 0 m 1xf440
 153.1775 731.0078125 l 1
 294.3575 731.0078125 l 1
 596.6425 233.437109375 l 1
 596.6425 731.0078125 l 1
 727.8225 731.0078125 l 1xf280
 727.8225 0 l 1
 586.6425 0 l 1
 284.3575 509.289882812 l 1
 284.3575 0 l 1
 153.1775 0 l 1xf440
EndSplineSet
EndChar

StartChar: uni20BD
Encoding: 8381 8381 212
Width: 703
Flags: W
HStem: 0 21G<138.377 274.358> 160.107 82.49<30 544> 296.607 94.99<30 483.22> 613.015 117.992<274.358 478.556>
VStem: 138.377 135.98<0 613.015> 527.382 134.017<430.847 568.368>
LayerCount: 2
Fore
SplineSet
544 160.1065625 m 1
 30 160.1065625 l 1
 30 242.5965625 l 1
 544 242.5965625 l 1
 544 160.1065625 l 1
30 296.6065625 m 1
 30 391.5965625 l 1
 372.595671875 391.706914062 l 2
 461.211067344 391.823851582 527.382460938 411.130199353 527.382460938 498.266523438 c 0
 527.382460938 591.213606324 460.085672892 612.79494383 369.963171875 612.911898438 c 2
 274.3575 613.015414062 l 1
 274.3575 0 l 1
 138.3775 0 l 1
 138.3775 731.0078125 l 1
 377.511171875 731.0078125 l 2
 560.125429688 731.0078125 661.39984375 662.25944184 661.39984375 498.266523438 c 0
 661.39984375 367.822967897 570.019960938 296.6065625 415.6225 296.6065625 c 2
 30 296.6065625 l 1
EndSplineSet
EndChar

StartChar: dong
Encoding: 8363 8363 213
Width: 645
Flags: W
HStem: 0 82.9288<30.8775 593.122> 148.247 99.3894<233.331 370.758> 477.732 97.2019<233.098 378.397> 613.992 78.0165<301.877 607.622> 731.002 20G<410.94 538.325>
VStem: 71.4488 123.145<285.693 436.998> 410.94 127.384<353.619 751.002> 410.94 66.0936<386.497 496.539>
LayerCount: 2
Fore
SplineSet
593.1225 0 m 1xfc
 30.8775 0 l 1
 30.8775 82.92875 l 1
 593.1225 82.92875 l 1
 593.1225 0 l 1xfc
607.6225 613.99175 m 1
 301.8775 613.99175 l 1
 301.8775 692.00825 l 1
 607.6225 692.00825 l 1
 607.6225 613.99175 l 1
538.3245 158.245 m 1xfe
 410.9405 158.245 l 1xfd
 410.9405 751.001953125 l 1
 538.3245 751.001953125 l 1
 538.3245 158.245 l 1xfe
410.9405 384.496523438 m 1xfe
 410.9405 429.920402404 382.979080052 477.731679688 303.459960938 477.731679688 c 0
 231.386915849 477.731679688 194.593671875 430.59759377 194.593671875 359.996523438 c 0
 194.593671875 292.619189418 231.353411655 247.636367188 303.348632812 247.636367188 c 0
 382.943821192 247.636367188 410.9405 290.066559188 410.9405 353.619023438 c 1xfe
 472.034132812 365.619023438 l 1
 472.034132812 235.9403125 402.835656267 148.246953125 269.755 148.246953125 c 0
 134.066005255 148.246953125 71.4487890625 237.762657258 71.4487890625 359.996523438 c 0
 71.4487890625 485.925990077 140.44460806 574.93359375 274.714960938 574.93359375 c 0
 412.861061881 574.93359375 477.034132812 496.539338967 477.034132812 386.496523438 c 1xfd
 410.9405 384.496523438 l 1xfe
EndSplineSet
EndChar

StartChar: uni1E9E
Encoding: 7838 7838 220
Width: 743
Flags: W
HStem: -10 109.659<348.105 533.259> 0 21G<62.3775 198.358> 614.112 116.896<247.624 494.897>
VStem: 62.3775 135.98<0 565.383> 576.855 133.768<141.322 280.587>
LayerCount: 2
Fore
SplineSet
62.3775 494.9 m 2x78
 62.3775 661.010248572 150.310772727 731.0078125 346.8675 731.0078125 c 2
 658.5 731.0078125 l 1
 658.5 645.8340625 l 1
 501.2555 416.745 l 1
 580.465823371 416.745 710.6225 379.025410628 710.6225 211.2725 c 0
 710.6225 61.8165131579 620.411554878 -10 472 -10 c 0
 360.22968059 -10 302.3775 26 302.3775 26 c 1
 332.55 129.385 l 1
 332.55 129.385 378.534756591 99.6590234377 455.193125 99.6590234377 c 0xb8
 529.289358325 99.6590234377 576.85475 137.235677908 576.85475 212.6725 c 0
 576.85475 288.175974227 528.791632979 321.9835 415.5 321.9835 c 2
 338.3775 321.9835 l 1
 338.3775 384.6225 l 1
 494.8975 614.1115625 l 1
 339.3775 614.1115625 l 2
 230.317506463 614.1115625 198.3575 568.441943987 198.3575 461.9078125 c 2
 198.3575 0 l 1
 62.3775 0 l 1
 62.3775 494.9 l 2x78
EndSplineSet
EndChar

StartChar: germandbls
Encoding: 223 223 221
Width: 725
Flags: W
HStem: -9.99805 99.792<345.796 546.862> 0 21G<65.6243 192.131> 410.143 101.441<435.249 534.583> 651.864 109.146<259.794 474.673>
VStem: 65.6243 126.507<0 578.791> 296.632 124.615<321.316 394.513> 535.777 122.413<507.822 592.206> 560.236 123.076<105.069 178.038>
LayerCount: 2
Fore
SplineSet
460.86861792 203.579550049 m 0xbd
 331.861608393 232.605905588 296.631601562 279.760597706 296.631601562 355.1775 c 0
 296.631601562 452.607807825 371.833270676 511.58359375 480 511.58359375 c 0
 517.433462303 511.58359375 535.77725 507.8225 535.77725 507.8225 c 1
 533.116259273 601.813892074 492.675165536 651.864492188 370 651.864492188 c 0
 231.033353783 651.864492188 192.13075 590.884830922 192.13075 470.520742188 c 2
 192.13075 470.520742188 192.13075 0 192.13075 0 c 1
 192.13075 0 65.62425 0 65.62425 0 c 1
 65.62425 483.520742188 l 2
 65.62425 652.97990924 140.666303878 761.010742188 361 761.010742188 c 0
 613.719623016 761.010742188 658.190664062 628.47729353 658.190664062 506.596 c 0x7e
 658.190664062 436.912510555 640.894921875 382.557335938 640.894921875 382.557335938 c 1
 640.894921875 382.557335938 590.604912208 410.142796875 516.478914062 410.142796875 c 0
 450.788998684 410.142796875 421.24671875 389.915179834 421.24671875 357.296054688 c 0
 421.24671875 329.555520632 440.623006471 314.032980981 505.993548095 298.670793945 c 0
 639.320806801 266.667214449 683.311953125 222.37179406 683.311953125 143.22484375 c 0
 683.311953125 48.7953277342 611.432669216 -9.998046875 476.856445312 -9.998046875 c 0
 361.499079396 -9.998046875 288.3775 26.5625 288.3775 26.5625 c 1
 314.314453125 124.973828125 l 1
 314.314453125 124.973828125 380.768841723 89.7939453123 462.243164062 89.7939453123 c 0
 528.629629651 89.7939453123 560.235507812 107.437186899 560.235507812 141.659414062 c 0
 560.235507812 170.041640684 543.019874517 185.336220226 460.86861792 203.579550049 c 0xbd
EndSplineSet
EndChar

StartChar: uni2113
Encoding: 8467 8467 222
Width: 619
Flags: W
HStem: -10 119.686<300.817 493.414> 649.751 111.251<319.627 426.155>
VStem: 445.137 127.125<484.464 632.48>
LayerCount: 2
Fore
SplineSet
105.1325 301.344609375 m 0
 105.1325 603.989328888 198.862809789 761.001953125 375.356390625 761.001953125 c 0
 516.50146085 761.001953125 572.262148438 663.383963001 572.262148438 572.33653125 c 0
 572.262148438 225.609921402 25.58775 166.1755 25.58775 166.1755 c 1
 25.58775 166.1755 12.46525 275.6585 12.46525 275.6585 c 1
 12.46525 275.6585 445.137054688 329.518096165 445.137054688 567.631453125 c 0
 445.137054688 619.244808194 421.945961381 649.751320312 377.356390625 649.751320312 c 0
 281.318724618 649.751320312 241.078742188 514.523268079 241.078742188 317.12 c 0
 241.078742188 182.449593668 266.269978079 109.686382812 387.46425 109.686382812 c 0
 473.068734808 109.686382812 531.585507812 150.156804688 531.585507812 150.156804688 c 1
 563 42 l 1
 563 42 502.614770235 -10 369.155390625 -10 c 0
 198.609291929 -10 105.1325 92.5180029556 105.1325 301.344609375 c 0
EndSplineSet
EndChar

StartChar: uni20B8
Encoding: 8376 8376 223
Width: 614
Flags: W
HStem: 0 21G<239.01 374.99> 398.719 117.546<36.5 239.01 374.99 577.5> 398.719 87.5463<239.01 374.99> 613.454 117.546<36.5 577.5>
VStem: 239.01 135.98<0 486.265>
LayerCount: 2
Fore
SplineSet
577.5 613.45375 m 1x98
 36.5 613.45375 l 1
 36.5 731 l 1
 577.5 731 l 1
 577.5 613.45375 l 1x98
577.5 398.71875 m 1xd8
 36.5 398.71875 l 1
 36.5 516.265 l 1
 577.5 516.265 l 1
 577.5 398.71875 l 1xd8
239.01 0 m 1
 239.01 0 239.01 486.265 239.01 486.265 c 1
 239.01 486.265 374.99 486.265 374.99 486.265 c 1xb8
 374.99 486.265 374.99 0 374.99 0 c 1
 239.01 0 l 1
EndSplineSet
EndChar

StartChar: uni20BC
Encoding: 8380 8380 224
Width: 839
Flags: W
HStem: 0 21G<62.3775 198.358 351.51 487.49 637.42 773.4> 437.16 120.846<294.587 541.191> 711.008 20G<351.51 487.49>
VStem: 62.3775 135.98<0 343.406> 351.51 135.98<0 731.008> 637.42 135.98<0 343.406>
LayerCount: 2
Fore
SplineSet
417.888671875 558.005859375 m 0
 683.387860128 558.005859375 773.39984375 433.929810783 773.39984375 243.813789062 c 2
 773.39984375 243.813789062 773.39984375 0 773.39984375 0 c 1
 637.41984375 0 l 1
 637.41984375 0 637.41984375 213.813789062 637.41984375 213.813789062 c 2
 637.41984375 347.743709673 607.151884552 437.159945312 417.888671875 437.159945312 c 0
 228.625459198 437.159945312 198.3575 347.743709673 198.3575 213.813789062 c 2
 198.3575 213.813789062 198.3575 0 198.3575 0 c 1
 62.3775 0 l 1
 62.3775 0 62.3775 243.813789062 62.3775 243.813789062 c 2
 62.3775 433.929810783 152.389483622 558.005859375 417.888671875 558.005859375 c 0
351.51 0 m 1
 351.51 731.0078125 l 1
 487.49 731.0078125 l 1
 487.49 0 l 1
 351.51 0 l 1
EndSplineSet
EndChar

StartChar: Ohorn
Encoding: 416 416 225
Width: 811
Flags: W
HStem: -9.99805 123.657<293.329 504.449> 615.464 123.657<293.329 504.449>
VStem: 42.3775 135.079<238.238 490.886> 593.155 116.222<673.008 814.018> 620.321 135.079<238.238 490.886>
LayerCount: 2
Fore
SplineSet
563.465478516 825.799804688 m 1xf0
 687.504492187 825.799804688 l 1
 687.504492187 825.799804688 709.376464844 795.200195312 709.376464844 738.9921875 c 0
 709.376464844 646.239697265 628.642431641 594.569970703 628.642431641 594.569970703 c 1
 547.879052735 641.360351562 l 1
 547.879052735 641.360351562 593.154541015 688 593.154541015 733.729492188 c 0
 593.154541015 790.55078125 563.465478516 825.799804688 563.465478516 825.799804688 c 1xf0
EndSplineSet
Refer: 1 79 N 1 0 0 1 0 0 2
EndChar

StartChar: ohorn
Encoding: 417 417 226
Width: 598
Flags: W
HStem: -9.99805 111.109<218.968 369.692> 399.637 111.297<217.689 371.035>
VStem: 42.3775 122.794<156.876 344.021> 419.548 110.817<463.008 604.018> 424.606 122.794<158.306 342.651>
LayerCount: 2
Fore
SplineSet
389.859033203 615.799804688 m 1xf0
 508.4921875 615.799804688 l 1
 508.4921875 615.799804688 530.364794922 585.200195312 530.364794922 528.9921875 c 0
 530.364794922 436.239697265 449.630126953 384.569970703 449.630126953 384.569970703 c 1
 374.273242187 431.360351562 l 1
 374.273242187 431.360351562 419.548095703 478 419.548095703 523.729492188 c 0
 419.548095703 580.55078125 389.859033203 615.799804688 389.859033203 615.799804688 c 1xf0
EndSplineSet
Refer: 29 111 N 1 0 0 1 0 0 2
EndChar

StartChar: Uhorn
Encoding: 431 431 227
Width: 777
Flags: W
HStem: -9.99805 123.745<262.593 453.185> 663.632 162.167<620.622 704.765> 711.008 20G<62.3775 198.358 517.42 653.4>
VStem: 62.3775 135.98<179.432 731.008> 517.42 135.98<179.432 731.008> 618.765 120.857<738.523 815.441>
LayerCount: 2
Fore
SplineSet
584.845078125 825.799804688 m 1xd4
 710.382265625 825.799804688 l 1
 710.382265625 825.799804688 739.6225 800.306766782 739.6225 752.8775 c 0
 739.6225 694.034642857 691.6225 663.6325 620.6225 663.6325 c 1xd4
 545.765 731.0078125 l 1xb4
 579.765 731.0078125 618.765 732.480474404 618.765 770 c 0
 618.765 804 584.845078125 825.799804688 584.845078125 825.799804688 c 1xd4
EndSplineSet
Refer: 6 85 N 1 0 0 1 0 0 2
EndChar

